<?xml version="1.0" encoding="utf-8"?>
<!-- Generator: Adobe Illustrator 16.0.0, SVG Export Plug-In . SVG Version: 6.00 Build 0)  -->
<!DOCTYPE svg PUBLIC "-//W3C//DTD SVG 1.1//EN" "http://www.w3.org/Graphics/SVG/1.1/DTD/svg11.dtd">
<svg version="1.1" xmlns="http://www.w3.org/2000/svg" xmlns:xlink="http://www.w3.org/1999/xlink" x="0px" y="0px"
	 width="2525.668px" height="213px" viewBox="0 0 2525.668 213" enable-background="new 0 0 2525.668 213" xml:space="preserve">
<g id="Layer_2">
	<rect fill="#F4F7F4" width="2525.668" height="213"/>
</g>
<g id="Layer_1">
	<rect x="58.992" y="67.553" fill="none" stroke="#6DB6A0" stroke-miterlimit="10" width="79.734" height="79.734"/>
	<rect x="475.967" y="67.553" fill="none" stroke="#BBD5C3" stroke-miterlimit="10" width="79.736" height="79.734"/>
	<rect x="892.945" y="67.553" fill="none" stroke="#EF885A" stroke-miterlimit="10" width="79.736" height="79.734"/>
	<rect x="1309.924" y="67.553" fill="none" stroke="#EDC9B1" stroke-miterlimit="10" width="79.738" height="79.734"/>
	<g>
		<rect x="1726.896" y="66.077" fill="#FFF0E1" width="79.738" height="79.735"/>
		<rect x="1726.896" y="119.029" opacity="0.4" fill="#767C6D" width="79.738" height="26.782"/>
	</g>
	<g>
		<rect x="2143.874" y="66.077" fill="#E3EFE5" width="79.74" height="79.735"/>
		<rect x="2143.874" y="66.077" opacity="0.4" fill="#767C6D" width="79.74" height="56.316"/>
	</g>
	<rect x="166.877" y="45.603" fill="none" width="265.87" height="132.777"/>
	<text transform="matrix(1 0 0 1 166.8765 69.2837)"><tspan x="0" y="0" fill="#767C6D" font-family="'Muli'" font-size="32.4861">Women and girls </tspan><tspan x="0" y="38.984" fill="#767C6D" font-family="'Muli'" font-size="32.4861">preference for </tspan><tspan x="0" y="77.966" fill="#767C6D" font-family="'Muli'" font-size="32.4861">political leaders</tspan></text>
	<rect x="584.74" y="45.603" fill="none" width="285.358" height="221.109"/>
	<text transform="matrix(1 0 0 1 584.7397 69.2837)"><tspan x="0" y="0" fill="#767C6D" font-family="'Muli'" font-size="32.4861">Women and girls </tspan><tspan x="0" y="38.984" fill="#767C6D" font-family="'Muli'" font-size="32.4861">preference for no </tspan><tspan x="0" y="77.966" fill="#767C6D" font-family="'Muli'" font-size="32.4861">gender preference</tspan></text>
	<rect x="1004.24" y="45.603" fill="none" width="279.318" height="221.109"/>
	<text transform="matrix(1 0 0 1 1004.2393 69.2837)"><tspan x="0" y="0" fill="#767C6D" font-family="'Muli'" font-size="32.4861">Men and boys </tspan><tspan x="0" y="38.984" fill="#767C6D" font-family="'Muli'" font-size="32.4861">preference for </tspan><tspan x="0" y="77.966" fill="#767C6D" font-family="'Muli'" font-size="32.4861">political leaders</tspan></text>
	<rect x="1422.103" y="45.603" fill="none" width="292.636" height="221.109"/>
	<text transform="matrix(1 0 0 1 1422.1016 69.2837)"><tspan x="0" y="0" fill="#767C6D" font-family="'Muli'" font-size="32.4861">Men and boys </tspan><tspan x="0" y="38.984" fill="#767C6D" font-family="'Muli'" font-size="32.4861">preference for no </tspan><tspan x="0" y="77.966" fill="#767C6D" font-family="'Muli'" font-size="32.4861">gender preference</tspan></text>
	<rect x="2261.58" y="45.605" fill="none" width="230.695" height="221.106"/>
	<text transform="matrix(1 0 0 1 2261.5791 69.2871)"><tspan x="0" y="0" fill="#767C6D" font-family="'Muli'" font-size="32.4861">Percentage of </tspan><tspan x="0" y="38.983" fill="#767C6D" font-family="'Muli'" font-size="32.4861">Men holding </tspan><tspan x="0" y="77.967" fill="#767C6D" font-family="'Muli'" font-size="32.4861">political role</tspan></text>
	<rect x="1860.026" y="45.605" fill="none" width="283.85" height="221.106"/>
	<text transform="matrix(1 0 0 1 1860.0254 69.2871)"><tspan x="0" y="0" fill="#767C6D" font-family="'Muli'" font-size="32.4861">Percentage of </tspan><tspan x="0" y="38.983" fill="#767C6D" font-family="'Muli'" font-size="32.4861">women holding </tspan><tspan x="0" y="77.967" fill="#767C6D" font-family="'Muli'" font-size="32.4861">political role</tspan></text>
</g>
</svg>
