<?xml version="1.0" encoding="utf-8"?>
<!-- Generator: Adobe Illustrator 16.0.0, SVG Export Plug-In . SVG Version: 6.00 Build 0)  -->
<!DOCTYPE svg PUBLIC "-//W3C//DTD SVG 1.1//EN" "http://www.w3.org/Graphics/SVG/1.1/DTD/svg11.dtd">
<svg version="1.1" xmlns="http://www.w3.org/2000/svg" xmlns:xlink="http://www.w3.org/1999/xlink" x="0px" y="0px"
	 width="510.532px" height="216.179px" viewBox="0 0 510.532 216.179" enable-background="new 0 0 510.532 216.179"
	 xml:space="preserve">
<g id="houseBoysPercentM">
	<g>
		<rect x="308.414" y="17.205" fill="#E3EFE5" width="182.684" height="182.682"/>
		<rect x="308.412" y="17.205" opacity="0.5" fill="#767C6D" width="182.686" height="147.971"/>
	</g>
</g>
<g id="houseBoysPercentW">
	<g>
		<rect x="82.684" y="17.205" fill="#FFF1E2" width="182.684" height="182.682"/>
		<rect x="82.684" y="165.175" opacity="0.5" fill="#767C6D" width="182.684" height="34.711"/>
	</g>
</g>
<g id="houseBoysWL">
	
		<rect x="83.083" y="193.379" fill="none" stroke="#F0895A" stroke-width="4" stroke-miterlimit="10" width="182.684" height="7.305"/>
	
		<rect x="83.083" y="88.453" fill="none" stroke="#EECAB2" stroke-width="4" stroke-miterlimit="10" width="182.684" height="102.301"/>
</g>
<g id="houseBoysML">
	
		<rect x="307.411" y="91.078" fill="none" stroke="#EECAB2" stroke-width="4" stroke-miterlimit="10" width="182.684" height="102.302"/>
	
		<rect x="307.411" y="15.38" fill="none" stroke="#F0895A" stroke-width="4" stroke-miterlimit="10" width="182.684" height="73.072"/>
</g>
<g id="houseBoysText">
	<g>
		<path fill="#F0895A" d="M22.868,103.379c-0.311-1.475-0.539-3.801-0.539-6.166c0-3.375,0.576-5.549,1.885-7.176
			c0.998-1.357,2.533-2.174,4.57-2.174c2.498,0,4.688,1.668,5.686,4.422h0.08c0.611-2.482,2.648-5.391,6.492-5.391
			c2.227,0,3.916,0.893,5.184,2.209c1.652,1.826,2.422,4.771,2.422,9.039c0,2.328-0.152,4.111-0.309,5.236H22.868z M33.471,100.006
			v-3.064c0-3.57-1.844-5.664-4.344-5.664c-3.031,0-4.227,2.328-4.227,5.742c0,1.551,0.117,2.443,0.234,2.986H33.471z
			 M45.881,100.006c0.113-0.658,0.154-1.631,0.154-2.832c0-3.49-1.268-6.711-5.037-6.711c-3.531,0-4.992,3.064-4.992,6.75v2.793
			H45.881z"/>
		<path fill="#F0895A" d="M35.198,60.016c8.916,0,13.641,5.471,13.641,12.143c0,6.904-5.301,11.756-13.139,11.756
			c-8.225,0-13.604-5.162-13.604-12.145C22.096,64.633,27.514,60.016,35.198,60.016z M35.624,80.305
			c5.531,0,10.488-3.025,10.488-8.342c0-5.352-4.881-8.377-10.758-8.377c-5.15,0-10.527,2.715-10.527,8.34
			C24.827,77.512,29.934,80.305,35.624,80.305z"/>
		<path fill="#F0895A" d="M48.417,50.907H37.428l-14.906,8.266v-3.844l7.143-3.686c1.963-1.01,3.539-1.783,5.344-2.598v-0.078
			c-1.693-0.736-3.381-1.629-5.344-2.639l-7.143-3.762v-3.84l14.867,8.766h11.027V50.907z"/>
		<path fill="#F0895A" d="M44.342,36.715c0.926-1.514,1.693-3.725,1.693-6.051c0-3.453-1.807-5.473-4.418-5.473
			c-2.42,0-3.807,1.398-5.15,4.926c-1.5,4.27-3.688,6.906-7.34,6.906c-4.033,0-7.031-3.375-7.031-8.457
			c0-2.676,0.617-4.615,1.27-5.779l2.73,0.93c-0.463,0.854-1.23,2.602-1.23,4.967c0,3.568,2.113,4.928,3.879,4.928
			c2.42,0,3.613-1.592,4.996-5.197c1.689-4.422,3.805-6.674,7.607-6.674c3.994,0,7.451,2.988,7.451,9.156
			c0,2.521-0.727,5.275-1.652,6.67L44.342,36.715z"/>
	</g>
</g>
<g id="houseBoysWLStat">
	<g>
		<path fill="#EECAB2" d="M89.815,79.464h-3.936l-0.042,1.526c0.238-0.084,0.504-0.111,0.882-0.111c2.003,0,3.432,1.246,3.432,3.277
			c0,2.241-1.611,3.544-3.782,3.544c-1.709,0-2.914-0.854-3.348-2.535l2.199-0.504c0.112,0.714,0.63,1.19,1.359,1.19
			c0.896,0,1.471-0.631,1.471-1.485c0-1.303-1.191-1.639-2.283-1.639c-0.687,0-1.401,0.141-2.059,0.364l0.112-5.477h5.995V79.464z"
			/>
		<path fill="#EECAB2" d="M94.881,81.16c0.224-0.057,0.448-0.099,0.687-0.099c1.863,0,3.11,1.429,3.11,3.236
			c0,2.045-1.625,3.403-3.698,3.403s-3.698-1.358-3.698-3.403c0-1.429,0.56-2.298,1.19-3.292l2.171-3.39h2.563L94.881,81.16z
			 M94.979,82.658c-0.938,0-1.597,0.659-1.597,1.556s0.658,1.555,1.597,1.555s1.597-0.658,1.597-1.555S95.918,82.658,94.979,82.658z
			"/>
		<path fill="#EECAB2" d="M101.979,77.447c1.527,0,2.759,1.233,2.759,2.774c0,1.54-1.232,2.773-2.759,2.773s-2.76-1.233-2.76-2.773
			C99.219,78.68,100.452,77.447,101.979,77.447z M101.979,78.876c-0.743,0-1.331,0.602-1.331,1.345c0,0.742,0.588,1.345,1.331,1.345
			c0.742,0,1.331-0.603,1.331-1.345C103.31,79.478,102.721,78.876,101.979,78.876z M107.764,77.167l1.177,0.658l-5.785,10.155
			l-1.065-0.603L107.764,77.167z M109.025,82.14c1.527,0,2.759,1.232,2.759,2.773s-1.232,2.787-2.759,2.787s-2.76-1.246-2.76-2.787
			S107.498,82.14,109.025,82.14z M109.025,83.569c-0.743,0-1.331,0.603-1.331,1.345c0,0.756,0.588,1.358,1.331,1.358
			c0.742,0,1.331-0.603,1.331-1.358C110.355,84.171,109.767,83.569,109.025,83.569z"/>
		<path fill="#EECAB2" d="M117,77.616h2.97l4.216,6.892h0.028v-6.892h2.185v9.917h-2.857l-4.329-7.06h-0.028v7.06H117V77.616z"/>
		<path fill="#EECAB2" d="M131.673,80.557c2.101,0,3.782,1.4,3.782,3.571c0,2.172-1.681,3.572-3.782,3.572s-3.782-1.4-3.782-3.572
			C127.891,81.958,129.572,80.557,131.673,80.557z M131.673,85.852c1.05,0,1.681-0.7,1.681-1.724c0-1.022-0.63-1.723-1.681-1.723
			c-1.051,0-1.681,0.7-1.681,1.723C129.992,85.152,130.623,85.852,131.673,85.852z"/>
		<path fill="#EECAB2" d="M141.093,77.616h3.684c2.059,0,3.768,0.658,3.768,3.012c0,2.325-1.583,3.039-3.67,3.039h-1.597v3.866
			h-2.186V77.616z M143.279,81.818h1.457c0.771,0,1.541-0.267,1.541-1.19c0-1.023-1.037-1.163-1.877-1.163h-1.121V81.818z"/>
		<path fill="#EECAB2" d="M149.647,80.725h2.102v1.093h0.028c0.448-0.827,1.037-1.261,1.961-1.261c0.238,0,0.504,0.014,0.701,0.07
			v1.919c-0.294-0.084-0.588-0.141-0.896-0.141c-1.597,0-1.793,0.925-1.793,2.283v2.844h-2.102V80.725z"/>
		<path fill="#EECAB2" d="M161.537,86.356c-0.672,0.854-1.779,1.345-2.872,1.345c-2.101,0-3.782-1.4-3.782-3.572
			c0-2.171,1.681-3.571,3.782-3.571c1.961,0,3.194,1.4,3.194,3.571v0.659h-4.875c0.168,0.798,0.771,1.316,1.583,1.316
			c0.687,0,1.148-0.351,1.499-0.826L161.537,86.356z M159.757,83.359c0.014-0.701-0.532-1.289-1.289-1.289
			c-0.924,0-1.429,0.63-1.485,1.289H159.757z"/>
		<path fill="#EECAB2" d="M163.857,82.406h-1.387v-1.681h1.387V79.52c0-1.484,0.378-2.745,2.662-2.745
			c0.42,0,0.84,0.028,1.232,0.126l-0.098,1.779c-0.238-0.084-0.434-0.141-0.686-0.141c-0.672,0-1.009,0.21-1.009,1.106v1.079h1.555
			v1.681h-1.555v5.127h-2.101V82.406z"/>
		<path fill="#EECAB2" d="M174.752,86.356c-0.672,0.854-1.779,1.345-2.872,1.345c-2.101,0-3.782-1.4-3.782-3.572
			c0-2.171,1.681-3.571,3.782-3.571c1.961,0,3.193,1.4,3.193,3.571v0.659h-4.875c0.168,0.798,0.771,1.316,1.583,1.316
			c0.687,0,1.148-0.351,1.499-0.826L174.752,86.356z M172.973,83.359c0.014-0.701-0.532-1.289-1.289-1.289
			c-0.924,0-1.429,0.63-1.485,1.289H172.973z"/>
		<path fill="#EECAB2" d="M176.344,80.725h2.102v1.093h0.028c0.448-0.827,1.037-1.261,1.961-1.261c0.238,0,0.504,0.014,0.701,0.07
			v1.919c-0.294-0.084-0.588-0.141-0.896-0.141c-1.597,0-1.793,0.925-1.793,2.283v2.844h-2.102V80.725z"/>
		<path fill="#EECAB2" d="M188.233,86.356c-0.672,0.854-1.779,1.345-2.872,1.345c-2.101,0-3.782-1.4-3.782-3.572
			c0-2.171,1.681-3.571,3.782-3.571c1.961,0,3.193,1.4,3.193,3.571v0.659h-4.875c0.168,0.798,0.771,1.316,1.583,1.316
			c0.687,0,1.148-0.351,1.499-0.826L188.233,86.356z M186.454,83.359c0.014-0.701-0.532-1.289-1.289-1.289
			c-0.924,0-1.429,0.63-1.485,1.289H186.454z"/>
		<path fill="#EECAB2" d="M189.825,80.725h2.017v0.925h0.028c0.28-0.532,0.966-1.093,1.989-1.093c2.129,0,2.521,1.4,2.521,3.222
			v3.754h-2.101v-3.334c0-0.784-0.014-1.793-1.093-1.793c-1.092,0-1.26,0.854-1.26,1.737v3.39h-2.102V80.725z"/>
		<path fill="#EECAB2" d="M202.47,82.924c-0.21-0.294-0.603-0.519-1.037-0.519c-1.051,0-1.681,0.7-1.681,1.723
			c0,1.023,0.63,1.724,1.681,1.724c0.462,0,0.798-0.238,1.037-0.519l1.387,1.457c-0.659,0.672-1.625,0.91-2.423,0.91
			c-2.101,0-3.782-1.4-3.782-3.572c0-2.171,1.681-3.571,3.782-3.571c0.798,0,1.765,0.238,2.423,0.91L202.47,82.924z"/>
		<path fill="#EECAB2" d="M211.053,86.356c-0.672,0.854-1.779,1.345-2.872,1.345c-2.101,0-3.782-1.4-3.782-3.572
			c0-2.171,1.681-3.571,3.782-3.571c1.961,0,3.193,1.4,3.193,3.571v0.659H206.5c0.168,0.798,0.771,1.316,1.583,1.316
			c0.687,0,1.148-0.351,1.499-0.826L211.053,86.356z M209.273,83.359c0.014-0.701-0.532-1.289-1.289-1.289
			c-0.924,0-1.429,0.63-1.485,1.289H209.273z"/>
	</g>
	<g>
		<path fill="#F0895A" d="M89.748,191.504H85.42v-1.765l4.048-6.163h2.297v6.163h1.275v1.765h-1.275v1.989h-2.017V191.504z
			 M89.748,186.322H89.72l-2.199,3.418h2.227V186.322z"/>
		<path fill="#F0895A" d="M96.201,183.408c1.527,0,2.759,1.233,2.759,2.774c0,1.54-1.232,2.773-2.759,2.773s-2.76-1.233-2.76-2.773
			C93.441,184.641,94.674,183.408,96.201,183.408z M96.201,184.837c-0.743,0-1.331,0.602-1.331,1.345
			c0,0.742,0.588,1.345,1.331,1.345c0.742,0,1.331-0.603,1.331-1.345C97.532,185.439,96.943,184.837,96.201,184.837z
			 M101.986,183.128l1.177,0.658l-5.785,10.155l-1.065-0.603L101.986,183.128z M103.247,188.101c1.527,0,2.759,1.232,2.759,2.773
			s-1.232,2.787-2.759,2.787s-2.76-1.246-2.76-2.787S101.72,188.101,103.247,188.101z M103.247,189.53
			c-0.743,0-1.331,0.603-1.331,1.345c0,0.756,0.588,1.358,1.331,1.358c0.742,0,1.331-0.603,1.331-1.358
			C104.578,190.132,103.989,189.53,103.247,189.53z"/>
		<path fill="#F0895A" d="M111.222,183.577h3.684c2.059,0,3.768,0.658,3.768,3.012c0,2.325-1.583,3.039-3.67,3.039h-1.597v3.866
			h-2.186V183.577z M113.407,187.779h1.457c0.771,0,1.541-0.267,1.541-1.19c0-1.023-1.037-1.163-1.877-1.163h-1.121V187.779z"/>
		<path fill="#F0895A" d="M119.775,186.686h2.102v1.093h0.028c0.448-0.827,1.037-1.261,1.961-1.261c0.238,0,0.504,0.014,0.701,0.07
			v1.919c-0.294-0.084-0.588-0.141-0.896-0.141c-1.597,0-1.793,0.925-1.793,2.283v2.844h-2.102V186.686z"/>
		<path fill="#F0895A" d="M131.665,192.317c-0.672,0.854-1.779,1.345-2.872,1.345c-2.101,0-3.782-1.4-3.782-3.572
			c0-2.171,1.681-3.571,3.782-3.571c1.961,0,3.194,1.4,3.194,3.571v0.659h-4.875c0.168,0.798,0.771,1.316,1.583,1.316
			c0.687,0,1.148-0.351,1.499-0.826L131.665,192.317z M129.886,189.32c0.014-0.701-0.532-1.289-1.289-1.289
			c-0.924,0-1.429,0.63-1.485,1.289H129.886z"/>
		<path fill="#F0895A" d="M133.985,188.367h-1.387v-1.681h1.387v-1.205c0-1.484,0.378-2.745,2.662-2.745
			c0.42,0,0.84,0.028,1.232,0.126l-0.098,1.779c-0.238-0.084-0.434-0.141-0.686-0.141c-0.672,0-1.009,0.21-1.009,1.106v1.079h1.555
			v1.681h-1.555v5.127h-2.101V188.367z"/>
		<path fill="#F0895A" d="M144.88,192.317c-0.672,0.854-1.779,1.345-2.872,1.345c-2.101,0-3.782-1.4-3.782-3.572
			c0-2.171,1.681-3.571,3.782-3.571c1.961,0,3.193,1.4,3.193,3.571v0.659h-4.875c0.168,0.798,0.771,1.316,1.583,1.316
			c0.687,0,1.148-0.351,1.499-0.826L144.88,192.317z M143.101,189.32c0.014-0.701-0.532-1.289-1.289-1.289
			c-0.924,0-1.429,0.63-1.485,1.289H143.101z"/>
		<path fill="#F0895A" d="M146.472,186.686h2.102v1.093h0.028c0.448-0.827,1.037-1.261,1.961-1.261c0.238,0,0.504,0.014,0.701,0.07
			v1.919c-0.294-0.084-0.588-0.141-0.896-0.141c-1.597,0-1.793,0.925-1.793,2.283v2.844h-2.102V186.686z"/>
		<path fill="#F0895A" d="M155.544,183.577h2.381l1.583,6.359h0.028l2.073-6.359h2.031l2.059,6.527h0.028l1.667-6.527h2.213
			l-2.899,9.917h-1.947l-2.185-6.863h-0.028l-2.185,6.863h-1.877L155.544,183.577z"/>
		<path fill="#F0895A" d="M173.074,186.518c2.101,0,3.782,1.4,3.782,3.571c0,2.172-1.681,3.572-3.782,3.572s-3.782-1.4-3.782-3.572
			C169.292,187.918,170.973,186.518,173.074,186.518z M173.074,191.813c1.05,0,1.681-0.7,1.681-1.724
			c0-1.022-0.63-1.723-1.681-1.723c-1.051,0-1.681,0.7-1.681,1.723C171.393,191.113,172.023,191.813,173.074,191.813z"/>
		<path fill="#F0895A" d="M178.083,186.686h2.017v0.925h0.028c0.28-0.532,0.966-1.093,1.989-1.093c0.953,0,1.737,0.392,2.102,1.219
			c0.49-0.869,1.148-1.219,2.157-1.219c1.849,0,2.41,1.303,2.41,2.955v4.021h-2.101v-3.964c0-0.631-0.238-1.163-0.925-1.163
			c-0.966,0-1.274,0.687-1.274,1.527v3.6h-2.102v-3.6c0-0.505,0.028-1.527-0.938-1.527c-1.092,0-1.26,0.854-1.26,1.737v3.39h-2.102
			V186.686z"/>
		<path fill="#F0895A" d="M196.707,192.317c-0.672,0.854-1.779,1.345-2.872,1.345c-2.101,0-3.782-1.4-3.782-3.572
			c0-2.171,1.681-3.571,3.782-3.571c1.961,0,3.194,1.4,3.194,3.571v0.659h-4.875c0.168,0.798,0.771,1.316,1.583,1.316
			c0.687,0,1.148-0.351,1.499-0.826L196.707,192.317z M194.928,189.32c0.014-0.701-0.532-1.289-1.289-1.289
			c-0.924,0-1.429,0.63-1.485,1.289H194.928z"/>
		<path fill="#F0895A" d="M198.299,186.686h2.017v0.925h0.028c0.28-0.532,0.966-1.093,1.989-1.093c2.129,0,2.521,1.4,2.521,3.222
			v3.754h-2.101v-3.334c0-0.784-0.014-1.793-1.093-1.793c-1.092,0-1.26,0.854-1.26,1.737v3.39h-2.102V186.686z"/>
	</g>
</g>
<g id="houseBoysMLStat">
	<g>
		<path fill="#F0895A" d="M314.76,83.552h-4.328v-1.765l4.049-6.163h2.297v6.163h1.275v1.765h-1.275v1.989h-2.018V83.552z
			 M314.76,78.369h-0.027l-2.199,3.418h2.227V78.369z"/>
		<path fill="#F0895A" d="M322.53,75.455c2.942,0,3.685,2.774,3.685,5.127c0,2.354-0.742,5.127-3.685,5.127
			c-2.941,0-3.684-2.773-3.684-5.127C318.846,78.229,319.588,75.455,322.53,75.455z M322.53,83.776c1.514,0,1.584-2.157,1.584-3.194
			c0-1.036-0.07-3.193-1.584-3.193c-1.512,0-1.582,2.157-1.582,3.193C320.948,81.619,321.018,83.776,322.53,83.776z"/>
		<path fill="#F0895A" d="M329.502,75.455c1.526,0,2.759,1.233,2.759,2.774c0,1.54-1.232,2.773-2.759,2.773
			c-1.527,0-2.76-1.233-2.76-2.773C326.743,76.688,327.975,75.455,329.502,75.455z M329.502,76.885
			c-0.743,0-1.331,0.602-1.331,1.345c0,0.742,0.588,1.345,1.331,1.345c0.742,0,1.33-0.603,1.33-1.345
			C330.833,77.486,330.245,76.885,329.502,76.885z M335.288,75.176l1.176,0.658l-5.785,10.155l-1.064-0.603L335.288,75.176z
			 M336.547,80.148c1.527,0,2.76,1.232,2.76,2.773s-1.232,2.787-2.76,2.787c-1.526,0-2.76-1.246-2.76-2.787
			S335.021,80.148,336.547,80.148z M336.547,81.577c-0.742,0-1.33,0.603-1.33,1.345c0,0.756,0.588,1.358,1.33,1.358
			s1.331-0.603,1.331-1.358C337.878,82.18,337.29,81.577,336.547,81.577z"/>
		<path fill="#F0895A" d="M344.522,75.624h3.685c2.06,0,3.769,0.658,3.769,3.012c0,2.325-1.583,3.039-3.67,3.039h-1.598v3.866
			h-2.186V75.624z M346.708,79.826h1.457c0.771,0,1.541-0.267,1.541-1.19c0-1.023-1.037-1.163-1.877-1.163h-1.121V79.826z"/>
		<path fill="#F0895A" d="M353.077,78.733h2.102v1.093h0.027c0.448-0.827,1.037-1.261,1.961-1.261c0.238,0,0.504,0.014,0.701,0.07
			v1.919c-0.295-0.084-0.589-0.141-0.896-0.141c-1.598,0-1.793,0.925-1.793,2.283v2.844h-2.102V78.733z"/>
		<path fill="#F0895A" d="M364.965,84.364c-0.672,0.854-1.779,1.345-2.871,1.345c-2.102,0-3.782-1.4-3.782-3.572
			c0-2.171,1.681-3.571,3.782-3.571c1.961,0,3.193,1.4,3.193,3.571v0.659h-4.875c0.168,0.798,0.771,1.316,1.584,1.316
			c0.686,0,1.148-0.351,1.498-0.826L364.965,84.364z M363.186,81.367c0.015-0.701-0.531-1.289-1.288-1.289
			c-0.925,0-1.429,0.63-1.485,1.289H363.186z"/>
		<path fill="#F0895A" d="M367.286,80.414h-1.387v-1.681h1.387v-1.205c0-1.484,0.379-2.745,2.662-2.745
			c0.42,0,0.84,0.028,1.232,0.126l-0.098,1.779c-0.238-0.084-0.435-0.141-0.687-0.141c-0.673,0-1.009,0.21-1.009,1.106v1.079h1.555
			v1.681h-1.555v5.127h-2.102V80.414z"/>
		<path fill="#F0895A" d="M378.181,84.364c-0.673,0.854-1.779,1.345-2.872,1.345c-2.101,0-3.781-1.4-3.781-3.572
			c0-2.171,1.681-3.571,3.781-3.571c1.961,0,3.193,1.4,3.193,3.571v0.659h-4.874c0.169,0.798,0.771,1.316,1.583,1.316
			c0.687,0,1.148-0.351,1.498-0.826L378.181,84.364z M376.402,81.367c0.015-0.701-0.532-1.289-1.288-1.289
			c-0.925,0-1.43,0.63-1.485,1.289H376.402z"/>
		<path fill="#F0895A" d="M379.773,78.733h2.102v1.093h0.028c0.447-0.827,1.036-1.261,1.961-1.261c0.238,0,0.504,0.014,0.7,0.07
			v1.919c-0.294-0.084-0.589-0.141-0.896-0.141c-1.597,0-1.793,0.925-1.793,2.283v2.844h-2.102V78.733z"/>
		<path fill="#F0895A" d="M389.881,75.624h3.306l2.283,6.471h0.028l2.297-6.471h3.291v9.917h-2.185v-7.606h-0.028l-2.605,7.606
			h-1.666l-2.508-7.606h-0.027v7.606h-2.186V75.624z"/>
		<path fill="#F0895A" d="M409.274,84.364c-0.672,0.854-1.779,1.345-2.871,1.345c-2.102,0-3.782-1.4-3.782-3.572
			c0-2.171,1.681-3.571,3.782-3.571c1.961,0,3.193,1.4,3.193,3.571v0.659h-4.875c0.168,0.798,0.771,1.316,1.584,1.316
			c0.686,0,1.148-0.351,1.498-0.826L409.274,84.364z M407.495,81.367c0.015-0.701-0.531-1.289-1.288-1.289
			c-0.925,0-1.429,0.63-1.485,1.289H407.495z"/>
		<path fill="#F0895A" d="M410.866,78.733h2.018v0.925h0.028c0.28-0.532,0.966-1.093,1.989-1.093c2.129,0,2.521,1.4,2.521,3.222
			v3.754h-2.102v-3.334c0-0.784-0.014-1.793-1.093-1.793c-1.093,0-1.261,0.854-1.261,1.737v3.39h-2.102V78.733z"/>
	</g>
	<g>
		<path fill="#EECAB2" d="M317.338,182.2h-3.937l-0.042,1.525c0.238-0.084,0.504-0.111,0.883-0.111c2.003,0,3.432,1.246,3.432,3.277
			c0,2.242-1.611,3.545-3.782,3.545c-1.709,0-2.913-0.855-3.348-2.535l2.199-0.504c0.112,0.713,0.63,1.189,1.358,1.189
			c0.896,0,1.471-0.631,1.471-1.484c0-1.303-1.19-1.639-2.283-1.639c-0.686,0-1.4,0.141-2.059,0.363l0.111-5.477h5.996V182.2z"/>
		<path fill="#EECAB2" d="M322.405,183.895c0.224-0.057,0.447-0.1,0.686-0.1c1.863,0,3.11,1.43,3.11,3.236
			c0,2.045-1.625,3.404-3.698,3.404s-3.697-1.359-3.697-3.404c0-1.428,0.56-2.297,1.189-3.291l2.172-3.391h2.563L322.405,183.895z
			 M322.502,185.393c-0.938,0-1.597,0.658-1.597,1.555s0.658,1.555,1.597,1.555s1.598-0.658,1.598-1.555
			S323.441,185.393,322.502,185.393z"/>
		<path fill="#EECAB2" d="M329.502,180.182c1.526,0,2.759,1.232,2.759,2.773s-1.232,2.773-2.759,2.773
			c-1.527,0-2.76-1.232-2.76-2.773S327.975,180.182,329.502,180.182z M329.502,181.612c-0.743,0-1.331,0.602-1.331,1.344
			s0.588,1.346,1.331,1.346c0.742,0,1.33-0.604,1.33-1.346S330.245,181.612,329.502,181.612z M335.288,179.903l1.176,0.658
			l-5.785,10.154l-1.064-0.602L335.288,179.903z M336.547,184.875c1.527,0,2.76,1.232,2.76,2.773s-1.232,2.787-2.76,2.787
			c-1.526,0-2.76-1.246-2.76-2.787S335.021,184.875,336.547,184.875z M336.547,186.303c-0.742,0-1.33,0.604-1.33,1.346
			c0,0.756,0.588,1.357,1.33,1.357s1.331-0.602,1.331-1.357C337.878,186.907,337.29,186.303,336.547,186.303z"/>
		<path fill="#EECAB2" d="M344.522,180.35h2.971l4.216,6.893h0.028v-6.893h2.186v9.918h-2.857l-4.329-7.061h-0.028v7.061h-2.186
			V180.35z"/>
		<path fill="#EECAB2" d="M359.196,183.292c2.102,0,3.782,1.4,3.782,3.572s-1.681,3.572-3.782,3.572c-2.101,0-3.781-1.4-3.781-3.572
			S357.095,183.292,359.196,183.292z M359.196,188.586c1.051,0,1.682-0.699,1.682-1.723s-0.631-1.723-1.682-1.723
			s-1.681,0.699-1.681,1.723S358.145,188.586,359.196,188.586z"/>
		<path fill="#EECAB2" d="M368.616,180.35h3.685c2.06,0,3.769,0.658,3.769,3.012c0,2.326-1.583,3.039-3.67,3.039h-1.598v3.867
			h-2.186V180.35z M370.801,184.553h1.457c0.771,0,1.541-0.268,1.541-1.191c0-1.023-1.037-1.162-1.877-1.162h-1.121V184.553z"/>
		<path fill="#EECAB2" d="M377.17,183.459h2.102v1.094h0.027c0.448-0.828,1.037-1.262,1.961-1.262c0.238,0,0.504,0.014,0.701,0.07
			v1.92c-0.295-0.084-0.589-0.141-0.896-0.141c-1.598,0-1.793,0.924-1.793,2.283v2.844h-2.102V183.459z"/>
		<path fill="#EECAB2" d="M389.059,189.09c-0.672,0.855-1.779,1.346-2.871,1.346c-2.102,0-3.782-1.4-3.782-3.572
			s1.681-3.572,3.782-3.572c1.961,0,3.193,1.4,3.193,3.572v0.658h-4.875c0.168,0.799,0.771,1.316,1.584,1.316
			c0.686,0,1.148-0.35,1.498-0.826L389.059,189.09z M387.28,186.094c0.015-0.701-0.531-1.289-1.288-1.289
			c-0.925,0-1.429,0.629-1.485,1.289H387.28z"/>
		<path fill="#EECAB2" d="M391.379,185.141h-1.387v-1.682h1.387v-1.205c0-1.484,0.379-2.744,2.662-2.744
			c0.42,0,0.84,0.027,1.232,0.125l-0.098,1.779c-0.238-0.084-0.435-0.141-0.687-0.141c-0.673,0-1.009,0.211-1.009,1.107v1.078h1.555
			v1.682h-1.555v5.127h-2.102V185.141z"/>
		<path fill="#EECAB2" d="M402.275,189.09c-0.673,0.855-1.779,1.346-2.872,1.346c-2.101,0-3.781-1.4-3.781-3.572
			s1.681-3.572,3.781-3.572c1.961,0,3.193,1.4,3.193,3.572v0.658h-4.874c0.169,0.799,0.771,1.316,1.583,1.316
			c0.687,0,1.148-0.35,1.498-0.826L402.275,189.09z M400.496,186.094c0.015-0.701-0.532-1.289-1.288-1.289
			c-0.925,0-1.43,0.629-1.485,1.289H400.496z"/>
		<path fill="#EECAB2" d="M403.867,183.459h2.102v1.094h0.028c0.447-0.828,1.036-1.262,1.961-1.262c0.238,0,0.504,0.014,0.7,0.07
			v1.92c-0.294-0.084-0.589-0.141-0.896-0.141c-1.597,0-1.793,0.924-1.793,2.283v2.844h-2.102V183.459z"/>
		<path fill="#EECAB2" d="M415.756,189.09c-0.672,0.855-1.779,1.346-2.871,1.346c-2.102,0-3.783-1.4-3.783-3.572
			s1.682-3.572,3.783-3.572c1.961,0,3.193,1.4,3.193,3.572v0.658h-4.875c0.168,0.799,0.771,1.316,1.583,1.316
			c0.687,0,1.148-0.35,1.499-0.826L415.756,189.09z M413.977,186.094c0.014-0.701-0.532-1.289-1.289-1.289
			c-0.924,0-1.428,0.629-1.484,1.289H413.977z"/>
		<path fill="#EECAB2" d="M417.348,183.459h2.018v0.926h0.027c0.281-0.533,0.967-1.094,1.989-1.094c2.13,0,2.521,1.4,2.521,3.223
			v3.754h-2.101v-3.334c0-0.785-0.015-1.793-1.094-1.793c-1.092,0-1.26,0.854-1.26,1.736v3.391h-2.102V183.459z"/>
		<path fill="#EECAB2" d="M429.993,185.659c-0.211-0.293-0.603-0.518-1.037-0.518c-1.051,0-1.681,0.699-1.681,1.723
			s0.63,1.723,1.681,1.723c0.463,0,0.799-0.238,1.037-0.518l1.387,1.457c-0.658,0.672-1.625,0.91-2.424,0.91
			c-2.101,0-3.781-1.4-3.781-3.572s1.681-3.572,3.781-3.572c0.799,0,1.766,0.238,2.424,0.91L429.993,185.659z"/>
		<path fill="#EECAB2" d="M438.576,189.09c-0.673,0.855-1.779,1.346-2.872,1.346c-2.101,0-3.781-1.4-3.781-3.572
			s1.681-3.572,3.781-3.572c1.961,0,3.193,1.4,3.193,3.572v0.658h-4.874c0.169,0.799,0.771,1.316,1.583,1.316
			c0.687,0,1.148-0.35,1.498-0.826L438.576,189.09z M436.796,186.094c0.015-0.701-0.532-1.289-1.288-1.289
			c-0.925,0-1.43,0.629-1.485,1.289H436.796z"/>
	</g>
</g>
<g id="houseBoysWStat">
	<g opacity="0.5">
		<path fill="#767C6D" d="M94.682,155.688c-0.45-0.576-1.35-0.847-2.035-0.847c-0.792,0-1.89,0.36-1.89,1.314
			c0,2.323,5.87,0.828,5.87,5.294c0,2.845-2.287,4.195-4.916,4.195c-1.639,0-3.079-0.486-4.285-1.603l1.999-2.196
			c0.576,0.756,1.512,1.206,2.449,1.206c0.918,0,1.944-0.433,1.944-1.332c0-2.341-5.978-1.081-5.978-5.33
			c0-2.719,2.358-4.142,4.861-4.142c1.44,0,2.827,0.379,3.907,1.333L94.682,155.688z"/>
		<path fill="#767C6D" d="M106.652,163.808c-0.864,1.099-2.287,1.729-3.691,1.729c-2.701,0-4.861-1.801-4.861-4.591
			c0-2.791,2.161-4.592,4.861-4.592c2.521,0,4.105,1.801,4.105,4.592v0.846h-6.266c0.216,1.026,0.99,1.692,2.034,1.692
			c0.882,0,1.477-0.45,1.927-1.062L106.652,163.808z M104.366,159.956c0.018-0.9-0.684-1.657-1.657-1.657
			c-1.188,0-1.836,0.811-1.908,1.657H104.366z"/>
		<path fill="#767C6D" d="M108.702,156.57h2.593v1.188h0.036c0.36-0.684,1.243-1.404,2.557-1.404c2.737,0,3.241,1.801,3.241,4.142
			v4.825h-2.701v-4.285c0-1.009-0.018-2.305-1.405-2.305c-1.404,0-1.62,1.099-1.62,2.232v4.357h-2.701V156.57z"/>
		<path fill="#767C6D" d="M124.525,164.222h-0.036c-0.594,0.937-1.674,1.314-2.772,1.314c-1.639,0-3.115-0.936-3.115-2.7
			c0-3.025,3.673-3.079,5.924-3.079c0-0.954-0.792-1.566-1.729-1.566c-0.882,0-1.62,0.396-2.196,1.044l-1.44-1.477
			c0.99-0.937,2.431-1.404,3.853-1.404c3.151,0,3.997,1.603,3.997,4.52v4.447h-2.485V164.222z M123.859,161.486
			c-0.828,0-2.665,0.072-2.665,1.26c0,0.648,0.685,0.955,1.278,0.955c1.063,0,2.053-0.559,2.053-1.639v-0.576H123.859z"/>
		<path fill="#767C6D" d="M134.659,158.731h-2.377v2.917c0,0.936,0.108,1.62,1.279,1.62c0.288,0,0.864-0.036,1.098-0.252v2.251
			c-0.594,0.216-1.26,0.27-1.891,0.27c-1.8,0-3.187-0.738-3.187-2.646v-4.159h-1.729v-2.161h1.729v-2.593h2.701v2.593h2.377V158.731
			z"/>
		<path fill="#767C6D" d="M144.308,163.808c-0.864,1.099-2.287,1.729-3.691,1.729c-2.701,0-4.862-1.801-4.862-4.591
			c0-2.791,2.161-4.592,4.862-4.592c2.521,0,4.105,1.801,4.105,4.592v0.846h-6.266c0.216,1.026,0.991,1.692,2.035,1.692
			c0.882,0,1.477-0.45,1.927-1.062L144.308,163.808z M142.021,159.956c0.018-0.9-0.685-1.657-1.657-1.657
			c-1.188,0-1.836,0.811-1.909,1.657H142.021z"/>
		<path fill="#767C6D" d="M150.695,152.573h3.061l2.035,8.175h0.036l2.665-8.175h2.611l2.647,8.391h0.036l2.143-8.391h2.845
			l-3.727,12.748h-2.503l-2.809-8.822h-0.036l-2.809,8.822h-2.413L150.695,152.573z"/>
		<path fill="#767C6D" d="M173.233,156.354c2.701,0,4.861,1.801,4.861,4.592c0,2.79-2.161,4.591-4.861,4.591
			s-4.861-1.801-4.861-4.591C168.372,158.155,170.532,156.354,173.233,156.354z M173.233,163.16c1.35,0,2.161-0.899,2.161-2.214
			s-0.811-2.215-2.161-2.215c-1.351,0-2.161,0.9-2.161,2.215S171.882,163.16,173.233,163.16z"/>
		<path fill="#767C6D" d="M179.675,156.57h2.593v1.188h0.036c0.36-0.684,1.243-1.404,2.557-1.404c1.225,0,2.233,0.504,2.701,1.566
			c0.63-1.116,1.476-1.566,2.772-1.566c2.377,0,3.097,1.675,3.097,3.799v5.168h-2.701v-5.096c0-0.81-0.306-1.494-1.188-1.494
			c-1.243,0-1.639,0.882-1.639,1.963v4.627h-2.701v-4.627c0-0.648,0.036-1.963-1.207-1.963c-1.404,0-1.62,1.099-1.62,2.232v4.357
			h-2.701V156.57z"/>
		<path fill="#767C6D" d="M203.618,163.808c-0.864,1.099-2.287,1.729-3.691,1.729c-2.701,0-4.861-1.801-4.861-4.591
			c0-2.791,2.161-4.592,4.861-4.592c2.521,0,4.105,1.801,4.105,4.592v0.846h-6.266c0.216,1.026,0.99,1.692,2.034,1.692
			c0.882,0,1.477-0.45,1.927-1.062L203.618,163.808z M201.332,159.956c0.018-0.9-0.684-1.657-1.657-1.657
			c-1.188,0-1.836,0.811-1.908,1.657H201.332z"/>
		<path fill="#767C6D" d="M205.667,156.57h2.593v1.188h0.036c0.36-0.684,1.243-1.404,2.557-1.404c2.737,0,3.241,1.801,3.241,4.142
			v4.825h-2.701v-4.285c0-1.009-0.018-2.305-1.405-2.305c-1.404,0-1.62,1.099-1.62,2.232v4.357h-2.701V156.57z"/>
		<path fill="#767C6D" d="M221.255,162.458l4.952-4.447c0.504-0.468,1.134-1.008,1.134-1.782c0-0.864-0.738-1.387-1.567-1.387
			c-0.99,0-1.584,0.702-1.656,1.621l-2.701-0.198c0.162-2.629,1.999-3.907,4.501-3.907c2.322,0,4.123,1.278,4.123,3.835
			c0,1.639-0.702,2.575-1.675,3.421l-3.871,3.331h5.654v2.377h-8.895V162.458z"/>
		<path fill="#767C6D" d="M236.358,152.357c3.781,0,4.735,3.565,4.735,6.59c0,3.025-0.954,6.59-4.735,6.59s-4.735-3.564-4.735-6.59
			C231.623,155.922,232.577,152.357,236.358,152.357z M236.358,163.052c1.944,0,2.035-2.773,2.035-4.105s-0.09-4.105-2.035-4.105
			s-2.035,2.773-2.035,4.105S234.414,163.052,236.358,163.052z"/>
		<path fill="#767C6D" d="M245.322,152.357c1.962,0,3.547,1.584,3.547,3.565c0,1.98-1.584,3.564-3.547,3.564
			c-1.963,0-3.547-1.584-3.547-3.564C241.774,153.941,243.359,152.357,245.322,152.357z M245.322,154.194
			c-0.955,0-1.71,0.773-1.71,1.729c0,0.954,0.756,1.729,1.71,1.729c0.954,0,1.71-0.774,1.71-1.729
			C247.032,154.967,246.276,154.194,245.322,154.194z M252.758,151.997l1.513,0.847l-7.437,13.054l-1.368-0.774L252.758,151.997z
			 M254.378,158.389c1.962,0,3.547,1.584,3.547,3.564s-1.584,3.583-3.547,3.583s-3.547-1.603-3.547-3.583
			S252.416,158.389,254.378,158.389z M254.378,160.225c-0.955,0-1.71,0.774-1.71,1.729c0,0.973,0.756,1.747,1.71,1.747
			c0.954,0,1.71-0.774,1.71-1.747C256.089,161,255.333,160.225,254.378,160.225z"/>
	</g>
</g>
<g id="houseBoysMStat">
	<g>
		<path fill="#F1F2F2" d="M334.175,155.688c-0.45-0.576-1.351-0.848-2.034-0.848c-0.793,0-1.891,0.361-1.891,1.314
			c0,2.324,5.869,0.828,5.869,5.295c0,2.844-2.286,4.195-4.915,4.195c-1.639,0-3.079-0.486-4.285-1.604l1.999-2.195
			c0.576,0.756,1.512,1.205,2.448,1.205c0.918,0,1.944-0.432,1.944-1.332c0-2.34-5.978-1.08-5.978-5.33
			c0-2.719,2.358-4.141,4.861-4.141c1.44,0,2.827,0.379,3.907,1.332L334.175,155.688z"/>
		<path fill="#F1F2F2" d="M346.146,163.807c-0.864,1.1-2.286,1.729-3.691,1.729c-2.7,0-4.861-1.801-4.861-4.59
			c0-2.791,2.161-4.592,4.861-4.592c2.521,0,4.105,1.801,4.105,4.592v0.846h-6.266c0.216,1.025,0.99,1.691,2.034,1.691
			c0.883,0,1.477-0.449,1.927-1.061L346.146,163.807z M343.86,159.956c0.018-0.9-0.685-1.658-1.657-1.658
			c-1.188,0-1.837,0.811-1.908,1.658H343.86z"/>
		<path fill="#F1F2F2" d="M348.196,156.569h2.592v1.189h0.037c0.359-0.684,1.242-1.404,2.557-1.404c2.736,0,3.24,1.801,3.24,4.141
			v4.826h-2.7v-4.285c0-1.01-0.019-2.305-1.405-2.305c-1.404,0-1.619,1.098-1.619,2.232v4.357h-2.701V156.569z"/>
		<path fill="#F1F2F2" d="M364.019,164.221h-0.036c-0.594,0.938-1.674,1.314-2.772,1.314c-1.639,0-3.115-0.936-3.115-2.699
			c0-3.025,3.673-3.08,5.924-3.08c0-0.953-0.792-1.566-1.729-1.566c-0.882,0-1.62,0.396-2.196,1.045l-1.44-1.477
			c0.99-0.938,2.431-1.404,3.853-1.404c3.151,0,3.998,1.602,3.998,4.52v4.447h-2.485V164.221z M363.353,161.485
			c-0.828,0-2.665,0.072-2.665,1.26c0,0.648,0.685,0.955,1.278,0.955c1.063,0,2.053-0.559,2.053-1.639v-0.576H363.353z"/>
		<path fill="#F1F2F2" d="M374.153,158.731h-2.377v2.916c0,0.936,0.108,1.621,1.279,1.621c0.287,0,0.863-0.037,1.098-0.252v2.25
			c-0.594,0.217-1.26,0.27-1.891,0.27c-1.801,0-3.188-0.738-3.188-2.646v-4.158h-1.729v-2.162h1.729v-2.592h2.701v2.592h2.377
			V158.731z"/>
		<path fill="#F1F2F2" d="M383.801,163.807c-0.863,1.1-2.286,1.729-3.69,1.729c-2.701,0-4.862-1.801-4.862-4.59
			c0-2.791,2.161-4.592,4.862-4.592c2.521,0,4.104,1.801,4.104,4.592v0.846h-6.266c0.217,1.025,0.99,1.691,2.035,1.691
			c0.882,0,1.477-0.449,1.926-1.061L383.801,163.807z M381.515,159.956c0.019-0.9-0.685-1.658-1.657-1.658
			c-1.188,0-1.836,0.811-1.908,1.658H381.515z"/>
		<path fill="#F1F2F2" d="M391.521,152.573h4.249l2.936,8.318h0.035l2.953-8.318h4.231v12.748h-2.809v-9.777h-0.036l-3.35,9.777
			h-2.143l-3.223-9.777h-0.036v9.777h-2.809V152.573z"/>
		<path fill="#F1F2F2" d="M416.454,163.807c-0.865,1.1-2.287,1.729-3.691,1.729c-2.701,0-4.861-1.801-4.861-4.59
			c0-2.791,2.16-4.592,4.861-4.592c2.521,0,4.105,1.801,4.105,4.592v0.846h-6.267c0.216,1.025,0.991,1.691,2.034,1.691
			c0.883,0,1.477-0.449,1.928-1.061L416.454,163.807z M414.167,159.956c0.018-0.9-0.685-1.658-1.656-1.658
			c-1.188,0-1.837,0.811-1.909,1.658H414.167z"/>
		<path fill="#F1F2F2" d="M418.502,156.569h2.593v1.189h0.036c0.36-0.684,1.242-1.404,2.557-1.404c2.736,0,3.241,1.801,3.241,4.141
			v4.826h-2.7v-4.285c0-1.01-0.019-2.305-1.405-2.305c-1.404,0-1.62,1.098-1.62,2.232v4.357h-2.701V156.569z"/>
		<path fill="#F1F2F2" d="M434.09,162.458l4.951-4.447c0.504-0.469,1.135-1.008,1.135-1.783c0-0.863-0.738-1.387-1.566-1.387
			c-0.99,0-1.585,0.703-1.656,1.621l-2.701-0.197c0.162-2.629,1.998-3.908,4.501-3.908c2.323,0,4.124,1.279,4.124,3.836
			c0,1.639-0.703,2.574-1.675,3.42l-3.872,3.332h5.654v2.377h-8.895V162.458z"/>
		<path fill="#F1F2F2" d="M449.194,152.356c3.781,0,4.734,3.566,4.734,6.59c0,3.025-0.953,6.59-4.734,6.59s-4.736-3.564-4.736-6.59
			C444.458,155.922,445.413,152.356,449.194,152.356z M449.194,163.051c1.944,0,2.034-2.773,2.034-4.105s-0.09-4.105-2.034-4.105
			c-1.945,0-2.035,2.773-2.035,4.105S447.249,163.051,449.194,163.051z"/>
		<path fill="#F1F2F2" d="M458.157,152.356c1.963,0,3.547,1.584,3.547,3.566c0,1.98-1.584,3.564-3.547,3.564
			s-3.547-1.584-3.547-3.564C454.61,153.94,456.194,152.356,458.157,152.356z M458.157,154.194c-0.955,0-1.711,0.773-1.711,1.729
			c0,0.953,0.756,1.729,1.711,1.729c0.954,0,1.711-0.775,1.711-1.729C459.868,154.967,459.111,154.194,458.157,154.194z
			 M465.592,151.997l1.514,0.846l-7.438,13.055l-1.367-0.775L465.592,151.997z M467.213,158.389c1.963,0,3.547,1.584,3.547,3.564
			s-1.584,3.582-3.547,3.582s-3.547-1.602-3.547-3.582S465.25,158.389,467.213,158.389z M467.213,160.225
			c-0.954,0-1.711,0.773-1.711,1.729c0,0.973,0.757,1.746,1.711,1.746s1.711-0.773,1.711-1.746
			C468.924,160.999,468.167,160.225,467.213,160.225z"/>
	</g>
</g>
</svg>
