<?xml version="1.0" encoding="utf-8"?>
<!-- Generator: Adobe Illustrator 16.0.0, SVG Export Plug-In . SVG Version: 6.00 Build 0)  -->
<!DOCTYPE svg PUBLIC "-//W3C//DTD SVG 1.1//EN" "http://www.w3.org/Graphics/SVG/1.1/DTD/svg11.dtd">
<svg version="1.1" xmlns="http://www.w3.org/2000/svg" xmlns:xlink="http://www.w3.org/1999/xlink" x="0px" y="0px"
	 width="510.527px" height="216.179px" viewBox="0 0 510.527 216.179" enable-background="new 0 0 510.527 216.179"
	 xml:space="preserve">
<g id="senateWomenPercentM">
	<g>
		<rect x="306.211" y="15.963" fill="#E3EFE5" width="182.684" height="182.682"/>
		<rect x="306.208" y="15.963" opacity="0.5" fill="#767C6D" width="182.688" height="147.971"/>
	</g>
</g>
<g id="senateWomenPercentW">
	<g>
		<rect x="81.882" y="16.749" fill="#FFF1E2" width="182.684" height="182.682"/>
		<rect x="81.882" y="164.719" opacity="0.5" fill="#767C6D" width="182.684" height="34.711"/>
	</g>
</g>
<g id="senateWomenWL">
	
		<rect x="81.882" y="178.624" fill="none" stroke="#6DB7A1" stroke-width="4" stroke-miterlimit="10" width="182.684" height="20.092"/>
	
		<rect x="81.882" y="35.272" fill="none" stroke="#BCD6C4" stroke-width="4" stroke-miterlimit="10" width="182.684" height="138.838"/>
</g>
<g id="senateWomenML">
	
		<rect x="305.869" y="14.127" fill="none" stroke="#6DB7A1" stroke-width="4" stroke-miterlimit="10" width="182.684" height="21.922"/>
	
		<rect x="305.869" y="39.944" fill="none" stroke="#BCD6C4" stroke-width="4" stroke-miterlimit="10" width="182.684" height="138.838"/>
</g>
<g id="senateWomenText">
	<g>
		<path fill="#6DB7A1" d="M47.471,141.901l-25.893,6.635v-3.57l13.102-3.105c3.223-0.773,6.451-1.473,8.947-1.938v-0.078
			c-2.572-0.426-5.646-1.242-8.988-2.133l-13.061-3.492v-3.531l13.137-3.18c3.076-0.738,6.148-1.438,8.877-1.824v-0.076
			c-2.842-0.545-5.725-1.281-8.953-2.096l-13.061-3.453v-3.453l25.893,7.412v3.529l-13.482,3.297
			c-3.305,0.816-5.842,1.359-8.455,1.707v0.076c2.574,0.467,5.111,1.049,8.455,2.02l13.482,3.725V141.901z"/>
		<path fill="#6DB7A1" d="M34.258,91.012c8.908,0,13.637,5.471,13.637,12.141c0,6.906-5.303,11.756-13.139,11.756
			c-8.221,0-13.6-5.158-13.6-12.143C21.157,95.629,26.571,91.012,34.258,91.012z M34.68,111.301c5.531,0,10.488-3.027,10.488-8.342
			c0-5.354-4.881-8.377-10.758-8.377c-5.15,0-10.527,2.713-10.527,8.34C23.883,108.508,28.991,111.301,34.68,111.301z"/>
		<path fill="#6DB7A1" d="M36.1,64.602c-3.611,0.193-7.953,0.426-11.182,0.389v0.117c3.035,0.893,6.264,1.977,9.838,3.295
			l12.563,4.617v2.561l-12.334,4.229c-3.65,1.242-6.994,2.289-10.066,3.027v0.076c3.229,0.078,7.57,0.273,11.451,0.506l11.102,0.697
			v3.219l-25.893-1.822v-4.307l12.523-4.463c3.188-1.086,6.033-1.977,8.723-2.635v-0.115c-2.613-0.664-5.459-1.592-8.723-2.758
			l-12.523-4.654v-4.305l25.893-1.631v3.297L36.1,64.602z"/>
		<path fill="#6DB7A1" d="M35.331,41.917v10.164h9.336V40.756h2.805v14.699H21.579V41.336h2.803v10.744h8.184V41.917H35.331z"/>
		<path fill="#6DB7A1" d="M47.471,36.375H21.579V32.69l13.102-8.381c3.035-1.938,5.76-3.449,8.41-4.691l-0.037-0.078
			c-3.457,0.309-6.607,0.387-10.641,0.387H21.579v-3.178h25.893v3.412l-13.137,8.303c-2.883,1.822-5.842,3.568-8.646,4.885
			l0.039,0.119c3.264-0.195,6.377-0.273,10.682-0.273h11.063V36.375z"/>
	</g>
</g>
<g id="senateWomenWLStat">
	<g>
		<path fill="#BCD6C4" d="M89.805,25.07h-4.903v-1.933h7.256v1.849l-3.964,8.068h-2.451L89.805,25.07z"/>
		<path fill="#BCD6C4" d="M97.337,31.065h-4.328V29.3l4.048-6.163h2.297V29.3h1.275v1.765h-1.275v1.989h-2.017V31.065z
			 M97.337,25.882h-0.028L95.11,29.3h2.227V25.882z"/>
		<path fill="#BCD6C4" d="M103.79,22.968c1.527,0,2.759,1.233,2.759,2.774c0,1.54-1.232,2.773-2.759,2.773s-2.76-1.233-2.76-2.773
			C101.03,24.202,102.263,22.968,103.79,22.968z M103.79,24.398c-0.743,0-1.331,0.602-1.331,1.345c0,0.742,0.588,1.345,1.331,1.345
			c0.742,0,1.331-0.603,1.331-1.345C105.121,25,104.532,24.398,103.79,24.398z M109.575,22.689l1.177,0.658l-5.785,10.155
			l-1.065-0.603L109.575,22.689z M110.836,27.662c1.527,0,2.759,1.232,2.759,2.773s-1.232,2.787-2.759,2.787s-2.76-1.246-2.76-2.787
			S109.309,27.662,110.836,27.662z M110.836,29.09c-0.743,0-1.331,0.603-1.331,1.345c0,0.756,0.588,1.358,1.331,1.358
			c0.742,0,1.331-0.603,1.331-1.358C112.167,29.693,111.578,29.09,110.836,29.09z"/>
		<path fill="#BCD6C4" d="M118.811,23.137h2.97l4.216,6.892h0.028v-6.892h2.185v9.917h-2.857l-4.329-7.06h-0.028v7.06h-2.186V23.137
			z"/>
		<path fill="#BCD6C4" d="M133.484,26.079c2.101,0,3.782,1.4,3.782,3.571c0,2.172-1.681,3.572-3.782,3.572s-3.782-1.4-3.782-3.572
			C129.702,27.479,131.383,26.079,133.484,26.079z M133.484,31.374c1.05,0,1.681-0.7,1.681-1.724c0-1.022-0.63-1.723-1.681-1.723
			c-1.051,0-1.681,0.7-1.681,1.723C131.803,30.673,132.434,31.374,133.484,31.374z"/>
		<path fill="#BCD6C4" d="M142.904,23.137h3.684c2.059,0,3.768,0.658,3.768,3.012c0,2.325-1.583,3.039-3.67,3.039h-1.597v3.866
			h-2.186V23.137z M145.09,27.339h1.457c0.771,0,1.541-0.267,1.541-1.19c0-1.023-1.037-1.163-1.877-1.163h-1.121V27.339z"/>
		<path fill="#BCD6C4" d="M151.458,26.247h2.102v1.093h0.028c0.448-0.827,1.037-1.261,1.961-1.261c0.238,0,0.504,0.014,0.701,0.07
			v1.919c-0.294-0.084-0.588-0.141-0.896-0.141c-1.597,0-1.793,0.925-1.793,2.283v2.844h-2.102V26.247z"/>
		<path fill="#BCD6C4" d="M163.348,31.877c-0.672,0.854-1.779,1.345-2.872,1.345c-2.101,0-3.782-1.4-3.782-3.572
			c0-2.171,1.681-3.571,3.782-3.571c1.961,0,3.194,1.4,3.194,3.571v0.659h-4.875c0.168,0.798,0.771,1.316,1.583,1.316
			c0.687,0,1.148-0.351,1.499-0.826L163.348,31.877z M161.568,28.88c0.014-0.701-0.532-1.289-1.289-1.289
			c-0.924,0-1.429,0.63-1.485,1.289H161.568z"/>
		<path fill="#BCD6C4" d="M165.668,27.927h-1.387v-1.681h1.387v-1.205c0-1.484,0.378-2.745,2.662-2.745
			c0.42,0,0.84,0.028,1.232,0.126l-0.098,1.779c-0.238-0.084-0.434-0.141-0.686-0.141c-0.672,0-1.009,0.21-1.009,1.106v1.079h1.555
			v1.681h-1.555v5.127h-2.101V27.927z"/>
		<path fill="#BCD6C4" d="M176.563,31.877c-0.672,0.854-1.779,1.345-2.872,1.345c-2.101,0-3.782-1.4-3.782-3.572
			c0-2.171,1.681-3.571,3.782-3.571c1.961,0,3.193,1.4,3.193,3.571v0.659h-4.875c0.168,0.798,0.771,1.316,1.583,1.316
			c0.687,0,1.148-0.351,1.499-0.826L176.563,31.877z M174.784,28.88c0.014-0.701-0.532-1.289-1.289-1.289
			c-0.924,0-1.429,0.63-1.485,1.289H174.784z"/>
		<path fill="#BCD6C4" d="M178.155,26.247h2.102v1.093h0.028c0.448-0.827,1.037-1.261,1.961-1.261c0.238,0,0.504,0.014,0.701,0.07
			v1.919c-0.294-0.084-0.588-0.141-0.896-0.141c-1.597,0-1.793,0.925-1.793,2.283v2.844h-2.102V26.247z"/>
		<path fill="#BCD6C4" d="M190.044,31.877c-0.672,0.854-1.779,1.345-2.872,1.345c-2.101,0-3.782-1.4-3.782-3.572
			c0-2.171,1.681-3.571,3.782-3.571c1.961,0,3.193,1.4,3.193,3.571v0.659h-4.875c0.168,0.798,0.771,1.316,1.583,1.316
			c0.687,0,1.148-0.351,1.499-0.826L190.044,31.877z M188.265,28.88c0.014-0.701-0.532-1.289-1.289-1.289
			c-0.924,0-1.429,0.63-1.485,1.289H188.265z"/>
		<path fill="#BCD6C4" d="M191.636,26.247h2.017v0.925h0.028c0.28-0.532,0.966-1.093,1.989-1.093c2.129,0,2.521,1.4,2.521,3.222
			v3.754h-2.101V29.72c0-0.784-0.014-1.793-1.093-1.793c-1.092,0-1.26,0.854-1.26,1.737v3.39h-2.102V26.247z"/>
		<path fill="#BCD6C4" d="M204.281,28.446c-0.21-0.294-0.603-0.519-1.037-0.519c-1.051,0-1.681,0.7-1.681,1.723
			c0,1.023,0.63,1.724,1.681,1.724c0.462,0,0.798-0.238,1.037-0.519l1.387,1.457c-0.659,0.672-1.625,0.91-2.423,0.91
			c-2.101,0-3.782-1.4-3.782-3.572c0-2.171,1.681-3.571,3.782-3.571c0.798,0,1.765,0.238,2.423,0.91L204.281,28.446z"/>
		<path fill="#BCD6C4" d="M212.864,31.877c-0.672,0.854-1.779,1.345-2.872,1.345c-2.101,0-3.782-1.4-3.782-3.572
			c0-2.171,1.681-3.571,3.782-3.571c1.961,0,3.193,1.4,3.193,3.571v0.659h-4.875c0.168,0.798,0.771,1.316,1.583,1.316
			c0.687,0,1.148-0.351,1.499-0.826L212.864,31.877z M211.084,28.88c0.014-0.701-0.532-1.289-1.289-1.289
			c-0.924,0-1.429,0.63-1.485,1.289H211.084z"/>
	</g>
	<g>
		<path fill="#6DB7A1" d="M89.805,167.317h-4.903v-1.933h7.256v1.849l-3.964,8.068h-2.451L89.805,167.317z"/>
		<path fill="#6DB7A1" d="M95.502,165.215c1.527,0,2.759,1.233,2.759,2.774c0,1.54-1.232,2.773-2.759,2.773s-2.76-1.233-2.76-2.773
			C92.742,166.449,93.975,165.215,95.502,165.215z M95.502,166.645c-0.743,0-1.331,0.602-1.331,1.345
			c0,0.742,0.588,1.345,1.331,1.345c0.742,0,1.331-0.603,1.331-1.345C96.833,167.247,96.244,166.645,95.502,166.645z
			 M101.287,164.936l1.177,0.658l-5.785,10.155l-1.065-0.603L101.287,164.936z M102.548,169.909c1.527,0,2.759,1.232,2.759,2.773
			s-1.232,2.787-2.759,2.787s-2.76-1.246-2.76-2.787S101.021,169.909,102.548,169.909z M102.548,171.337
			c-0.743,0-1.331,0.603-1.331,1.345c0,0.756,0.588,1.358,1.331,1.358c0.742,0,1.331-0.603,1.331-1.358
			C103.878,171.94,103.29,171.337,102.548,171.337z"/>
		<path fill="#6DB7A1" d="M110.522,165.384h3.684c2.059,0,3.768,0.658,3.768,3.012c0,2.325-1.583,3.039-3.67,3.039h-1.597v3.866
			h-2.186V165.384z M112.708,169.586h1.457c0.771,0,1.541-0.267,1.541-1.19c0-1.023-1.037-1.163-1.877-1.163h-1.121V169.586z"/>
		<path fill="#6DB7A1" d="M119.076,168.494h2.102v1.093h0.028c0.448-0.827,1.037-1.261,1.961-1.261c0.238,0,0.504,0.014,0.701,0.07
			v1.919c-0.294-0.084-0.588-0.141-0.896-0.141c-1.597,0-1.793,0.925-1.793,2.283v2.844h-2.102V168.494z"/>
		<path fill="#6DB7A1" d="M130.966,174.125c-0.672,0.854-1.779,1.345-2.872,1.345c-2.101,0-3.782-1.4-3.782-3.572
			c0-2.171,1.681-3.571,3.782-3.571c1.961,0,3.194,1.4,3.194,3.571v0.659h-4.875c0.168,0.798,0.771,1.316,1.583,1.316
			c0.687,0,1.148-0.351,1.499-0.826L130.966,174.125z M129.187,171.127c0.014-0.701-0.532-1.289-1.289-1.289
			c-0.924,0-1.429,0.63-1.485,1.289H129.187z"/>
		<path fill="#6DB7A1" d="M133.286,170.174h-1.387v-1.681h1.387v-1.205c0-1.484,0.378-2.745,2.662-2.745
			c0.42,0,0.84,0.028,1.232,0.126l-0.098,1.779c-0.238-0.084-0.434-0.141-0.686-0.141c-0.672,0-1.009,0.21-1.009,1.106v1.079h1.555
			v1.681h-1.555v5.127h-2.101V170.174z"/>
		<path fill="#6DB7A1" d="M144.181,174.125c-0.672,0.854-1.779,1.345-2.872,1.345c-2.101,0-3.782-1.4-3.782-3.572
			c0-2.171,1.681-3.571,3.782-3.571c1.961,0,3.193,1.4,3.193,3.571v0.659h-4.875c0.168,0.798,0.771,1.316,1.583,1.316
			c0.687,0,1.148-0.351,1.499-0.826L144.181,174.125z M142.402,171.127c0.014-0.701-0.532-1.289-1.289-1.289
			c-0.924,0-1.429,0.63-1.485,1.289H142.402z"/>
		<path fill="#6DB7A1" d="M145.773,168.494h2.102v1.093h0.028c0.448-0.827,1.037-1.261,1.961-1.261c0.238,0,0.504,0.014,0.701,0.07
			v1.919c-0.294-0.084-0.588-0.141-0.896-0.141c-1.597,0-1.793,0.925-1.793,2.283v2.844h-2.102V168.494z"/>
		<path fill="#6DB7A1" d="M154.845,165.384h2.381l1.583,6.359h0.028l2.073-6.359h2.031l2.059,6.527h0.028l1.667-6.527h2.213
			l-2.899,9.917h-1.947l-2.185-6.863h-0.028l-2.185,6.863h-1.877L154.845,165.384z"/>
		<path fill="#6DB7A1" d="M172.375,168.326c2.101,0,3.782,1.4,3.782,3.571c0,2.172-1.681,3.572-3.782,3.572s-3.782-1.4-3.782-3.572
			C168.593,169.726,170.274,168.326,172.375,168.326z M172.375,173.621c1.05,0,1.681-0.7,1.681-1.724
			c0-1.022-0.63-1.723-1.681-1.723c-1.051,0-1.681,0.7-1.681,1.723C170.694,172.92,171.324,173.621,172.375,173.621z"/>
		<path fill="#6DB7A1" d="M177.384,168.494h2.017v0.925h0.028c0.28-0.532,0.966-1.093,1.989-1.093c0.953,0,1.737,0.392,2.102,1.219
			c0.49-0.869,1.148-1.219,2.157-1.219c1.849,0,2.41,1.303,2.41,2.955v4.021h-2.101v-3.964c0-0.631-0.238-1.163-0.925-1.163
			c-0.966,0-1.274,0.687-1.274,1.527v3.6h-2.102v-3.6c0-0.505,0.028-1.527-0.938-1.527c-1.092,0-1.26,0.854-1.26,1.737v3.39h-2.102
			V168.494z"/>
		<path fill="#6DB7A1" d="M196.008,174.125c-0.672,0.854-1.779,1.345-2.872,1.345c-2.101,0-3.782-1.4-3.782-3.572
			c0-2.171,1.681-3.571,3.782-3.571c1.961,0,3.194,1.4,3.194,3.571v0.659h-4.875c0.168,0.798,0.771,1.316,1.583,1.316
			c0.687,0,1.148-0.351,1.499-0.826L196.008,174.125z M194.229,171.127c0.014-0.701-0.532-1.289-1.289-1.289
			c-0.924,0-1.429,0.63-1.485,1.289H194.229z"/>
		<path fill="#6DB7A1" d="M197.6,168.494h2.017v0.925h0.028c0.28-0.532,0.966-1.093,1.989-1.093c2.129,0,2.521,1.4,2.521,3.222
			v3.754h-2.101v-3.334c0-0.784-0.014-1.793-1.093-1.793c-1.092,0-1.26,0.854-1.26,1.737v3.39H197.6V168.494z"/>
	</g>
</g>
<g id="senateWomenMLStat">
	<g>
		<path fill="#6DB7A1" d="M312.06,26.254l-1.989,1.751l-1.19-1.372l3.235-2.731h1.961v9.917h-2.017V26.254z"/>
		<path fill="#6DB7A1" d="M321.735,25.834h-4.902v-1.933h7.256v1.849l-3.965,8.068h-2.451L321.735,25.834z"/>
		<path fill="#6DB7A1" d="M327.432,23.732c1.526,0,2.759,1.233,2.759,2.774c0,1.54-1.232,2.773-2.759,2.773
			c-1.527,0-2.76-1.233-2.76-2.773C324.672,24.966,325.905,23.732,327.432,23.732z M327.432,25.162
			c-0.743,0-1.331,0.602-1.331,1.345c0,0.742,0.588,1.345,1.331,1.345c0.742,0,1.33-0.603,1.33-1.345
			C328.762,25.764,328.174,25.162,327.432,25.162z M333.217,23.453l1.176,0.658l-5.785,10.155l-1.064-0.603L333.217,23.453z
			 M334.477,28.426c1.527,0,2.76,1.232,2.76,2.773s-1.232,2.787-2.76,2.787c-1.526,0-2.76-1.246-2.76-2.787
			S332.951,28.426,334.477,28.426z M334.477,29.854c-0.742,0-1.33,0.603-1.33,1.345c0,0.756,0.588,1.358,1.33,1.358
			s1.331-0.603,1.331-1.358C335.808,30.457,335.219,29.854,334.477,29.854z"/>
		<path fill="#6DB7A1" d="M342.452,23.901h3.685c2.06,0,3.769,0.658,3.769,3.012c0,2.325-1.583,3.039-3.67,3.039h-1.598v3.866
			h-2.186V23.901z M344.637,28.104h1.457c0.771,0,1.541-0.267,1.541-1.19c0-1.023-1.037-1.163-1.877-1.163h-1.121V28.104z"/>
		<path fill="#6DB7A1" d="M351.006,27.011h2.102v1.093h0.027c0.448-0.827,1.037-1.261,1.961-1.261c0.238,0,0.504,0.014,0.701,0.07
			v1.919c-0.295-0.084-0.589-0.141-0.896-0.141c-1.598,0-1.793,0.925-1.793,2.283v2.844h-2.102V27.011z"/>
		<path fill="#6DB7A1" d="M362.895,32.642c-0.672,0.854-1.779,1.345-2.871,1.345c-2.102,0-3.782-1.4-3.782-3.572
			c0-2.171,1.681-3.571,3.782-3.571c1.961,0,3.193,1.4,3.193,3.571v0.659h-4.875c0.168,0.798,0.771,1.316,1.584,1.316
			c0.686,0,1.148-0.351,1.498-0.826L362.895,32.642z M361.116,29.645c0.015-0.701-0.531-1.289-1.288-1.289
			c-0.925,0-1.429,0.63-1.485,1.289H361.116z"/>
		<path fill="#6DB7A1" d="M365.215,28.691h-1.387v-1.681h1.387v-1.205c0-1.484,0.379-2.745,2.662-2.745
			c0.42,0,0.84,0.028,1.232,0.126l-0.098,1.779c-0.238-0.084-0.435-0.141-0.687-0.141c-0.673,0-1.009,0.21-1.009,1.106v1.079h1.555
			v1.681h-1.555v5.127h-2.102V28.691z"/>
		<path fill="#6DB7A1" d="M376.111,32.642c-0.673,0.854-1.779,1.345-2.872,1.345c-2.101,0-3.781-1.4-3.781-3.572
			c0-2.171,1.681-3.571,3.781-3.571c1.961,0,3.193,1.4,3.193,3.571v0.659h-4.874c0.169,0.798,0.771,1.316,1.583,1.316
			c0.687,0,1.148-0.351,1.498-0.826L376.111,32.642z M374.332,29.645c0.015-0.701-0.532-1.289-1.288-1.289
			c-0.925,0-1.43,0.63-1.485,1.289H374.332z"/>
		<path fill="#6DB7A1" d="M377.703,27.011h2.102v1.093h0.028c0.447-0.827,1.036-1.261,1.961-1.261c0.238,0,0.504,0.014,0.7,0.07
			v1.919c-0.294-0.084-0.589-0.141-0.896-0.141c-1.597,0-1.793,0.925-1.793,2.283v2.844h-2.102V27.011z"/>
		<path fill="#6DB7A1" d="M387.811,23.901h3.306l2.283,6.471h0.028l2.297-6.471h3.291v9.917h-2.185v-7.606h-0.028l-2.605,7.606
			h-1.666l-2.508-7.606h-0.027v7.606h-2.186V23.901z"/>
		<path fill="#6DB7A1" d="M407.204,32.642c-0.672,0.854-1.779,1.345-2.871,1.345c-2.102,0-3.782-1.4-3.782-3.572
			c0-2.171,1.681-3.571,3.782-3.571c1.961,0,3.193,1.4,3.193,3.571v0.659h-4.875c0.168,0.798,0.771,1.316,1.584,1.316
			c0.686,0,1.148-0.351,1.498-0.826L407.204,32.642z M405.424,29.645c0.015-0.701-0.531-1.289-1.288-1.289
			c-0.925,0-1.429,0.63-1.485,1.289H405.424z"/>
		<path fill="#6DB7A1" d="M408.795,27.011h2.018v0.925h0.028c0.28-0.532,0.966-1.093,1.989-1.093c2.129,0,2.521,1.4,2.521,3.222
			v3.754h-2.102v-3.334c0-0.784-0.014-1.793-1.093-1.793c-1.093,0-1.261,0.854-1.261,1.737v3.39h-2.102V27.011z"/>
	</g>
	<g>
		<path fill="#BCD6C4" d="M313.447,167.318h-4.903v-1.932h7.257v1.848l-3.964,8.068h-2.451L313.447,167.318z"/>
		<path fill="#BCD6C4" d="M320.979,173.314h-4.328v-1.766l4.047-6.162h2.298v6.162h1.274v1.766h-1.274v1.988h-2.017V173.314z
			 M320.979,168.13h-0.028l-2.199,3.418h2.228V168.13z"/>
		<path fill="#BCD6C4" d="M327.432,165.216c1.526,0,2.759,1.234,2.759,2.775c0,1.539-1.232,2.773-2.759,2.773
			c-1.527,0-2.76-1.234-2.76-2.773C324.672,166.451,325.905,165.216,327.432,165.216z M327.432,166.646
			c-0.743,0-1.331,0.602-1.331,1.346c0,0.742,0.588,1.344,1.331,1.344c0.742,0,1.33-0.602,1.33-1.344
			C328.762,167.248,328.174,166.646,327.432,166.646z M333.217,164.937l1.176,0.658l-5.785,10.156l-1.064-0.604L333.217,164.937z
			 M334.477,169.91c1.527,0,2.76,1.232,2.76,2.773s-1.232,2.787-2.76,2.787c-1.526,0-2.76-1.246-2.76-2.787
			S332.951,169.91,334.477,169.91z M334.477,171.339c-0.742,0-1.33,0.602-1.33,1.344c0,0.756,0.588,1.359,1.33,1.359
			s1.331-0.604,1.331-1.359C335.808,171.941,335.219,171.339,334.477,171.339z"/>
		<path fill="#BCD6C4" d="M342.452,165.386h2.971l4.216,6.891h0.028v-6.891h2.186v9.916h-2.857l-4.329-7.059h-0.028v7.059h-2.186
			V165.386z"/>
		<path fill="#BCD6C4" d="M357.125,168.328c2.102,0,3.782,1.4,3.782,3.57c0,2.172-1.681,3.572-3.782,3.572
			c-2.101,0-3.781-1.4-3.781-3.572C353.344,169.728,355.025,168.328,357.125,168.328z M357.125,173.623
			c1.051,0,1.682-0.701,1.682-1.725c0-1.021-0.631-1.723-1.682-1.723s-1.681,0.701-1.681,1.723
			C355.445,172.921,356.075,173.623,357.125,173.623z"/>
		<path fill="#BCD6C4" d="M366.545,165.386h3.685c2.06,0,3.769,0.658,3.769,3.012c0,2.324-1.583,3.039-3.67,3.039h-1.598v3.865
			h-2.186V165.386z M368.731,169.587h1.457c0.771,0,1.541-0.266,1.541-1.189c0-1.023-1.037-1.164-1.877-1.164h-1.121V169.587z"/>
		<path fill="#BCD6C4" d="M375.1,168.496h2.102v1.092h0.027c0.448-0.826,1.037-1.26,1.961-1.26c0.238,0,0.504,0.014,0.701,0.07
			v1.918c-0.295-0.084-0.589-0.141-0.896-0.141c-1.598,0-1.793,0.926-1.793,2.283v2.844H375.1V168.496z"/>
		<path fill="#BCD6C4" d="M386.989,174.126c-0.672,0.854-1.779,1.344-2.871,1.344c-2.102,0-3.782-1.4-3.782-3.572
			c0-2.17,1.681-3.57,3.782-3.57c1.961,0,3.193,1.4,3.193,3.57v0.66h-4.875c0.168,0.797,0.771,1.316,1.584,1.316
			c0.686,0,1.148-0.352,1.498-0.826L386.989,174.126z M385.209,171.128c0.015-0.701-0.531-1.289-1.288-1.289
			c-0.925,0-1.429,0.631-1.485,1.289H385.209z"/>
		<path fill="#BCD6C4" d="M389.309,170.175h-1.387v-1.68h1.387v-1.205c0-1.484,0.379-2.746,2.662-2.746
			c0.42,0,0.84,0.029,1.232,0.127l-0.098,1.779c-0.238-0.084-0.435-0.141-0.687-0.141c-0.673,0-1.009,0.209-1.009,1.105v1.08h1.555
			v1.68h-1.555v5.127h-2.102V170.175z"/>
		<path fill="#BCD6C4" d="M400.205,174.126c-0.673,0.854-1.779,1.344-2.872,1.344c-2.101,0-3.781-1.4-3.781-3.572
			c0-2.17,1.681-3.57,3.781-3.57c1.961,0,3.193,1.4,3.193,3.57v0.66h-4.874c0.169,0.797,0.771,1.316,1.583,1.316
			c0.687,0,1.148-0.352,1.498-0.826L400.205,174.126z M398.425,171.128c0.015-0.701-0.532-1.289-1.288-1.289
			c-0.925,0-1.43,0.631-1.485,1.289H398.425z"/>
		<path fill="#BCD6C4" d="M401.796,168.496h2.102v1.092h0.028c0.447-0.826,1.036-1.26,1.961-1.26c0.238,0,0.504,0.014,0.7,0.07
			v1.918c-0.294-0.084-0.589-0.141-0.896-0.141c-1.597,0-1.793,0.926-1.793,2.283v2.844h-2.102V168.496z"/>
		<path fill="#BCD6C4" d="M413.686,174.126c-0.672,0.854-1.779,1.344-2.871,1.344c-2.102,0-3.783-1.4-3.783-3.572
			c0-2.17,1.682-3.57,3.783-3.57c1.961,0,3.193,1.4,3.193,3.57v0.66h-4.875c0.168,0.797,0.771,1.316,1.583,1.316
			c0.687,0,1.148-0.352,1.499-0.826L413.686,174.126z M411.907,171.128c0.014-0.701-0.532-1.289-1.289-1.289
			c-0.924,0-1.428,0.631-1.484,1.289H411.907z"/>
		<path fill="#BCD6C4" d="M415.278,168.496h2.018v0.924h0.027c0.281-0.531,0.967-1.092,1.989-1.092c2.13,0,2.521,1.4,2.521,3.221
			v3.754h-2.101v-3.334c0-0.783-0.015-1.793-1.094-1.793c-1.092,0-1.26,0.855-1.26,1.738v3.389h-2.102V168.496z"/>
		<path fill="#BCD6C4" d="M427.922,170.695c-0.211-0.295-0.603-0.52-1.037-0.52c-1.051,0-1.681,0.701-1.681,1.723
			c0,1.023,0.63,1.725,1.681,1.725c0.463,0,0.799-0.238,1.037-0.52l1.387,1.457c-0.658,0.672-1.625,0.91-2.424,0.91
			c-2.101,0-3.781-1.4-3.781-3.572c0-2.17,1.681-3.57,3.781-3.57c0.799,0,1.766,0.238,2.424,0.91L427.922,170.695z"/>
		<path fill="#BCD6C4" d="M436.505,174.126c-0.673,0.854-1.779,1.344-2.872,1.344c-2.101,0-3.781-1.4-3.781-3.572
			c0-2.17,1.681-3.57,3.781-3.57c1.961,0,3.193,1.4,3.193,3.57v0.66h-4.874c0.169,0.797,0.771,1.316,1.583,1.316
			c0.687,0,1.148-0.352,1.498-0.826L436.505,174.126z M434.726,171.128c0.015-0.701-0.532-1.289-1.288-1.289
			c-0.925,0-1.43,0.631-1.485,1.289H434.726z"/>
	</g>
</g>
<g id="senateWomenWStat">
	<g opacity="0.5">
		<path fill="#767C6D" d="M94.979,153.942c-0.45-0.576-1.35-0.847-2.035-0.847c-0.792,0-1.89,0.36-1.89,1.314
			c0,2.323,5.87,0.828,5.87,5.294c0,2.845-2.287,4.195-4.916,4.195c-1.639,0-3.079-0.486-4.285-1.603l1.999-2.196
			c0.576,0.756,1.512,1.206,2.449,1.206c0.918,0,1.944-0.433,1.944-1.332c0-2.341-5.978-1.081-5.978-5.33
			c0-2.719,2.358-4.142,4.861-4.142c1.44,0,2.827,0.379,3.907,1.333L94.979,153.942z"/>
		<path fill="#767C6D" d="M106.949,162.062c-0.864,1.099-2.287,1.729-3.691,1.729c-2.701,0-4.861-1.801-4.861-4.591
			c0-2.791,2.161-4.592,4.861-4.592c2.521,0,4.105,1.801,4.105,4.592v0.846h-6.266c0.216,1.026,0.99,1.692,2.034,1.692
			c0.882,0,1.477-0.45,1.927-1.062L106.949,162.062z M104.663,158.209c0.018-0.9-0.684-1.657-1.657-1.657
			c-1.188,0-1.836,0.811-1.908,1.657H104.663z"/>
		<path fill="#767C6D" d="M108.999,154.824h2.593v1.188h0.036c0.36-0.684,1.243-1.404,2.557-1.404c2.737,0,3.241,1.801,3.241,4.142
			v4.825h-2.701v-4.285c0-1.009-0.018-2.305-1.405-2.305c-1.404,0-1.62,1.099-1.62,2.232v4.357h-2.701V154.824z"/>
		<path fill="#767C6D" d="M124.822,162.476h-0.036c-0.594,0.937-1.674,1.314-2.772,1.314c-1.639,0-3.115-0.936-3.115-2.7
			c0-3.025,3.673-3.079,5.924-3.079c0-0.954-0.792-1.566-1.729-1.566c-0.882,0-1.62,0.396-2.196,1.044l-1.44-1.477
			c0.99-0.937,2.431-1.404,3.853-1.404c3.151,0,3.997,1.603,3.997,4.52v4.447h-2.485V162.476z M124.156,159.74
			c-0.828,0-2.665,0.072-2.665,1.26c0,0.648,0.685,0.955,1.278,0.955c1.063,0,2.053-0.559,2.053-1.639v-0.576H124.156z"/>
		<path fill="#767C6D" d="M134.956,156.985h-2.377v2.917c0,0.936,0.108,1.62,1.279,1.62c0.288,0,0.864-0.036,1.098-0.252v2.251
			c-0.594,0.216-1.26,0.27-1.891,0.27c-1.8,0-3.187-0.738-3.187-2.646v-4.159h-1.729v-2.161h1.729v-2.593h2.701v2.593h2.377V156.985
			z"/>
		<path fill="#767C6D" d="M144.605,162.062c-0.864,1.099-2.287,1.729-3.691,1.729c-2.701,0-4.862-1.801-4.862-4.591
			c0-2.791,2.161-4.592,4.862-4.592c2.521,0,4.105,1.801,4.105,4.592v0.846h-6.266c0.216,1.026,0.991,1.692,2.035,1.692
			c0.882,0,1.477-0.45,1.927-1.062L144.605,162.062z M142.318,158.209c0.018-0.9-0.685-1.657-1.657-1.657
			c-1.188,0-1.836,0.811-1.909,1.657H142.318z"/>
		<path fill="#767C6D" d="M150.992,150.827h3.061l2.035,8.175h0.036l2.665-8.175h2.611l2.647,8.391h0.036l2.143-8.391h2.845
			l-3.727,12.748h-2.503l-2.809-8.822h-0.036l-2.809,8.822h-2.413L150.992,150.827z"/>
		<path fill="#767C6D" d="M173.53,154.608c2.701,0,4.861,1.801,4.861,4.592c0,2.79-2.161,4.591-4.861,4.591
			s-4.861-1.801-4.861-4.591C168.668,156.409,170.829,154.608,173.53,154.608z M173.53,161.414c1.35,0,2.161-0.899,2.161-2.214
			s-0.811-2.215-2.161-2.215c-1.351,0-2.161,0.9-2.161,2.215S172.179,161.414,173.53,161.414z"/>
		<path fill="#767C6D" d="M179.972,154.824h2.593v1.188h0.036c0.36-0.684,1.243-1.404,2.557-1.404c1.225,0,2.233,0.504,2.701,1.566
			c0.63-1.116,1.476-1.566,2.772-1.566c2.377,0,3.097,1.675,3.097,3.799v5.168h-2.701v-5.096c0-0.81-0.306-1.494-1.188-1.494
			c-1.243,0-1.639,0.882-1.639,1.963v4.627H185.5v-4.627c0-0.648,0.036-1.963-1.207-1.963c-1.404,0-1.62,1.099-1.62,2.232v4.357
			h-2.701V154.824z"/>
		<path fill="#767C6D" d="M203.915,162.062c-0.864,1.099-2.287,1.729-3.691,1.729c-2.701,0-4.861-1.801-4.861-4.591
			c0-2.791,2.161-4.592,4.861-4.592c2.521,0,4.105,1.801,4.105,4.592v0.846h-6.266c0.216,1.026,0.99,1.692,2.034,1.692
			c0.882,0,1.477-0.45,1.927-1.062L203.915,162.062z M201.628,158.209c0.018-0.9-0.684-1.657-1.657-1.657
			c-1.188,0-1.836,0.811-1.908,1.657H201.628z"/>
		<path fill="#767C6D" d="M205.964,154.824h2.593v1.188h0.036c0.36-0.684,1.243-1.404,2.557-1.404c2.737,0,3.241,1.801,3.241,4.142
			v4.825h-2.701v-4.285c0-1.009-0.018-2.305-1.405-2.305c-1.404,0-1.62,1.099-1.62,2.232v4.357h-2.701V154.824z"/>
		<path fill="#767C6D" d="M221.552,160.711l4.952-4.447c0.504-0.468,1.134-1.008,1.134-1.782c0-0.864-0.738-1.387-1.567-1.387
			c-0.99,0-1.584,0.702-1.656,1.621l-2.701-0.198c0.162-2.629,1.999-3.907,4.501-3.907c2.322,0,4.123,1.278,4.123,3.835
			c0,1.639-0.702,2.575-1.675,3.421l-3.871,3.331h5.654v2.377h-8.895V160.711z"/>
		<path fill="#767C6D" d="M236.655,150.611c3.781,0,4.735,3.565,4.735,6.59c0,3.025-0.954,6.59-4.735,6.59s-4.735-3.564-4.735-6.59
			C231.92,154.176,232.874,150.611,236.655,150.611z M236.655,161.306c1.944,0,2.035-2.773,2.035-4.105s-0.09-4.105-2.035-4.105
			s-2.035,2.773-2.035,4.105S234.711,161.306,236.655,161.306z"/>
		<path fill="#767C6D" d="M245.619,150.611c1.962,0,3.547,1.584,3.547,3.565c0,1.98-1.584,3.564-3.547,3.564
			c-1.963,0-3.547-1.584-3.547-3.564C242.071,152.195,243.656,150.611,245.619,150.611z M245.619,152.448
			c-0.955,0-1.71,0.773-1.71,1.729c0,0.954,0.756,1.729,1.71,1.729c0.954,0,1.71-0.774,1.71-1.729
			C247.329,153.221,246.573,152.448,245.619,152.448z M253.055,150.25l1.513,0.847l-7.437,13.054l-1.368-0.774L253.055,150.25z
			 M254.675,156.643c1.962,0,3.547,1.584,3.547,3.564s-1.584,3.583-3.547,3.583s-3.547-1.603-3.547-3.583
			S252.713,156.643,254.675,156.643z M254.675,158.479c-0.955,0-1.71,0.774-1.71,1.729c0,0.973,0.756,1.747,1.71,1.747
			c0.954,0,1.71-0.774,1.71-1.747C256.386,159.253,255.629,158.479,254.675,158.479z"/>
	</g>
</g>
<g id="senateWomenMStat">
	<g>
		<path fill="#F1F2F2" d="M332.974,153.941c-0.45-0.576-1.351-0.846-2.034-0.846c-0.793,0-1.891,0.359-1.891,1.314
			c0,2.322,5.869,0.828,5.869,5.293c0,2.846-2.286,4.195-4.915,4.195c-1.639,0-3.079-0.486-4.285-1.602l1.999-2.197
			c0.576,0.756,1.512,1.207,2.448,1.207c0.918,0,1.944-0.434,1.944-1.332c0-2.342-5.978-1.082-5.978-5.33
			c0-2.719,2.358-4.143,4.861-4.143c1.44,0,2.827,0.379,3.907,1.334L332.974,153.941z"/>
		<path fill="#F1F2F2" d="M344.945,162.062c-0.864,1.098-2.286,1.729-3.691,1.729c-2.7,0-4.861-1.801-4.861-4.592
			s2.161-4.592,4.861-4.592c2.521,0,4.105,1.801,4.105,4.592v0.846h-6.266c0.216,1.027,0.99,1.693,2.034,1.693
			c0.883,0,1.477-0.451,1.927-1.063L344.945,162.062z M342.659,158.208c0.018-0.9-0.685-1.656-1.657-1.656
			c-1.188,0-1.837,0.811-1.908,1.656H342.659z"/>
		<path fill="#F1F2F2" d="M346.995,154.824h2.592v1.188h0.037c0.359-0.684,1.242-1.404,2.557-1.404c2.736,0,3.24,1.801,3.24,4.143
			v4.824h-2.7v-4.285c0-1.008-0.019-2.305-1.405-2.305c-1.404,0-1.619,1.1-1.619,2.232v4.357h-2.701V154.824z"/>
		<path fill="#F1F2F2" d="M362.818,162.476h-0.036c-0.594,0.936-1.674,1.314-2.772,1.314c-1.639,0-3.115-0.936-3.115-2.701
			c0-3.025,3.673-3.078,5.924-3.078c0-0.955-0.792-1.566-1.729-1.566c-0.882,0-1.62,0.395-2.196,1.043l-1.44-1.477
			c0.99-0.936,2.431-1.404,3.853-1.404c3.151,0,3.998,1.604,3.998,4.52v4.447h-2.485V162.476z M362.152,159.74
			c-0.828,0-2.665,0.072-2.665,1.26c0,0.648,0.685,0.955,1.278,0.955c1.063,0,2.053-0.559,2.053-1.639v-0.576H362.152z"/>
		<path fill="#F1F2F2" d="M372.952,156.984h-2.377v2.918c0,0.936,0.108,1.619,1.279,1.619c0.287,0,0.863-0.035,1.098-0.252v2.252
			c-0.594,0.215-1.26,0.27-1.891,0.27c-1.801,0-3.188-0.738-3.188-2.646v-4.16h-1.729v-2.16h1.729v-2.594h2.701v2.594h2.377V156.984
			z"/>
		<path fill="#F1F2F2" d="M382.6,162.062c-0.863,1.098-2.286,1.729-3.69,1.729c-2.701,0-4.862-1.801-4.862-4.592
			s2.161-4.592,4.862-4.592c2.521,0,4.104,1.801,4.104,4.592v0.846h-6.266c0.217,1.027,0.99,1.693,2.035,1.693
			c0.882,0,1.477-0.451,1.926-1.063L382.6,162.062z M380.314,158.208c0.019-0.9-0.685-1.656-1.657-1.656
			c-1.188,0-1.836,0.811-1.908,1.656H380.314z"/>
		<path fill="#F1F2F2" d="M390.32,150.826h4.249l2.936,8.318h0.035l2.953-8.318h4.231v12.748h-2.809v-9.777h-0.036l-3.35,9.777
			h-2.143l-3.223-9.777h-0.036v9.777h-2.809V150.826z"/>
		<path fill="#F1F2F2" d="M415.252,162.062c-0.865,1.098-2.287,1.729-3.691,1.729c-2.701,0-4.861-1.801-4.861-4.592
			s2.16-4.592,4.861-4.592c2.521,0,4.105,1.801,4.105,4.592v0.846H409.4c0.216,1.027,0.991,1.693,2.034,1.693
			c0.883,0,1.477-0.451,1.928-1.063L415.252,162.062z M412.965,158.208c0.018-0.9-0.685-1.656-1.656-1.656
			c-1.188,0-1.837,0.811-1.909,1.656H412.965z"/>
		<path fill="#F1F2F2" d="M417.301,154.824h2.593v1.188h0.036c0.36-0.684,1.242-1.404,2.557-1.404c2.736,0,3.241,1.801,3.241,4.143
			v4.824h-2.7v-4.285c0-1.008-0.019-2.305-1.405-2.305c-1.404,0-1.62,1.1-1.62,2.232v4.357h-2.701V154.824z"/>
		<path fill="#F1F2F2" d="M432.889,160.71l4.951-4.447c0.504-0.467,1.135-1.008,1.135-1.781c0-0.865-0.738-1.387-1.566-1.387
			c-0.99,0-1.585,0.701-1.656,1.621l-2.701-0.199c0.162-2.629,1.998-3.906,4.501-3.906c2.323,0,4.124,1.277,4.124,3.834
			c0,1.639-0.703,2.576-1.675,3.422l-3.872,3.33h5.654v2.377h-8.895V160.71z"/>
		<path fill="#F1F2F2" d="M447.993,150.611c3.781,0,4.734,3.564,4.734,6.59s-0.953,6.59-4.734,6.59s-4.736-3.564-4.736-6.59
			S444.211,150.611,447.993,150.611z M447.993,161.306c1.944,0,2.034-2.773,2.034-4.105s-0.09-4.105-2.034-4.105
			c-1.945,0-2.035,2.773-2.035,4.105S446.047,161.306,447.993,161.306z"/>
		<path fill="#F1F2F2" d="M456.956,150.611c1.963,0,3.547,1.584,3.547,3.564s-1.584,3.564-3.547,3.564s-3.547-1.584-3.547-3.564
			S454.993,150.611,456.956,150.611z M456.956,152.447c-0.955,0-1.711,0.773-1.711,1.729s0.756,1.729,1.711,1.729
			c0.954,0,1.711-0.773,1.711-1.729S457.91,152.447,456.956,152.447z M464.391,150.25l1.514,0.848l-7.438,13.053l-1.367-0.773
			L464.391,150.25z M466.012,156.642c1.963,0,3.547,1.584,3.547,3.564s-1.584,3.584-3.547,3.584s-3.547-1.604-3.547-3.584
			S464.049,156.642,466.012,156.642z M466.012,158.478c-0.954,0-1.711,0.775-1.711,1.729c0,0.973,0.757,1.748,1.711,1.748
			s1.711-0.775,1.711-1.748C467.723,159.253,466.966,158.478,466.012,158.478z"/>
	</g>
</g>
</svg>
