<?xml version="1.0" encoding="utf-8"?>
<!-- Generator: Adobe Illustrator 16.0.0, SVG Export Plug-In . SVG Version: 6.00 Build 0)  -->
<!DOCTYPE svg PUBLIC "-//W3C//DTD SVG 1.1//EN" "http://www.w3.org/Graphics/SVG/1.1/DTD/svg11.dtd">
<svg version="1.1" xmlns="http://www.w3.org/2000/svg" xmlns:xlink="http://www.w3.org/1999/xlink" x="0px" y="0px"
	 width="510.542px" height="216.18px" viewBox="0 0 510.542 216.18" enable-background="new 0 0 510.542 216.18"
	 xml:space="preserve">
<g id="senateGirlsPercentM">
	<g>
		<rect x="307.14" y="18.002" fill="#E3EFE5" width="182.684" height="182.682"/>
		<rect x="307.136" y="18.002" opacity="0.5" fill="#767C6D" width="182.688" height="147.971"/>
	</g>
</g>
<g id="senateGirlsPercentW">
	<g>
		<rect x="82.811" y="18.787" fill="#FFF1E2" width="182.684" height="182.682"/>
		<rect x="82.811" y="166.758" opacity="0.5" fill="#767C6D" width="182.684" height="34.711"/>
	</g>
</g>
<g id="senateGirlsWL">
	
		<rect x="82.811" y="55.942" fill="none" stroke="#BCD6C4" stroke-width="4" stroke-miterlimit="10" width="182.684" height="126.053"/>
	
		<rect x="82.811" y="186.632" fill="none" stroke="#6DB7A1" stroke-width="4" stroke-miterlimit="10" width="182.684" height="14.613"/>
</g>
<g id="senateGirlsML">
	
		<rect x="307.14" y="15.927" fill="none" stroke="#6DB7A1" stroke-width="4" stroke-miterlimit="10" width="182.684" height="42.016"/>
	
		<rect x="307.138" y="61.643" fill="none" stroke="#BCD6C4" stroke-width="4" stroke-miterlimit="10" width="182.684" height="126.053"/>
</g>
<g id="senateGirlsText">
	<g>
		<path fill="#6DB7A1" d="M47.285,88.491c0.539,1.514,1.422,4.5,1.422,8.033c0,3.955-1,7.213-3.418,9.773
			c-2.152,2.25-5.609,3.645-9.641,3.645c-7.723-0.035-13.373-5.391-13.373-14.16c0-3.025,0.654-5.391,1.189-6.516l2.73,0.816
			c-0.615,1.396-1.113,3.143-1.113,5.779c0,6.363,3.92,10.512,10.412,10.512c6.568,0,10.447-3.994,10.447-10.084
			c0-2.209-0.309-3.727-0.691-4.5h-7.719v5.314h-2.693v-8.613H47.285z"/>
		<path fill="#6DB7A1" d="M22.544,79.966h25.893v3.375H22.544V79.966z"/>
		<path fill="#6DB7A1" d="M22.89,74.071c-0.346-1.707-0.539-4.152-0.539-6.477c0-3.609,0.656-5.938,2.115-7.566
			c1.154-1.318,2.92-2.057,4.92-2.057c3.418,0,5.684,2.172,6.605,4.928h0.113c0.691-2.018,2.541-3.223,5.225-3.84
			c3.611-0.855,6.111-1.475,7.107-2.02v3.492c-0.73,0.428-2.953,1.01-6.184,1.746c-3.572,0.773-4.918,2.172-5.035,5.238v3.178
			h11.219v3.377H22.89z M34.685,70.694v-3.451c0-3.607-1.959-5.895-4.916-5.895c-3.346,0-4.801,2.441-4.844,6.012
			c0,1.629,0.156,2.791,0.313,3.334H34.685z"/>
		<path fill="#6DB7A1" d="M22.544,53.206v-3.375h23.088V38.657h2.805v14.549H22.544z"/>
		<path fill="#6DB7A1" d="M44.365,35.368c0.924-1.514,1.693-3.725,1.693-6.053c0-3.451-1.805-5.471-4.418-5.471
			c-2.42,0-3.805,1.398-5.148,4.93c-1.496,4.266-3.688,6.902-7.338,6.902c-4.033,0-7.031-3.375-7.031-8.457
			c0-2.676,0.615-4.615,1.268-5.779l2.729,0.932c-0.463,0.854-1.23,2.6-1.23,4.967c0,3.568,2.115,4.926,3.881,4.926
			c2.418,0,3.613-1.592,4.992-5.201c1.691-4.422,3.807-6.67,7.605-6.67c3.996,0,7.457,2.986,7.457,9.154
			c0,2.523-0.73,5.275-1.656,6.674L44.365,35.368z"/>
	</g>
</g>
<g id="senateGirlsWLStat">
	<g>
		<path fill="#BCD6C4" d="M88.844,48.215c0.224-0.057,0.448-0.099,0.687-0.099c1.863,0,3.11,1.429,3.11,3.236
			c0,2.045-1.625,3.403-3.698,3.403s-3.698-1.358-3.698-3.403c0-1.429,0.56-2.298,1.19-3.292l2.171-3.39h2.563L88.844,48.215z
			 M88.942,49.713c-0.938,0-1.597,0.659-1.597,1.556s0.658,1.555,1.597,1.555s1.597-0.658,1.597-1.555S89.88,49.713,88.942,49.713z"
			/>
		<path fill="#BCD6C4" d="M97.384,51.044c-0.224,0.056-0.448,0.098-0.687,0.098c-1.863,0-3.11-1.429-3.11-3.235
			c0-2.045,1.625-3.404,3.698-3.404s3.698,1.359,3.698,3.404c0,1.429-0.56,2.297-1.19,3.292l-2.171,3.39h-2.563L97.384,51.044z
			 M97.286,49.545c0.938,0,1.597-0.658,1.597-1.555s-0.658-1.555-1.597-1.555s-1.597,0.658-1.597,1.555S96.348,49.545,97.286,49.545
			z"/>
		<path fill="#BCD6C4" d="M104.229,44.502c1.527,0,2.759,1.233,2.759,2.774c0,1.54-1.232,2.773-2.759,2.773s-2.76-1.233-2.76-2.773
			C101.47,45.736,102.703,44.502,104.229,44.502z M104.229,45.932c-0.743,0-1.331,0.602-1.331,1.345
			c0,0.742,0.588,1.345,1.331,1.345c0.742,0,1.331-0.603,1.331-1.345C105.56,46.534,104.972,45.932,104.229,45.932z M110.015,44.223
			l1.177,0.658l-5.785,10.155l-1.065-0.603L110.015,44.223z M111.275,49.196c1.527,0,2.759,1.232,2.759,2.773
			s-1.232,2.787-2.759,2.787s-2.76-1.246-2.76-2.787S109.749,49.196,111.275,49.196z M111.275,50.625
			c-0.743,0-1.331,0.603-1.331,1.345c0,0.756,0.588,1.358,1.331,1.358c0.742,0,1.331-0.603,1.331-1.358
			C112.606,51.227,112.018,50.625,111.275,50.625z"/>
		<path fill="#BCD6C4" d="M119.25,44.671h2.97l4.216,6.892h0.028v-6.892h2.185v9.917h-2.857l-4.329-7.06h-0.028v7.06h-2.186V44.671z
			"/>
		<path fill="#BCD6C4" d="M133.924,47.613c2.101,0,3.782,1.4,3.782,3.571c0,2.172-1.681,3.572-3.782,3.572s-3.782-1.4-3.782-3.572
			C130.142,49.013,131.823,47.613,133.924,47.613z M133.924,52.908c1.05,0,1.681-0.7,1.681-1.724c0-1.022-0.63-1.723-1.681-1.723
			c-1.051,0-1.681,0.7-1.681,1.723C132.243,52.208,132.873,52.908,133.924,52.908z"/>
		<path fill="#BCD6C4" d="M143.344,44.671h3.684c2.059,0,3.768,0.658,3.768,3.012c0,2.325-1.583,3.039-3.67,3.039h-1.597v3.866
			h-2.186V44.671z M145.529,48.874h1.457c0.771,0,1.541-0.267,1.541-1.19c0-1.023-1.037-1.163-1.877-1.163h-1.121V48.874z"/>
		<path fill="#BCD6C4" d="M151.897,47.781h2.102v1.093h0.028c0.448-0.827,1.037-1.261,1.961-1.261c0.238,0,0.504,0.014,0.701,0.07
			v1.919c-0.294-0.084-0.588-0.141-0.896-0.141c-1.597,0-1.793,0.925-1.793,2.283v2.844h-2.102V47.781z"/>
		<path fill="#BCD6C4" d="M163.787,53.412c-0.672,0.854-1.779,1.345-2.872,1.345c-2.101,0-3.782-1.4-3.782-3.572
			c0-2.171,1.681-3.571,3.782-3.571c1.961,0,3.194,1.4,3.194,3.571v0.659h-4.875c0.168,0.798,0.771,1.316,1.583,1.316
			c0.687,0,1.148-0.351,1.499-0.826L163.787,53.412z M162.008,50.415c0.014-0.701-0.532-1.289-1.289-1.289
			c-0.924,0-1.429,0.63-1.485,1.289H162.008z"/>
		<path fill="#BCD6C4" d="M166.107,49.461h-1.387v-1.681h1.387v-1.205c0-1.484,0.378-2.745,2.662-2.745
			c0.42,0,0.84,0.028,1.232,0.126l-0.098,1.779c-0.238-0.084-0.434-0.141-0.686-0.141c-0.672,0-1.009,0.21-1.009,1.106v1.079h1.555
			v1.681h-1.555v5.127h-2.101V49.461z"/>
		<path fill="#BCD6C4" d="M177.002,53.412c-0.672,0.854-1.779,1.345-2.872,1.345c-2.101,0-3.782-1.4-3.782-3.572
			c0-2.171,1.681-3.571,3.782-3.571c1.961,0,3.193,1.4,3.193,3.571v0.659h-4.875c0.168,0.798,0.771,1.316,1.583,1.316
			c0.687,0,1.148-0.351,1.499-0.826L177.002,53.412z M175.223,50.415c0.014-0.701-0.532-1.289-1.289-1.289
			c-0.924,0-1.429,0.63-1.485,1.289H175.223z"/>
		<path fill="#BCD6C4" d="M178.594,47.781h2.102v1.093h0.028c0.448-0.827,1.037-1.261,1.961-1.261c0.238,0,0.504,0.014,0.701,0.07
			v1.919c-0.294-0.084-0.588-0.141-0.896-0.141c-1.597,0-1.793,0.925-1.793,2.283v2.844h-2.102V47.781z"/>
		<path fill="#BCD6C4" d="M190.484,53.412c-0.672,0.854-1.779,1.345-2.872,1.345c-2.101,0-3.782-1.4-3.782-3.572
			c0-2.171,1.681-3.571,3.782-3.571c1.961,0,3.193,1.4,3.193,3.571v0.659h-4.875c0.168,0.798,0.771,1.316,1.583,1.316
			c0.687,0,1.148-0.351,1.499-0.826L190.484,53.412z M188.705,50.415c0.014-0.701-0.532-1.289-1.289-1.289
			c-0.924,0-1.429,0.63-1.485,1.289H188.705z"/>
		<path fill="#BCD6C4" d="M192.076,47.781h2.017v0.925h0.028c0.28-0.532,0.966-1.093,1.989-1.093c2.129,0,2.521,1.4,2.521,3.222
			v3.754h-2.101v-3.334c0-0.784-0.014-1.793-1.093-1.793c-1.092,0-1.26,0.854-1.26,1.737v3.39h-2.102V47.781z"/>
		<path fill="#BCD6C4" d="M204.72,49.98c-0.21-0.294-0.603-0.519-1.037-0.519c-1.051,0-1.681,0.7-1.681,1.723
			c0,1.023,0.63,1.724,1.681,1.724c0.462,0,0.798-0.238,1.037-0.519l1.387,1.457c-0.659,0.672-1.625,0.91-2.423,0.91
			c-2.101,0-3.782-1.4-3.782-3.572c0-2.171,1.681-3.571,3.782-3.571c0.798,0,1.765,0.238,2.423,0.91L204.72,49.98z"/>
		<path fill="#BCD6C4" d="M213.303,53.412c-0.672,0.854-1.779,1.345-2.872,1.345c-2.101,0-3.782-1.4-3.782-3.572
			c0-2.171,1.681-3.571,3.782-3.571c1.961,0,3.193,1.4,3.193,3.571v0.659h-4.875c0.168,0.798,0.771,1.316,1.583,1.316
			c0.687,0,1.148-0.351,1.499-0.826L213.303,53.412z M211.524,50.415c0.014-0.701-0.532-1.289-1.289-1.289
			c-0.924,0-1.429,0.63-1.485,1.289H211.524z"/>
	</g>
	<g>
		<path fill="#6DB7A1" d="M88.97,173.438c1.821,0,3.32,0.911,3.32,2.732c0,1.078-0.616,1.891-1.681,2.199v0.027
			c1.19,0.322,1.849,1.177,1.849,2.409c0,1.919-1.653,2.886-3.488,2.886c-1.835,0-3.488-0.967-3.488-2.886
			c0-1.232,0.659-2.087,1.849-2.409v-0.027c-1.064-0.309-1.681-1.121-1.681-2.199C85.65,174.35,87.149,173.438,88.97,173.438z
			 M88.97,181.76c0.827,0,1.387-0.561,1.387-1.247c0-0.7-0.561-1.261-1.387-1.261c-0.826,0-1.387,0.561-1.387,1.261
			C87.583,181.199,88.144,181.76,88.97,181.76z M88.97,177.571c0.729,0,1.219-0.49,1.219-1.106c0-0.603-0.49-1.093-1.219-1.093
			c-0.728,0-1.218,0.49-1.218,1.093C87.751,177.081,88.242,177.571,88.97,177.571z"/>
		<path fill="#6DB7A1" d="M95.941,173.438c1.527,0,2.759,1.233,2.759,2.774c0,1.54-1.232,2.773-2.759,2.773s-2.76-1.233-2.76-2.773
			C93.182,174.672,94.415,173.438,95.941,173.438z M95.941,174.868c-0.743,0-1.331,0.602-1.331,1.345
			c0,0.742,0.588,1.345,1.331,1.345c0.742,0,1.331-0.603,1.331-1.345C97.272,175.47,96.684,174.868,95.941,174.868z
			 M101.727,173.159l1.177,0.658l-5.785,10.155l-1.065-0.603L101.727,173.159z M102.987,178.132c1.527,0,2.759,1.232,2.759,2.773
			s-1.232,2.787-2.759,2.787s-2.76-1.246-2.76-2.787S101.46,178.132,102.987,178.132z M102.987,179.561
			c-0.743,0-1.331,0.603-1.331,1.345c0,0.756,0.588,1.358,1.331,1.358c0.742,0,1.331-0.603,1.331-1.358
			C104.318,180.163,103.729,179.561,102.987,179.561z"/>
		<path fill="#6DB7A1" d="M110.962,173.607h3.684c2.059,0,3.768,0.658,3.768,3.012c0,2.325-1.583,3.039-3.67,3.039h-1.597v3.866
			h-2.186V173.607z M113.147,177.81h1.457c0.771,0,1.541-0.267,1.541-1.19c0-1.023-1.037-1.163-1.877-1.163h-1.121V177.81z"/>
		<path fill="#6DB7A1" d="M119.516,176.717h2.102v1.093h0.028c0.448-0.827,1.037-1.261,1.961-1.261c0.238,0,0.504,0.014,0.701,0.07
			v1.919c-0.294-0.084-0.588-0.141-0.896-0.141c-1.597,0-1.793,0.925-1.793,2.283v2.844h-2.102V176.717z"/>
		<path fill="#6DB7A1" d="M131.405,182.348c-0.672,0.854-1.779,1.345-2.872,1.345c-2.101,0-3.782-1.4-3.782-3.572
			c0-2.171,1.681-3.571,3.782-3.571c1.961,0,3.194,1.4,3.194,3.571v0.659h-4.875c0.168,0.798,0.771,1.316,1.583,1.316
			c0.687,0,1.148-0.351,1.499-0.826L131.405,182.348z M129.626,179.351c0.014-0.701-0.532-1.289-1.289-1.289
			c-0.924,0-1.429,0.63-1.485,1.289H129.626z"/>
		<path fill="#6DB7A1" d="M133.726,178.397h-1.387v-1.681h1.387v-1.205c0-1.484,0.378-2.745,2.662-2.745
			c0.42,0,0.84,0.028,1.232,0.126l-0.098,1.779c-0.238-0.084-0.434-0.141-0.686-0.141c-0.672,0-1.009,0.21-1.009,1.106v1.079h1.555
			v1.681h-1.555v5.127h-2.101V178.397z"/>
		<path fill="#6DB7A1" d="M144.621,182.348c-0.672,0.854-1.779,1.345-2.872,1.345c-2.101,0-3.782-1.4-3.782-3.572
			c0-2.171,1.681-3.571,3.782-3.571c1.961,0,3.193,1.4,3.193,3.571v0.659h-4.875c0.168,0.798,0.771,1.316,1.583,1.316
			c0.687,0,1.148-0.351,1.499-0.826L144.621,182.348z M142.841,179.351c0.014-0.701-0.532-1.289-1.289-1.289
			c-0.924,0-1.429,0.63-1.485,1.289H142.841z"/>
		<path fill="#6DB7A1" d="M146.212,176.717h2.102v1.093h0.028c0.448-0.827,1.037-1.261,1.961-1.261c0.238,0,0.504,0.014,0.701,0.07
			v1.919c-0.294-0.084-0.588-0.141-0.896-0.141c-1.597,0-1.793,0.925-1.793,2.283v2.844h-2.102V176.717z"/>
		<path fill="#6DB7A1" d="M155.284,173.607h2.381l1.583,6.359h0.028l2.073-6.359h2.031l2.059,6.527h0.028l1.667-6.527h2.213
			l-2.899,9.917h-1.947l-2.185-6.863h-0.028l-2.185,6.863h-1.877L155.284,173.607z"/>
		<path fill="#6DB7A1" d="M172.814,176.549c2.101,0,3.782,1.4,3.782,3.571c0,2.172-1.681,3.572-3.782,3.572s-3.782-1.4-3.782-3.572
			C169.032,177.949,170.713,176.549,172.814,176.549z M172.814,181.844c1.05,0,1.681-0.7,1.681-1.724
			c0-1.022-0.63-1.723-1.681-1.723c-1.051,0-1.681,0.7-1.681,1.723C171.133,181.144,171.764,181.844,172.814,181.844z"/>
		<path fill="#6DB7A1" d="M177.824,176.717h2.017v0.925h0.028c0.28-0.532,0.966-1.093,1.989-1.093c0.953,0,1.737,0.392,2.102,1.219
			c0.49-0.869,1.148-1.219,2.157-1.219c1.849,0,2.41,1.303,2.41,2.955v4.021h-2.101v-3.964c0-0.631-0.238-1.163-0.925-1.163
			c-0.966,0-1.274,0.687-1.274,1.527v3.6h-2.102v-3.6c0-0.505,0.028-1.527-0.938-1.527c-1.092,0-1.26,0.854-1.26,1.737v3.39h-2.102
			V176.717z"/>
		<path fill="#6DB7A1" d="M196.447,182.348c-0.672,0.854-1.779,1.345-2.872,1.345c-2.101,0-3.782-1.4-3.782-3.572
			c0-2.171,1.681-3.571,3.782-3.571c1.961,0,3.194,1.4,3.194,3.571v0.659h-4.875c0.168,0.798,0.771,1.316,1.583,1.316
			c0.687,0,1.148-0.351,1.499-0.826L196.447,182.348z M194.668,179.351c0.014-0.701-0.532-1.289-1.289-1.289
			c-0.924,0-1.429,0.63-1.485,1.289H194.668z"/>
		<path fill="#6DB7A1" d="M198.039,176.717h2.017v0.925h0.028c0.28-0.532,0.966-1.093,1.989-1.093c2.129,0,2.521,1.4,2.521,3.222
			v3.754h-2.101v-3.334c0-0.784-0.014-1.793-1.093-1.793c-1.092,0-1.26,0.854-1.26,1.737v3.39h-2.102V176.717z"/>
	</g>
</g>
<g id="senateGirlsMLStat">
	<g>
		<path fill="#6DB7A1" d="M310.509,55.299l3.852-3.46c0.393-0.363,0.883-0.784,0.883-1.387c0-0.672-0.574-1.078-1.219-1.078
			c-0.771,0-1.232,0.546-1.289,1.261l-2.101-0.154c0.126-2.045,1.555-3.04,3.502-3.04c1.807,0,3.208,0.995,3.208,2.984
			c0,1.274-0.547,2.003-1.303,2.661l-3.012,2.592h4.398v1.849h-6.92V55.299z"/>
		<path fill="#6DB7A1" d="M321.136,51.518h0.687c0.771,0,1.597-0.169,1.597-1.107c0-0.602-0.546-1.036-1.232-1.036
			c-0.658,0-1.106,0.406-1.232,0.925l-2.312-0.477c0.435-1.723,1.849-2.382,3.53-2.382c1.765,0,3.348,0.854,3.348,2.76
			c0,1.093-0.603,1.947-1.695,2.172v0.042c1.191,0.153,1.863,1.162,1.863,2.311c0,1.989-1.625,2.97-3.572,2.97
			c-1.765,0-3.151-0.784-3.558-2.563l2.214-0.519c0.139,0.701,0.574,1.149,1.471,1.149c0.91,0,1.344-0.532,1.344-1.275
			c0-1.12-1.021-1.148-1.961-1.148h-0.49V51.518z"/>
		<path fill="#6DB7A1" d="M329.228,47.44c1.527,0,2.76,1.233,2.76,2.774c0,1.54-1.232,2.773-2.76,2.773
			c-1.526,0-2.76-1.233-2.76-2.773C326.468,48.674,327.702,47.44,329.228,47.44z M329.228,48.87c-0.742,0-1.33,0.602-1.33,1.345
			c0,0.742,0.588,1.345,1.33,1.345s1.331-0.603,1.331-1.345C330.559,49.472,329.97,48.87,329.228,48.87z M335.013,47.161
			l1.178,0.658l-5.785,10.155l-1.065-0.603L335.013,47.161z M336.275,52.134c1.526,0,2.759,1.232,2.759,2.773
			s-1.232,2.787-2.759,2.787c-1.527,0-2.76-1.246-2.76-2.787S334.748,52.134,336.275,52.134z M336.275,53.563
			c-0.743,0-1.332,0.603-1.332,1.345c0,0.756,0.589,1.358,1.332,1.358c0.742,0,1.33-0.603,1.33-1.358
			C337.605,54.165,337.017,53.563,336.275,53.563z"/>
		<path fill="#6DB7A1" d="M344.25,47.609h3.684c2.059,0,3.768,0.658,3.768,3.012c0,2.325-1.582,3.039-3.67,3.039h-1.596v3.866
			h-2.186V47.609z M346.435,51.812h1.456c0.771,0,1.541-0.267,1.541-1.19c0-1.023-1.036-1.163-1.877-1.163h-1.12V51.812z"/>
		<path fill="#6DB7A1" d="M352.802,50.719h2.102v1.093h0.028c0.448-0.827,1.036-1.261,1.961-1.261c0.238,0,0.505,0.014,0.7,0.07
			v1.919c-0.294-0.084-0.588-0.141-0.896-0.141c-1.597,0-1.793,0.925-1.793,2.283v2.844h-2.102V50.719z"/>
		<path fill="#6DB7A1" d="M364.693,56.35c-0.673,0.854-1.779,1.345-2.872,1.345c-2.101,0-3.782-1.4-3.782-3.572
			c0-2.171,1.682-3.571,3.782-3.571c1.961,0,3.194,1.4,3.194,3.571v0.659h-4.875c0.168,0.798,0.77,1.316,1.582,1.316
			c0.688,0,1.148-0.351,1.5-0.826L364.693,56.35z M362.914,53.353c0.014-0.701-0.533-1.289-1.289-1.289
			c-0.924,0-1.429,0.63-1.484,1.289H362.914z"/>
		<path fill="#6DB7A1" d="M367.013,52.399h-1.387v-1.681h1.387v-1.205c0-1.484,0.378-2.745,2.661-2.745
			c0.42,0,0.841,0.028,1.232,0.126l-0.099,1.779c-0.237-0.084-0.434-0.141-0.686-0.141c-0.672,0-1.009,0.21-1.009,1.106v1.079h1.556
			v1.681h-1.556v5.127h-2.101V52.399z"/>
		<path fill="#6DB7A1" d="M377.908,56.35c-0.672,0.854-1.779,1.345-2.871,1.345c-2.102,0-3.783-1.4-3.783-3.572
			c0-2.171,1.682-3.571,3.783-3.571c1.961,0,3.193,1.4,3.193,3.571v0.659h-4.875c0.168,0.798,0.771,1.316,1.583,1.316
			c0.687,0,1.148-0.351,1.499-0.826L377.908,56.35z M376.128,53.353c0.014-0.701-0.532-1.289-1.289-1.289
			c-0.924,0-1.428,0.63-1.484,1.289H376.128z"/>
		<path fill="#6DB7A1" d="M379.5,50.719h2.102v1.093h0.027c0.449-0.827,1.037-1.261,1.961-1.261c0.238,0,0.505,0.014,0.701,0.07
			v1.919c-0.295-0.084-0.588-0.141-0.896-0.141c-1.598,0-1.793,0.925-1.793,2.283v2.844H379.5V50.719z"/>
		<path fill="#6DB7A1" d="M389.607,47.609h3.307l2.283,6.471h0.027l2.298-6.471h3.292v9.917h-2.186V49.92h-0.027l-2.605,7.606
			h-1.668l-2.507-7.606h-0.028v7.606h-2.186V47.609z"/>
		<path fill="#6DB7A1" d="M409.001,56.35c-0.673,0.854-1.779,1.345-2.872,1.345c-2.101,0-3.782-1.4-3.782-3.572
			c0-2.171,1.682-3.571,3.782-3.571c1.961,0,3.194,1.4,3.194,3.571v0.659h-4.875c0.168,0.798,0.77,1.316,1.582,1.316
			c0.688,0,1.148-0.351,1.5-0.826L409.001,56.35z M407.222,53.353c0.014-0.701-0.533-1.289-1.289-1.289
			c-0.924,0-1.429,0.63-1.484,1.289H407.222z"/>
		<path fill="#6DB7A1" d="M410.593,50.719h2.017v0.925h0.028c0.28-0.532,0.967-1.093,1.988-1.093c2.13,0,2.521,1.4,2.521,3.222
			v3.754h-2.101v-3.334c0-0.784-0.015-1.793-1.093-1.793c-1.092,0-1.26,0.854-1.26,1.737v3.39h-2.102V50.719z"/>
	</g>
	<g>
		<path fill="#BCD6C4" d="M313.843,177.153c0.224-0.057,0.447-0.1,0.686-0.1c1.863,0,3.11,1.43,3.11,3.236
			c0,2.045-1.625,3.404-3.698,3.404s-3.697-1.359-3.697-3.404c0-1.428,0.56-2.297,1.189-3.291l2.172-3.391h2.563L313.843,177.153z
			 M313.941,178.651c-0.938,0-1.597,0.658-1.597,1.555s0.658,1.555,1.597,1.555s1.598-0.658,1.598-1.555
			S314.879,178.651,313.941,178.651z"/>
		<path fill="#BCD6C4" d="M322.383,179.981c-0.224,0.057-0.448,0.098-0.687,0.098c-1.863,0-3.109-1.428-3.109-3.234
			c0-2.045,1.625-3.404,3.697-3.404c2.074,0,3.698,1.359,3.698,3.404c0,1.428-0.56,2.297-1.19,3.291l-2.172,3.391h-2.563
			L322.383,179.981z M322.285,178.483c0.939,0,1.598-0.658,1.598-1.555s-0.658-1.555-1.598-1.555c-0.938,0-1.596,0.658-1.596,1.555
			S321.347,178.483,322.285,178.483z"/>
		<path fill="#BCD6C4" d="M329.228,173.44c1.527,0,2.76,1.232,2.76,2.773s-1.232,2.773-2.76,2.773c-1.526,0-2.76-1.232-2.76-2.773
			S327.702,173.44,329.228,173.44z M329.228,174.87c-0.742,0-1.33,0.602-1.33,1.344s0.588,1.346,1.33,1.346s1.331-0.604,1.331-1.346
			S329.97,174.87,329.228,174.87z M335.013,173.161l1.178,0.658l-5.785,10.154l-1.065-0.602L335.013,173.161z M336.275,178.134
			c1.526,0,2.759,1.232,2.759,2.773s-1.232,2.787-2.759,2.787c-1.527,0-2.76-1.246-2.76-2.787S334.748,178.134,336.275,178.134z
			 M336.275,179.562c-0.743,0-1.332,0.604-1.332,1.346c0,0.756,0.589,1.357,1.332,1.357c0.742,0,1.33-0.602,1.33-1.357
			C337.605,180.165,337.017,179.562,336.275,179.562z"/>
		<path fill="#BCD6C4" d="M344.25,173.608h2.969l4.217,6.893h0.028v-6.893h2.185v9.918h-2.857l-4.328-7.061h-0.027v7.061h-2.186
			V173.608z"/>
		<path fill="#BCD6C4" d="M358.923,176.55c2.101,0,3.781,1.4,3.781,3.572s-1.681,3.572-3.781,3.572c-2.102,0-3.783-1.4-3.783-3.572
			S356.822,176.55,358.923,176.55z M358.923,181.845c1.05,0,1.68-0.699,1.68-1.723s-0.63-1.723-1.68-1.723
			c-1.051,0-1.682,0.699-1.682,1.723S357.873,181.845,358.923,181.845z"/>
		<path fill="#BCD6C4" d="M368.343,173.608h3.684c2.059,0,3.768,0.658,3.768,3.012c0,2.326-1.582,3.039-3.67,3.039h-1.596v3.867
			h-2.186V173.608z M370.529,177.812h1.456c0.771,0,1.541-0.268,1.541-1.191c0-1.023-1.036-1.162-1.877-1.162h-1.12V177.812z"/>
		<path fill="#BCD6C4" d="M376.896,176.718h2.102v1.094h0.028c0.448-0.828,1.036-1.262,1.961-1.262c0.238,0,0.505,0.014,0.7,0.07
			v1.92c-0.294-0.084-0.588-0.141-0.896-0.141c-1.597,0-1.793,0.924-1.793,2.283v2.844h-2.102V176.718z"/>
		<path fill="#BCD6C4" d="M388.787,182.349c-0.673,0.855-1.779,1.346-2.872,1.346c-2.101,0-3.782-1.4-3.782-3.572
			s1.682-3.572,3.782-3.572c1.961,0,3.194,1.4,3.194,3.572v0.658h-4.875c0.168,0.799,0.77,1.316,1.582,1.316
			c0.688,0,1.148-0.35,1.5-0.826L388.787,182.349z M387.007,179.353c0.014-0.701-0.533-1.289-1.289-1.289
			c-0.924,0-1.429,0.629-1.484,1.289H387.007z"/>
		<path fill="#BCD6C4" d="M391.107,178.399h-1.387v-1.682h1.387v-1.205c0-1.484,0.378-2.744,2.661-2.744
			c0.42,0,0.841,0.027,1.232,0.125l-0.099,1.779c-0.237-0.084-0.434-0.141-0.686-0.141c-0.672,0-1.009,0.211-1.009,1.107v1.078
			h1.556v1.682h-1.556v5.127h-2.101V178.399z"/>
		<path fill="#BCD6C4" d="M402.001,182.349c-0.672,0.855-1.779,1.346-2.871,1.346c-2.102,0-3.783-1.4-3.783-3.572
			s1.682-3.572,3.783-3.572c1.961,0,3.193,1.4,3.193,3.572v0.658h-4.875c0.168,0.799,0.771,1.316,1.583,1.316
			c0.687,0,1.148-0.35,1.499-0.826L402.001,182.349z M400.222,179.353c0.014-0.701-0.532-1.289-1.289-1.289
			c-0.924,0-1.428,0.629-1.484,1.289H400.222z"/>
		<path fill="#BCD6C4" d="M403.593,176.718h2.102v1.094h0.027c0.449-0.828,1.037-1.262,1.961-1.262c0.238,0,0.505,0.014,0.701,0.07
			v1.92c-0.295-0.084-0.588-0.141-0.896-0.141c-1.598,0-1.793,0.924-1.793,2.283v2.844h-2.102V176.718z"/>
		<path fill="#BCD6C4" d="M415.483,182.349c-0.673,0.855-1.779,1.346-2.872,1.346c-2.101,0-3.781-1.4-3.781-3.572
			s1.681-3.572,3.781-3.572c1.961,0,3.193,1.4,3.193,3.572v0.658h-4.874c0.169,0.799,0.771,1.316,1.583,1.316
			c0.687,0,1.148-0.35,1.498-0.826L415.483,182.349z M413.704,179.353c0.015-0.701-0.532-1.289-1.288-1.289
			c-0.925,0-1.43,0.629-1.485,1.289H413.704z"/>
		<path fill="#BCD6C4" d="M417.075,176.718h2.017v0.926h0.029c0.279-0.533,0.966-1.094,1.988-1.094c2.129,0,2.521,1.4,2.521,3.223
			v3.754h-2.102v-3.334c0-0.785-0.014-1.793-1.092-1.793c-1.093,0-1.261,0.854-1.261,1.736v3.391h-2.102V176.718z"/>
		<path fill="#BCD6C4" d="M429.719,178.917c-0.21-0.293-0.603-0.518-1.036-0.518c-1.051,0-1.682,0.699-1.682,1.723
			s0.631,1.723,1.682,1.723c0.461,0,0.798-0.238,1.036-0.518l1.387,1.457c-0.659,0.672-1.625,0.91-2.423,0.91
			c-2.102,0-3.783-1.4-3.783-3.572s1.682-3.572,3.783-3.572c0.798,0,1.764,0.238,2.423,0.91L429.719,178.917z"/>
		<path fill="#BCD6C4" d="M438.302,182.349c-0.672,0.855-1.779,1.346-2.871,1.346c-2.102,0-3.783-1.4-3.783-3.572
			s1.682-3.572,3.783-3.572c1.961,0,3.193,1.4,3.193,3.572v0.658h-4.875c0.168,0.799,0.771,1.316,1.583,1.316
			c0.687,0,1.148-0.35,1.499-0.826L438.302,182.349z M436.523,179.353c0.014-0.701-0.532-1.289-1.289-1.289
			c-0.924,0-1.428,0.629-1.484,1.289H436.523z"/>
	</g>
</g>
<g id="senateGirlsWStat">
	<g opacity="0.5">
		<path fill="#767C6D" d="M95.907,155.98c-0.45-0.576-1.35-0.847-2.035-0.847c-0.792,0-1.89,0.36-1.89,1.314
			c0,2.323,5.87,0.828,5.87,5.294c0,2.845-2.287,4.195-4.916,4.195c-1.639,0-3.079-0.486-4.285-1.603l1.999-2.196
			c0.576,0.756,1.512,1.206,2.449,1.206c0.918,0,1.944-0.433,1.944-1.332c0-2.341-5.978-1.081-5.978-5.33
			c0-2.719,2.358-4.142,4.861-4.142c1.44,0,2.827,0.379,3.907,1.333L95.907,155.98z"/>
		<path fill="#767C6D" d="M107.878,164.101c-0.864,1.099-2.287,1.729-3.691,1.729c-2.701,0-4.861-1.801-4.861-4.591
			c0-2.791,2.161-4.592,4.861-4.592c2.521,0,4.105,1.801,4.105,4.592v0.846h-6.266c0.216,1.026,0.99,1.692,2.034,1.692
			c0.882,0,1.477-0.45,1.927-1.062L107.878,164.101z M105.591,160.248c0.018-0.9-0.684-1.657-1.657-1.657
			c-1.188,0-1.836,0.811-1.908,1.657H105.591z"/>
		<path fill="#767C6D" d="M109.927,156.862h2.593v1.188h0.036c0.36-0.684,1.243-1.404,2.557-1.404c2.737,0,3.241,1.801,3.241,4.142
			v4.825h-2.701v-4.285c0-1.009-0.018-2.305-1.405-2.305c-1.404,0-1.62,1.099-1.62,2.232v4.357h-2.701V156.862z"/>
		<path fill="#767C6D" d="M125.751,164.515h-0.036c-0.594,0.937-1.674,1.314-2.772,1.314c-1.639,0-3.115-0.936-3.115-2.7
			c0-3.025,3.673-3.079,5.924-3.079c0-0.954-0.792-1.566-1.729-1.566c-0.882,0-1.62,0.396-2.196,1.044l-1.44-1.477
			c0.99-0.937,2.431-1.404,3.853-1.404c3.151,0,3.997,1.603,3.997,4.52v4.447h-2.485V164.515z M125.085,161.778
			c-0.828,0-2.665,0.072-2.665,1.26c0,0.648,0.685,0.955,1.278,0.955c1.063,0,2.053-0.559,2.053-1.639v-0.576H125.085z"/>
		<path fill="#767C6D" d="M135.885,159.023h-2.377v2.917c0,0.936,0.108,1.62,1.279,1.62c0.288,0,0.864-0.036,1.098-0.252v2.251
			c-0.594,0.216-1.26,0.27-1.891,0.27c-1.8,0-3.187-0.738-3.187-2.646v-4.159h-1.729v-2.161h1.729v-2.593h2.701v2.593h2.377V159.023
			z"/>
		<path fill="#767C6D" d="M145.534,164.101c-0.864,1.099-2.287,1.729-3.691,1.729c-2.701,0-4.862-1.801-4.862-4.591
			c0-2.791,2.161-4.592,4.862-4.592c2.521,0,4.105,1.801,4.105,4.592v0.846h-6.266c0.216,1.026,0.991,1.692,2.035,1.692
			c0.882,0,1.477-0.45,1.927-1.062L145.534,164.101z M143.247,160.248c0.018-0.9-0.685-1.657-1.657-1.657
			c-1.188,0-1.836,0.811-1.909,1.657H143.247z"/>
		<path fill="#767C6D" d="M151.92,152.865h3.061l2.035,8.175h0.036l2.665-8.175h2.611l2.647,8.391h0.036l2.143-8.391h2.845
			l-3.727,12.748h-2.503l-2.809-8.822h-0.036l-2.809,8.822h-2.413L151.92,152.865z"/>
		<path fill="#767C6D" d="M174.458,156.646c2.701,0,4.861,1.801,4.861,4.592c0,2.79-2.161,4.591-4.861,4.591
			s-4.861-1.801-4.861-4.591C169.597,158.447,171.758,156.646,174.458,156.646z M174.458,163.452c1.35,0,2.161-0.899,2.161-2.214
			s-0.811-2.215-2.161-2.215c-1.351,0-2.161,0.9-2.161,2.215S173.108,163.452,174.458,163.452z"/>
		<path fill="#767C6D" d="M180.901,156.862h2.593v1.188h0.036c0.36-0.684,1.243-1.404,2.557-1.404c1.225,0,2.233,0.504,2.701,1.566
			c0.63-1.116,1.476-1.566,2.772-1.566c2.377,0,3.097,1.675,3.097,3.799v5.168h-2.701v-5.096c0-0.81-0.306-1.494-1.188-1.494
			c-1.243,0-1.639,0.882-1.639,1.963v4.627h-2.701v-4.627c0-0.648,0.036-1.963-1.207-1.963c-1.404,0-1.62,1.099-1.62,2.232v4.357
			h-2.701V156.862z"/>
		<path fill="#767C6D" d="M204.844,164.101c-0.864,1.099-2.287,1.729-3.691,1.729c-2.701,0-4.861-1.801-4.861-4.591
			c0-2.791,2.161-4.592,4.861-4.592c2.521,0,4.105,1.801,4.105,4.592v0.846h-6.266c0.216,1.026,0.99,1.692,2.034,1.692
			c0.882,0,1.477-0.45,1.927-1.062L204.844,164.101z M202.557,160.248c0.018-0.9-0.684-1.657-1.657-1.657
			c-1.188,0-1.836,0.811-1.908,1.657H202.557z"/>
		<path fill="#767C6D" d="M206.893,156.862h2.593v1.188h0.036c0.36-0.684,1.243-1.404,2.557-1.404c2.737,0,3.241,1.801,3.241,4.142
			v4.825h-2.701v-4.285c0-1.009-0.018-2.305-1.405-2.305c-1.404,0-1.62,1.099-1.62,2.232v4.357h-2.701V156.862z"/>
		<path fill="#767C6D" d="M222.481,162.75l4.952-4.447c0.504-0.468,1.134-1.008,1.134-1.782c0-0.864-0.738-1.387-1.567-1.387
			c-0.99,0-1.584,0.702-1.656,1.621l-2.701-0.198c0.162-2.629,1.999-3.907,4.501-3.907c2.322,0,4.123,1.278,4.123,3.835
			c0,1.639-0.702,2.575-1.675,3.421l-3.871,3.331h5.654v2.377h-8.895V162.75z"/>
		<path fill="#767C6D" d="M237.584,152.649c3.781,0,4.735,3.565,4.735,6.59c0,3.025-0.954,6.59-4.735,6.59s-4.735-3.564-4.735-6.59
			C232.849,156.215,233.803,152.649,237.584,152.649z M237.584,163.345c1.944,0,2.035-2.773,2.035-4.105s-0.09-4.105-2.035-4.105
			s-2.035,2.773-2.035,4.105S235.64,163.345,237.584,163.345z"/>
		<path fill="#767C6D" d="M246.547,152.649c1.962,0,3.547,1.584,3.547,3.565c0,1.98-1.584,3.564-3.547,3.564
			c-1.963,0-3.547-1.584-3.547-3.564C243,154.233,244.584,152.649,246.547,152.649z M246.547,154.486
			c-0.955,0-1.71,0.773-1.71,1.729c0,0.954,0.756,1.729,1.71,1.729c0.954,0,1.71-0.774,1.71-1.729
			C248.258,155.26,247.501,154.486,246.547,154.486z M253.983,152.289l1.513,0.847l-7.437,13.054l-1.368-0.774L253.983,152.289z
			 M255.604,158.682c1.962,0,3.547,1.584,3.547,3.564s-1.584,3.583-3.547,3.583s-3.547-1.603-3.547-3.583
			S253.642,158.682,255.604,158.682z M255.604,160.518c-0.955,0-1.71,0.774-1.71,1.729c0,0.973,0.756,1.747,1.71,1.747
			c0.954,0,1.71-0.774,1.71-1.747C257.314,161.292,256.558,160.518,255.604,160.518z"/>
	</g>
</g>
<g id="senateGirlsMStat">
	<g>
		<path fill="#F1F2F2" d="M333.903,155.979c-0.45-0.576-1.351-0.846-2.034-0.846c-0.793,0-1.891,0.359-1.891,1.314
			c0,2.322,5.869,0.828,5.869,5.293c0,2.846-2.286,4.195-4.915,4.195c-1.639,0-3.079-0.486-4.285-1.602l1.999-2.197
			c0.576,0.756,1.512,1.207,2.448,1.207c0.918,0,1.944-0.434,1.944-1.332c0-2.342-5.978-1.082-5.978-5.33
			c0-2.719,2.358-4.143,4.861-4.143c1.44,0,2.827,0.379,3.907,1.334L333.903,155.979z"/>
		<path fill="#F1F2F2" d="M345.874,164.101c-0.864,1.098-2.286,1.729-3.691,1.729c-2.7,0-4.861-1.801-4.861-4.592
			s2.161-4.592,4.861-4.592c2.521,0,4.105,1.801,4.105,4.592v0.846h-6.266c0.216,1.027,0.99,1.693,2.034,1.693
			c0.883,0,1.477-0.451,1.927-1.063L345.874,164.101z M343.587,160.247c0.018-0.9-0.685-1.656-1.657-1.656
			c-1.188,0-1.837,0.811-1.908,1.656H343.587z"/>
		<path fill="#F1F2F2" d="M347.923,156.862h2.592v1.188h0.037c0.359-0.684,1.242-1.404,2.557-1.404c2.736,0,3.24,1.801,3.24,4.143
			v4.824h-2.7v-4.285c0-1.008-0.019-2.305-1.405-2.305c-1.404,0-1.619,1.1-1.619,2.232v4.357h-2.701V156.862z"/>
		<path fill="#F1F2F2" d="M363.747,164.515h-0.036c-0.594,0.936-1.674,1.314-2.772,1.314c-1.639,0-3.115-0.936-3.115-2.701
			c0-3.025,3.673-3.078,5.924-3.078c0-0.955-0.792-1.566-1.729-1.566c-0.882,0-1.62,0.395-2.196,1.043l-1.44-1.477
			c0.99-0.936,2.431-1.404,3.853-1.404c3.151,0,3.998,1.604,3.998,4.52v4.447h-2.485V164.515z M363.081,161.778
			c-0.828,0-2.665,0.072-2.665,1.26c0,0.648,0.685,0.955,1.278,0.955c1.063,0,2.053-0.559,2.053-1.639v-0.576H363.081z"/>
		<path fill="#F1F2F2" d="M373.88,159.022h-2.377v2.918c0,0.936,0.108,1.619,1.279,1.619c0.287,0,0.863-0.035,1.098-0.252v2.252
			c-0.594,0.215-1.26,0.27-1.891,0.27c-1.801,0-3.188-0.738-3.188-2.646v-4.16h-1.729v-2.16h1.729v-2.594h2.701v2.594h2.377V159.022
			z"/>
		<path fill="#F1F2F2" d="M383.529,164.101c-0.863,1.098-2.286,1.729-3.69,1.729c-2.701,0-4.862-1.801-4.862-4.592
			s2.161-4.592,4.862-4.592c2.521,0,4.104,1.801,4.104,4.592v0.846h-6.266c0.217,1.027,0.99,1.693,2.035,1.693
			c0.882,0,1.477-0.451,1.926-1.063L383.529,164.101z M381.243,160.247c0.019-0.9-0.685-1.656-1.657-1.656
			c-1.188,0-1.836,0.811-1.908,1.656H381.243z"/>
		<path fill="#F1F2F2" d="M391.249,152.864h4.249l2.936,8.318h0.035l2.953-8.318h4.231v12.748h-2.809v-9.777h-0.036l-3.35,9.777
			h-2.143l-3.223-9.777h-0.036v9.777h-2.809V152.864z"/>
		<path fill="#F1F2F2" d="M416.181,164.101c-0.865,1.098-2.287,1.729-3.691,1.729c-2.701,0-4.861-1.801-4.861-4.592
			s2.16-4.592,4.861-4.592c2.521,0,4.105,1.801,4.105,4.592v0.846h-6.267c0.216,1.027,0.991,1.693,2.034,1.693
			c0.883,0,1.477-0.451,1.928-1.063L416.181,164.101z M413.894,160.247c0.018-0.9-0.685-1.656-1.656-1.656
			c-1.188,0-1.837,0.811-1.909,1.656H413.894z"/>
		<path fill="#F1F2F2" d="M418.23,156.862h2.593v1.188h0.036c0.36-0.684,1.242-1.404,2.557-1.404c2.736,0,3.241,1.801,3.241,4.143
			v4.824h-2.7v-4.285c0-1.008-0.019-2.305-1.405-2.305c-1.404,0-1.62,1.1-1.62,2.232v4.357h-2.701V156.862z"/>
		<path fill="#F1F2F2" d="M433.818,162.749l4.951-4.447c0.504-0.467,1.135-1.008,1.135-1.781c0-0.865-0.738-1.387-1.566-1.387
			c-0.99,0-1.585,0.701-1.656,1.621l-2.701-0.199c0.162-2.629,1.998-3.906,4.501-3.906c2.323,0,4.124,1.277,4.124,3.834
			c0,1.639-0.703,2.576-1.675,3.422l-3.872,3.33h5.654v2.377h-8.895V162.749z"/>
		<path fill="#F1F2F2" d="M448.921,152.649c3.781,0,4.734,3.564,4.734,6.59s-0.953,6.59-4.734,6.59s-4.736-3.564-4.736-6.59
			S445.14,152.649,448.921,152.649z M448.921,163.345c1.944,0,2.034-2.773,2.034-4.105s-0.09-4.105-2.034-4.105
			c-1.945,0-2.035,2.773-2.035,4.105S446.976,163.345,448.921,163.345z"/>
		<path fill="#F1F2F2" d="M457.884,152.649c1.963,0,3.547,1.584,3.547,3.564s-1.584,3.564-3.547,3.564s-3.547-1.584-3.547-3.564
			S455.921,152.649,457.884,152.649z M457.884,154.485c-0.955,0-1.711,0.773-1.711,1.729s0.756,1.729,1.711,1.729
			c0.954,0,1.711-0.773,1.711-1.729S458.838,154.485,457.884,154.485z M465.32,152.288l1.514,0.848l-7.438,13.053l-1.367-0.773
			L465.32,152.288z M466.941,158.681c1.963,0,3.547,1.584,3.547,3.564s-1.584,3.584-3.547,3.584s-3.547-1.604-3.547-3.584
			S464.978,158.681,466.941,158.681z M466.941,160.517c-0.954,0-1.711,0.775-1.711,1.729c0,0.973,0.757,1.748,1.711,1.748
			s1.711-0.775,1.711-1.748C468.652,161.292,467.895,160.517,466.941,160.517z"/>
	</g>
</g>
</svg>
