<?xml version="1.0" encoding="utf-8"?>
<!-- Generator: Adobe Illustrator 16.0.0, SVG Export Plug-In . SVG Version: 6.00 Build 0)  -->
<!DOCTYPE svg PUBLIC "-//W3C//DTD SVG 1.1//EN" "http://www.w3.org/Graphics/SVG/1.1/DTD/svg11.dtd">
<svg version="1.1" xmlns="http://www.w3.org/2000/svg" xmlns:xlink="http://www.w3.org/1999/xlink" x="0px" y="0px"
	 width="510.526px" height="216.179px" viewBox="0 0 510.526 216.179" enable-background="new 0 0 510.526 216.179"
	 xml:space="preserve">
<g id="senateMenPercentM">
	<g>
		<rect x="305.213" y="14.417" fill="#E3EFE5" width="182.684" height="182.681"/>
		<rect x="305.209" y="14.417" opacity="0.5" fill="#767C6D" width="182.688" height="147.97"/>
	</g>
</g>
<g id="senateMenPercentW">
	<g>
		<rect x="80.884" y="15.202" fill="#FFF1E2" width="182.684" height="182.681"/>
		<rect x="80.884" y="163.172" opacity="0.5" fill="#767C6D" width="182.684" height="34.711"/>
	</g>
</g>
<g id="senateMenWL">
	
		<rect x="80.884" y="186.912" fill="none" stroke="#F0895A" stroke-width="4" stroke-miterlimit="10" width="182.684" height="12.787"/>
	
		<rect x="80.884" y="48.6" fill="none" stroke="#EECAB2" stroke-width="4" stroke-miterlimit="10" width="182.684" height="135.185"/>
</g>
<g id="senateMenML">
	
		<rect x="305.213" y="14.417" fill="none" stroke="#F0895A" stroke-width="4" stroke-miterlimit="10" width="182.684" height="31.057"/>
	
		<rect x="305.213" y="48.6" fill="none" stroke="#EECAB2" stroke-width="4" stroke-miterlimit="10" width="182.684" height="135.185"/>
</g>
<g id="senateMenText">
	<g>
		<path fill="#F0895A" d="M35.023,61.16c-3.609,0.193-7.951,0.428-11.174,0.389v0.117c3.029,0.893,6.258,1.979,9.832,3.297
			l12.561,4.617v2.561l-12.332,4.23c-3.65,1.24-6.992,2.289-10.061,3.023v0.078c3.223,0.078,7.564,0.273,11.443,0.504l11.104,0.697
			v3.221L20.504,82.07v-4.303l12.521-4.463c3.189-1.086,6.035-1.979,8.721-2.637V70.55c-2.609-0.662-5.451-1.592-8.721-2.756
			L20.504,63.14v-4.307l25.893-1.629v3.299L35.023,61.16z"/>
		<path fill="#F0895A" d="M34.256,38.476v10.166h9.334V37.314h2.807v14.703H20.504V37.894h2.807v10.748h8.18V38.476H34.256z"/>
		<path fill="#F0895A" d="M46.396,32.933H20.504V29.25l13.102-8.379c3.035-1.939,5.76-3.453,8.41-4.695l-0.037-0.074
			c-3.457,0.309-6.609,0.387-10.641,0.387H20.504v-3.182h25.893v3.412l-13.139,8.303c-2.881,1.822-5.844,3.568-8.645,4.889
			l0.039,0.115c3.264-0.195,6.379-0.27,10.68-0.27h11.064V32.933z"/>
	</g>
</g>
<g id="senateMenWLStat">
	<g>
		<path fill="#EECAB2" d="M90.305,37.604h-4.903v-1.933h7.256v1.849l-3.964,8.068h-2.451L90.305,37.604z"/>
		<path fill="#EECAB2" d="M97.836,43.599h-4.328v-1.765l4.048-6.163h2.297v6.163h1.275v1.765h-1.275v1.989h-2.017V43.599z
			 M97.836,38.416h-0.028l-2.199,3.418h2.227V38.416z"/>
		<path fill="#EECAB2" d="M104.29,35.502c1.527,0,2.759,1.233,2.759,2.774c0,1.54-1.232,2.773-2.759,2.773s-2.76-1.233-2.76-2.773
			C101.53,36.735,102.763,35.502,104.29,35.502z M104.29,36.932c-0.743,0-1.331,0.602-1.331,1.345c0,0.742,0.588,1.345,1.331,1.345
			c0.742,0,1.331-0.603,1.331-1.345C105.62,37.533,105.032,36.932,104.29,36.932z M110.075,35.223l1.177,0.658l-5.785,10.155
			l-1.065-0.603L110.075,35.223z M111.335,40.195c1.527,0,2.759,1.232,2.759,2.773s-1.232,2.787-2.759,2.787s-2.76-1.246-2.76-2.787
			S109.809,40.195,111.335,40.195z M111.335,41.624c-0.743,0-1.331,0.603-1.331,1.345c0,0.756,0.588,1.358,1.331,1.358
			c0.742,0,1.331-0.603,1.331-1.358C112.666,42.227,112.078,41.624,111.335,41.624z"/>
		<path fill="#EECAB2" d="M119.31,35.671h2.97l4.216,6.892h0.028v-6.892h2.185v9.917h-2.857l-4.329-7.06h-0.028v7.06h-2.186V35.671z
			"/>
		<path fill="#EECAB2" d="M133.984,38.612c2.101,0,3.782,1.4,3.782,3.571c0,2.172-1.681,3.572-3.782,3.572s-3.782-1.4-3.782-3.572
			C130.202,40.013,131.883,38.612,133.984,38.612z M133.984,43.907c1.05,0,1.681-0.7,1.681-1.724c0-1.022-0.63-1.723-1.681-1.723
			c-1.051,0-1.681,0.7-1.681,1.723C132.303,43.207,132.933,43.907,133.984,43.907z"/>
		<path fill="#EECAB2" d="M143.404,35.671h3.684c2.059,0,3.768,0.658,3.768,3.012c0,2.325-1.583,3.039-3.67,3.039h-1.597v3.866
			h-2.186V35.671z M145.589,39.873h1.457c0.771,0,1.541-0.267,1.541-1.19c0-1.023-1.037-1.163-1.877-1.163h-1.121V39.873z"/>
		<path fill="#EECAB2" d="M151.958,38.78h2.102v1.093h0.028c0.448-0.827,1.037-1.261,1.961-1.261c0.238,0,0.504,0.014,0.701,0.07
			v1.919c-0.294-0.084-0.588-0.141-0.896-0.141c-1.597,0-1.793,0.925-1.793,2.283v2.844h-2.102V38.78z"/>
		<path fill="#EECAB2" d="M163.847,44.411c-0.672,0.854-1.779,1.345-2.872,1.345c-2.101,0-3.782-1.4-3.782-3.572
			c0-2.171,1.681-3.571,3.782-3.571c1.961,0,3.194,1.4,3.194,3.571v0.659h-4.875c0.168,0.798,0.771,1.316,1.583,1.316
			c0.687,0,1.148-0.351,1.499-0.826L163.847,44.411z M162.068,41.414c0.014-0.701-0.532-1.289-1.289-1.289
			c-0.924,0-1.429,0.63-1.485,1.289H162.068z"/>
		<path fill="#EECAB2" d="M166.167,40.461h-1.387V38.78h1.387v-1.205c0-1.484,0.378-2.745,2.662-2.745
			c0.42,0,0.84,0.028,1.232,0.126l-0.098,1.779c-0.238-0.084-0.434-0.141-0.686-0.141c-0.672,0-1.009,0.21-1.009,1.106v1.079h1.555
			v1.681h-1.555v5.127h-2.101V40.461z"/>
		<path fill="#EECAB2" d="M177.063,44.411c-0.672,0.854-1.779,1.345-2.872,1.345c-2.101,0-3.782-1.4-3.782-3.572
			c0-2.171,1.681-3.571,3.782-3.571c1.961,0,3.193,1.4,3.193,3.571v0.659h-4.875c0.168,0.798,0.771,1.316,1.583,1.316
			c0.687,0,1.148-0.351,1.499-0.826L177.063,44.411z M175.283,41.414c0.014-0.701-0.532-1.289-1.289-1.289
			c-0.924,0-1.429,0.63-1.485,1.289H175.283z"/>
		<path fill="#EECAB2" d="M178.654,38.78h2.102v1.093h0.028c0.448-0.827,1.037-1.261,1.961-1.261c0.238,0,0.504,0.014,0.701,0.07
			v1.919c-0.294-0.084-0.588-0.141-0.896-0.141c-1.597,0-1.793,0.925-1.793,2.283v2.844h-2.102V38.78z"/>
		<path fill="#EECAB2" d="M190.544,44.411c-0.672,0.854-1.779,1.345-2.872,1.345c-2.101,0-3.782-1.4-3.782-3.572
			c0-2.171,1.681-3.571,3.782-3.571c1.961,0,3.193,1.4,3.193,3.571v0.659h-4.875c0.168,0.798,0.771,1.316,1.583,1.316
			c0.687,0,1.148-0.351,1.499-0.826L190.544,44.411z M188.765,41.414c0.014-0.701-0.532-1.289-1.289-1.289
			c-0.924,0-1.429,0.63-1.485,1.289H188.765z"/>
		<path fill="#EECAB2" d="M192.136,38.78h2.017v0.925h0.028c0.28-0.532,0.966-1.093,1.989-1.093c2.129,0,2.521,1.4,2.521,3.222
			v3.754h-2.101v-3.334c0-0.784-0.014-1.793-1.093-1.793c-1.092,0-1.26,0.854-1.26,1.737v3.39h-2.102V38.78z"/>
		<path fill="#EECAB2" d="M204.78,40.979c-0.21-0.294-0.603-0.519-1.037-0.519c-1.051,0-1.681,0.7-1.681,1.723
			c0,1.023,0.63,1.724,1.681,1.724c0.462,0,0.798-0.238,1.037-0.519l1.387,1.457c-0.659,0.672-1.625,0.91-2.423,0.91
			c-2.101,0-3.782-1.4-3.782-3.572c0-2.171,1.681-3.571,3.782-3.571c0.798,0,1.765,0.238,2.423,0.91L204.78,40.979z"/>
		<path fill="#EECAB2" d="M213.363,44.411c-0.672,0.854-1.779,1.345-2.872,1.345c-2.101,0-3.782-1.4-3.782-3.572
			c0-2.171,1.681-3.571,3.782-3.571c1.961,0,3.193,1.4,3.193,3.571v0.659h-4.875c0.168,0.798,0.771,1.316,1.583,1.316
			c0.687,0,1.148-0.351,1.499-0.826L213.363,44.411z M211.584,41.414c0.014-0.701-0.532-1.289-1.289-1.289
			c-0.924,0-1.429,0.63-1.485,1.289H211.584z"/>
	</g>
	<g>
		<path fill="#F0895A" d="M90.305,176.825h-4.903v-1.933h7.256v1.849l-3.964,8.068h-2.451L90.305,176.825z"/>
		<path fill="#F0895A" d="M96.001,174.725c1.527,0,2.759,1.232,2.759,2.773c0,1.54-1.232,2.773-2.759,2.773s-2.76-1.233-2.76-2.773
			C93.242,175.957,94.475,174.725,96.001,174.725z M96.001,176.153c-0.743,0-1.331,0.602-1.331,1.345
			c0,0.742,0.588,1.345,1.331,1.345c0.742,0,1.331-0.603,1.331-1.345C97.332,176.755,96.744,176.153,96.001,176.153z
			 M101.787,174.444l1.177,0.658l-5.785,10.155l-1.065-0.603L101.787,174.444z M103.047,179.417c1.527,0,2.759,1.232,2.759,2.773
			s-1.232,2.787-2.759,2.787s-2.76-1.246-2.76-2.787S101.521,179.417,103.047,179.417z M103.047,180.846
			c-0.743,0-1.331,0.602-1.331,1.345c0,0.756,0.588,1.358,1.331,1.358c0.742,0,1.331-0.603,1.331-1.358
			C104.378,181.447,103.79,180.846,103.047,180.846z"/>
		<path fill="#F0895A" d="M111.022,174.893h3.684c2.059,0,3.768,0.658,3.768,3.012c0,2.325-1.583,3.039-3.67,3.039h-1.597v3.866
			h-2.186V174.893z M113.208,179.095h1.457c0.771,0,1.541-0.267,1.541-1.19c0-1.023-1.037-1.163-1.877-1.163h-1.121V179.095z"/>
		<path fill="#F0895A" d="M119.576,178.002h2.102v1.093h0.028c0.448-0.827,1.037-1.261,1.961-1.261c0.238,0,0.504,0.014,0.701,0.07
			v1.919c-0.294-0.084-0.588-0.141-0.896-0.141c-1.597,0-1.793,0.925-1.793,2.283v2.844h-2.102V178.002z"/>
		<path fill="#F0895A" d="M131.465,183.633c-0.672,0.854-1.779,1.345-2.872,1.345c-2.101,0-3.782-1.4-3.782-3.572
			c0-2.171,1.681-3.571,3.782-3.571c1.961,0,3.194,1.4,3.194,3.571v0.659h-4.875c0.168,0.798,0.771,1.316,1.583,1.316
			c0.687,0,1.148-0.351,1.499-0.826L131.465,183.633z M129.686,180.636c0.014-0.701-0.532-1.289-1.289-1.289
			c-0.924,0-1.429,0.63-1.485,1.289H129.686z"/>
		<path fill="#F0895A" d="M133.786,179.683h-1.387v-1.681h1.387v-1.205c0-1.484,0.378-2.745,2.662-2.745
			c0.42,0,0.84,0.028,1.232,0.126l-0.098,1.779c-0.238-0.084-0.434-0.141-0.686-0.141c-0.672,0-1.009,0.21-1.009,1.106v1.079h1.555
			v1.681h-1.555v5.127h-2.101V179.683z"/>
		<path fill="#F0895A" d="M144.681,183.633c-0.672,0.854-1.779,1.345-2.872,1.345c-2.101,0-3.782-1.4-3.782-3.572
			c0-2.171,1.681-3.571,3.782-3.571c1.961,0,3.193,1.4,3.193,3.571v0.659h-4.875c0.168,0.798,0.771,1.316,1.583,1.316
			c0.687,0,1.148-0.351,1.499-0.826L144.681,183.633z M142.901,180.636c0.014-0.701-0.532-1.289-1.289-1.289
			c-0.924,0-1.429,0.63-1.485,1.289H142.901z"/>
		<path fill="#F0895A" d="M146.272,178.002h2.102v1.093h0.028c0.448-0.827,1.037-1.261,1.961-1.261c0.238,0,0.504,0.014,0.701,0.07
			v1.919c-0.294-0.084-0.588-0.141-0.896-0.141c-1.597,0-1.793,0.925-1.793,2.283v2.844h-2.102V178.002z"/>
		<path fill="#F0895A" d="M155.344,174.893h2.381l1.583,6.359h0.028l2.073-6.359h2.031l2.059,6.527h0.028l1.667-6.527h2.213
			l-2.899,9.917h-1.947l-2.185-6.863h-0.028l-2.185,6.863h-1.877L155.344,174.893z"/>
		<path fill="#F0895A" d="M172.875,177.834c2.101,0,3.782,1.4,3.782,3.571c0,2.172-1.681,3.572-3.782,3.572s-3.782-1.4-3.782-3.572
			C169.092,179.234,170.773,177.834,172.875,177.834z M172.875,183.129c1.05,0,1.681-0.7,1.681-1.724
			c0-1.022-0.63-1.723-1.681-1.723c-1.051,0-1.681,0.7-1.681,1.723C171.193,182.429,171.824,183.129,172.875,183.129z"/>
		<path fill="#F0895A" d="M177.884,178.002h2.017v0.925h0.028c0.28-0.532,0.966-1.093,1.989-1.093c0.953,0,1.737,0.392,2.102,1.219
			c0.49-0.869,1.148-1.219,2.157-1.219c1.849,0,2.41,1.303,2.41,2.955v4.021h-2.101v-3.964c0-0.631-0.238-1.163-0.925-1.163
			c-0.966,0-1.274,0.687-1.274,1.527v3.6h-2.102v-3.6c0-0.505,0.028-1.527-0.938-1.527c-1.092,0-1.26,0.854-1.26,1.737v3.39h-2.102
			V178.002z"/>
		<path fill="#F0895A" d="M196.507,183.633c-0.672,0.854-1.779,1.345-2.872,1.345c-2.101,0-3.782-1.4-3.782-3.572
			c0-2.171,1.681-3.571,3.782-3.571c1.961,0,3.194,1.4,3.194,3.571v0.659h-4.875c0.168,0.798,0.771,1.316,1.583,1.316
			c0.687,0,1.148-0.351,1.499-0.826L196.507,183.633z M194.728,180.636c0.014-0.701-0.532-1.289-1.289-1.289
			c-0.924,0-1.429,0.63-1.485,1.289H194.728z"/>
		<path fill="#F0895A" d="M198.099,178.002h2.017v0.925h0.028c0.28-0.532,0.966-1.093,1.989-1.093c2.129,0,2.521,1.4,2.521,3.222
			v3.754h-2.101v-3.334c0-0.784-0.014-1.793-1.093-1.793c-1.092,0-1.26,0.854-1.26,1.737v3.39h-2.102V178.002z"/>
	</g>
</g>
<g id="senateMenMLStat">
	<g>
		<path fill="#F0895A" d="M308.247,35.953l-1.989,1.751l-1.19-1.372l3.235-2.731h1.961v9.917h-2.017V35.953z"/>
		<path fill="#F0895A" d="M317.922,35.533h-4.902V33.6h7.256v1.849l-3.965,8.068h-2.451L317.922,35.533z"/>
		<path fill="#F0895A" d="M323.619,33.431c1.526,0,2.759,1.233,2.759,2.774c0,1.54-1.232,2.773-2.759,2.773
			c-1.527,0-2.76-1.233-2.76-2.773C320.859,34.665,322.092,33.431,323.619,33.431z M323.619,34.861
			c-0.743,0-1.331,0.602-1.331,1.345c0,0.742,0.588,1.345,1.331,1.345c0.742,0,1.33-0.603,1.33-1.345
			C324.949,35.462,324.361,34.861,323.619,34.861z M329.404,33.152l1.176,0.658l-5.785,10.155l-1.064-0.603L329.404,33.152z
			 M330.664,38.125c1.527,0,2.76,1.232,2.76,2.773s-1.232,2.787-2.76,2.787c-1.526,0-2.76-1.246-2.76-2.787
			S329.138,38.125,330.664,38.125z M330.664,39.553c-0.742,0-1.33,0.603-1.33,1.345c0,0.756,0.588,1.358,1.33,1.358
			s1.331-0.603,1.331-1.358C331.995,40.156,331.406,39.553,330.664,39.553z"/>
		<path fill="#F0895A" d="M338.639,33.6h3.685c2.06,0,3.769,0.658,3.769,3.012c0,2.325-1.583,3.039-3.67,3.039h-1.598v3.866h-2.186
			V33.6z M340.824,37.802h1.457c0.771,0,1.541-0.267,1.541-1.19c0-1.023-1.037-1.163-1.877-1.163h-1.121V37.802z"/>
		<path fill="#F0895A" d="M347.193,36.709h2.102v1.093h0.027c0.448-0.827,1.037-1.261,1.961-1.261c0.238,0,0.504,0.014,0.701,0.07
			v1.919c-0.295-0.084-0.589-0.141-0.896-0.141c-1.598,0-1.793,0.925-1.793,2.283v2.844h-2.102V36.709z"/>
		<path fill="#F0895A" d="M359.082,42.34c-0.672,0.854-1.779,1.345-2.871,1.345c-2.102,0-3.782-1.4-3.782-3.572
			c0-2.171,1.681-3.571,3.782-3.571c1.961,0,3.193,1.4,3.193,3.571v0.659h-4.875c0.168,0.798,0.771,1.316,1.584,1.316
			c0.686,0,1.148-0.351,1.498-0.826L359.082,42.34z M357.303,39.343c0.015-0.701-0.531-1.289-1.288-1.289
			c-0.925,0-1.429,0.63-1.485,1.289H357.303z"/>
		<path fill="#F0895A" d="M361.402,38.39h-1.387v-1.681h1.387v-1.205c0-1.484,0.379-2.745,2.662-2.745
			c0.42,0,0.84,0.028,1.232,0.126l-0.098,1.779c-0.238-0.084-0.435-0.141-0.687-0.141c-0.673,0-1.009,0.21-1.009,1.106v1.079h1.555
			v1.681h-1.555v5.127h-2.102V38.39z"/>
		<path fill="#F0895A" d="M372.298,42.34c-0.673,0.854-1.779,1.345-2.872,1.345c-2.101,0-3.781-1.4-3.781-3.572
			c0-2.171,1.681-3.571,3.781-3.571c1.961,0,3.193,1.4,3.193,3.571v0.659h-4.874c0.169,0.798,0.771,1.316,1.583,1.316
			c0.687,0,1.148-0.351,1.498-0.826L372.298,42.34z M370.519,39.343c0.015-0.701-0.532-1.289-1.288-1.289
			c-0.925,0-1.43,0.63-1.485,1.289H370.519z"/>
		<path fill="#F0895A" d="M373.89,36.709h2.102v1.093h0.028c0.447-0.827,1.036-1.261,1.961-1.261c0.238,0,0.504,0.014,0.7,0.07
			v1.919c-0.294-0.084-0.589-0.141-0.896-0.141c-1.597,0-1.793,0.925-1.793,2.283v2.844h-2.102V36.709z"/>
		<path fill="#F0895A" d="M383.998,33.6h3.306l2.283,6.471h0.028l2.297-6.471h3.291v9.917h-2.185v-7.606h-0.028l-2.605,7.606h-1.666
			l-2.508-7.606h-0.027v7.606h-2.186V33.6z"/>
		<path fill="#F0895A" d="M403.391,42.34c-0.672,0.854-1.779,1.345-2.871,1.345c-2.102,0-3.782-1.4-3.782-3.572
			c0-2.171,1.681-3.571,3.782-3.571c1.961,0,3.193,1.4,3.193,3.571v0.659h-4.875c0.168,0.798,0.771,1.316,1.584,1.316
			c0.686,0,1.148-0.351,1.498-0.826L403.391,42.34z M401.611,39.343c0.015-0.701-0.531-1.289-1.288-1.289
			c-0.925,0-1.429,0.63-1.485,1.289H401.611z"/>
		<path fill="#F0895A" d="M404.982,36.709H407v0.925h0.028c0.28-0.532,0.966-1.093,1.989-1.093c2.129,0,2.521,1.4,2.521,3.222v3.754
			h-2.102v-3.334c0-0.784-0.014-1.793-1.093-1.793c-1.093,0-1.261,0.854-1.261,1.737v3.39h-2.102V36.709z"/>
	</g>
	<g>
		<path fill="#EECAB2" d="M313.317,174.455h-4.903v-1.934h7.257v1.85l-3.964,8.068h-2.451L313.317,174.455z"/>
		<path fill="#EECAB2" d="M320.85,180.449h-4.328v-1.764l4.047-6.164h2.298v6.164h1.274v1.764h-1.274v1.99h-2.017V180.449z
			 M320.85,175.268h-0.028l-2.199,3.418h2.228V175.268z"/>
		<path fill="#EECAB2" d="M327.303,172.354c1.526,0,2.759,1.232,2.759,2.773s-1.232,2.773-2.759,2.773
			c-1.527,0-2.76-1.232-2.76-2.773S325.775,172.354,327.303,172.354z M327.303,173.783c-0.743,0-1.331,0.602-1.331,1.344
			s0.588,1.346,1.331,1.346c0.742,0,1.33-0.604,1.33-1.346S328.045,173.783,327.303,173.783z M333.088,172.074l1.176,0.658
			l-5.785,10.154l-1.064-0.602L333.088,172.074z M334.348,177.047c1.527,0,2.76,1.232,2.76,2.773s-1.232,2.787-2.76,2.787
			c-1.526,0-2.76-1.246-2.76-2.787S332.821,177.047,334.348,177.047z M334.348,178.475c-0.742,0-1.33,0.604-1.33,1.346
			c0,0.756,0.588,1.357,1.33,1.357s1.331-0.602,1.331-1.357C335.679,179.078,335.09,178.475,334.348,178.475z"/>
		<path fill="#EECAB2" d="M342.322,172.521h2.971l4.216,6.893h0.028v-6.893h2.186v9.918h-2.857l-4.329-7.061h-0.028v7.061h-2.186
			V172.521z"/>
		<path fill="#EECAB2" d="M356.996,175.463c2.102,0,3.782,1.4,3.782,3.572s-1.681,3.572-3.782,3.572c-2.101,0-3.781-1.4-3.781-3.572
			S354.896,175.463,356.996,175.463z M356.996,180.758c1.051,0,1.682-0.699,1.682-1.723s-0.631-1.723-1.682-1.723
			s-1.681,0.699-1.681,1.723S355.945,180.758,356.996,180.758z"/>
		<path fill="#EECAB2" d="M366.416,172.521h3.685c2.06,0,3.769,0.658,3.769,3.012c0,2.326-1.583,3.039-3.67,3.039h-1.598v3.867
			h-2.186V172.521z M368.602,176.725h1.457c0.771,0,1.541-0.268,1.541-1.191c0-1.023-1.037-1.162-1.877-1.162h-1.121V176.725z"/>
		<path fill="#EECAB2" d="M374.971,175.631h2.102v1.094h0.027c0.448-0.828,1.037-1.262,1.961-1.262c0.238,0,0.504,0.014,0.701,0.07
			v1.92c-0.295-0.084-0.589-0.141-0.896-0.141c-1.598,0-1.793,0.924-1.793,2.283v2.844h-2.102V175.631z"/>
		<path fill="#EECAB2" d="M386.859,181.262c-0.672,0.855-1.779,1.346-2.871,1.346c-2.102,0-3.782-1.4-3.782-3.572
			s1.681-3.572,3.782-3.572c1.961,0,3.193,1.4,3.193,3.572v0.658h-4.875c0.168,0.799,0.771,1.316,1.584,1.316
			c0.686,0,1.148-0.35,1.498-0.826L386.859,181.262z M385.08,178.266c0.015-0.701-0.531-1.289-1.288-1.289
			c-0.925,0-1.429,0.629-1.485,1.289H385.08z"/>
		<path fill="#EECAB2" d="M389.18,177.313h-1.387v-1.682h1.387v-1.205c0-1.484,0.379-2.744,2.662-2.744
			c0.42,0,0.84,0.027,1.232,0.125l-0.098,1.779c-0.238-0.084-0.435-0.141-0.687-0.141c-0.673,0-1.009,0.211-1.009,1.107v1.078h1.555
			v1.682h-1.555v5.127h-2.102V177.313z"/>
		<path fill="#EECAB2" d="M400.075,181.262c-0.673,0.855-1.779,1.346-2.872,1.346c-2.101,0-3.781-1.4-3.781-3.572
			s1.681-3.572,3.781-3.572c1.961,0,3.193,1.4,3.193,3.572v0.658h-4.874c0.169,0.799,0.771,1.316,1.583,1.316
			c0.687,0,1.148-0.35,1.498-0.826L400.075,181.262z M398.296,178.266c0.015-0.701-0.532-1.289-1.288-1.289
			c-0.925,0-1.43,0.629-1.485,1.289H398.296z"/>
		<path fill="#EECAB2" d="M401.667,175.631h2.102v1.094h0.028c0.447-0.828,1.036-1.262,1.961-1.262c0.238,0,0.504,0.014,0.7,0.07
			v1.92c-0.294-0.084-0.589-0.141-0.896-0.141c-1.597,0-1.793,0.924-1.793,2.283v2.844h-2.102V175.631z"/>
		<path fill="#EECAB2" d="M413.557,181.262c-0.672,0.855-1.779,1.346-2.871,1.346c-2.102,0-3.783-1.4-3.783-3.572
			s1.682-3.572,3.783-3.572c1.961,0,3.193,1.4,3.193,3.572v0.658h-4.875c0.168,0.799,0.771,1.316,1.583,1.316
			c0.687,0,1.148-0.35,1.499-0.826L413.557,181.262z M411.777,178.266c0.014-0.701-0.532-1.289-1.289-1.289
			c-0.924,0-1.428,0.629-1.484,1.289H411.777z"/>
		<path fill="#EECAB2" d="M415.148,175.631h2.018v0.926h0.027c0.281-0.533,0.967-1.094,1.989-1.094c2.13,0,2.521,1.4,2.521,3.223
			v3.754h-2.101v-3.334c0-0.785-0.015-1.793-1.094-1.793c-1.092,0-1.26,0.854-1.26,1.736v3.391h-2.102V175.631z"/>
		<path fill="#EECAB2" d="M427.793,177.83c-0.211-0.293-0.603-0.518-1.037-0.518c-1.051,0-1.681,0.699-1.681,1.723
			s0.63,1.723,1.681,1.723c0.463,0,0.799-0.238,1.037-0.518l1.387,1.457c-0.658,0.672-1.625,0.91-2.424,0.91
			c-2.101,0-3.781-1.4-3.781-3.572s1.681-3.572,3.781-3.572c0.799,0,1.766,0.238,2.424,0.91L427.793,177.83z"/>
		<path fill="#EECAB2" d="M436.376,181.262c-0.673,0.855-1.779,1.346-2.872,1.346c-2.101,0-3.781-1.4-3.781-3.572
			s1.681-3.572,3.781-3.572c1.961,0,3.193,1.4,3.193,3.572v0.658h-4.874c0.169,0.799,0.771,1.316,1.583,1.316
			c0.687,0,1.148-0.35,1.498-0.826L436.376,181.262z M434.597,178.266c0.015-0.701-0.532-1.289-1.288-1.289
			c-0.925,0-1.43,0.629-1.485,1.289H434.597z"/>
	</g>
</g>
<g id="senateMenWStat">
	<g opacity="0.5">
		<path fill="#767C6D" d="M92.482,152.164c-0.45-0.576-1.35-0.847-2.035-0.847c-0.792,0-1.89,0.36-1.89,1.314
			c0,2.323,5.87,0.828,5.87,5.294c0,2.845-2.287,4.195-4.916,4.195c-1.639,0-3.079-0.486-4.285-1.603l1.999-2.196
			c0.576,0.756,1.512,1.206,2.449,1.206c0.918,0,1.944-0.433,1.944-1.332c0-2.341-5.978-1.081-5.978-5.33
			c0-2.719,2.358-4.142,4.861-4.142c1.44,0,2.827,0.379,3.907,1.333L92.482,152.164z"/>
		<path fill="#767C6D" d="M104.453,160.284c-0.864,1.099-2.287,1.729-3.691,1.729c-2.701,0-4.861-1.801-4.861-4.591
			c0-2.791,2.161-4.592,4.861-4.592c2.521,0,4.105,1.801,4.105,4.592v0.846h-6.266c0.216,1.026,0.99,1.692,2.034,1.692
			c0.882,0,1.477-0.45,1.927-1.062L104.453,160.284z M102.166,156.432c0.018-0.9-0.684-1.657-1.657-1.657
			c-1.188,0-1.836,0.811-1.908,1.657H102.166z"/>
		<path fill="#767C6D" d="M106.502,153.046h2.593v1.188h0.036c0.36-0.684,1.243-1.404,2.557-1.404c2.737,0,3.241,1.801,3.241,4.142
			v4.825h-2.701v-4.285c0-1.009-0.018-2.305-1.405-2.305c-1.404,0-1.62,1.099-1.62,2.232v4.357h-2.701V153.046z"/>
		<path fill="#767C6D" d="M122.326,160.698h-0.036c-0.594,0.937-1.674,1.314-2.772,1.314c-1.639,0-3.115-0.936-3.115-2.7
			c0-3.025,3.673-3.079,5.924-3.079c0-0.954-0.792-1.566-1.729-1.566c-0.882,0-1.62,0.396-2.196,1.044l-1.44-1.477
			c0.99-0.937,2.431-1.404,3.853-1.404c3.151,0,3.997,1.603,3.997,4.52v4.447h-2.485V160.698z M121.66,157.962
			c-0.828,0-2.665,0.072-2.665,1.26c0,0.648,0.685,0.955,1.278,0.955c1.063,0,2.053-0.559,2.053-1.639v-0.576H121.66z"/>
		<path fill="#767C6D" d="M132.459,155.207h-2.377v2.917c0,0.936,0.108,1.62,1.279,1.62c0.288,0,0.864-0.036,1.098-0.252v2.251
			c-0.594,0.216-1.26,0.27-1.891,0.27c-1.8,0-3.187-0.738-3.187-2.646v-4.159h-1.729v-2.161h1.729v-2.593h2.701v2.593h2.377V155.207
			z"/>
		<path fill="#767C6D" d="M142.108,160.284c-0.864,1.099-2.287,1.729-3.691,1.729c-2.701,0-4.862-1.801-4.862-4.591
			c0-2.791,2.161-4.592,4.862-4.592c2.521,0,4.105,1.801,4.105,4.592v0.846h-6.266c0.216,1.026,0.991,1.692,2.035,1.692
			c0.882,0,1.477-0.45,1.927-1.062L142.108,160.284z M139.822,156.432c0.018-0.9-0.685-1.657-1.657-1.657
			c-1.188,0-1.836,0.811-1.909,1.657H139.822z"/>
		<path fill="#767C6D" d="M148.495,149.049h3.061l2.035,8.175h0.036l2.665-8.175h2.611l2.647,8.391h0.036l2.143-8.391h2.845
			l-3.727,12.748h-2.503l-2.809-8.822h-0.036l-2.809,8.822h-2.413L148.495,149.049z"/>
		<path fill="#767C6D" d="M171.033,152.83c2.701,0,4.861,1.801,4.861,4.592c0,2.79-2.161,4.591-4.861,4.591
			s-4.861-1.801-4.861-4.591C166.172,154.631,168.333,152.83,171.033,152.83z M171.033,159.636c1.35,0,2.161-0.899,2.161-2.214
			s-0.811-2.215-2.161-2.215c-1.351,0-2.161,0.9-2.161,2.215S169.683,159.636,171.033,159.636z"/>
		<path fill="#767C6D" d="M177.476,153.046h2.593v1.188h0.036c0.36-0.684,1.243-1.404,2.557-1.404c1.225,0,2.233,0.504,2.701,1.566
			c0.63-1.116,1.476-1.566,2.772-1.566c2.377,0,3.097,1.675,3.097,3.799v5.168h-2.701v-5.096c0-0.81-0.306-1.494-1.188-1.494
			c-1.243,0-1.639,0.882-1.639,1.963v4.627h-2.701v-4.627c0-0.648,0.036-1.963-1.207-1.963c-1.404,0-1.62,1.099-1.62,2.232v4.357
			h-2.701V153.046z"/>
		<path fill="#767C6D" d="M201.418,160.284c-0.864,1.099-2.287,1.729-3.691,1.729c-2.701,0-4.861-1.801-4.861-4.591
			c0-2.791,2.161-4.592,4.861-4.592c2.521,0,4.105,1.801,4.105,4.592v0.846h-6.266c0.216,1.026,0.99,1.692,2.034,1.692
			c0.882,0,1.477-0.45,1.927-1.062L201.418,160.284z M199.132,156.432c0.018-0.9-0.684-1.657-1.657-1.657
			c-1.188,0-1.836,0.811-1.908,1.657H199.132z"/>
		<path fill="#767C6D" d="M203.468,153.046h2.593v1.188h0.036c0.36-0.684,1.243-1.404,2.557-1.404c2.737,0,3.241,1.801,3.241,4.142
			v4.825h-2.701v-4.285c0-1.009-0.018-2.305-1.405-2.305c-1.404,0-1.62,1.099-1.62,2.232v4.357h-2.701V153.046z"/>
		<path fill="#767C6D" d="M219.056,158.934l4.952-4.447c0.504-0.468,1.134-1.008,1.134-1.782c0-0.864-0.738-1.387-1.567-1.387
			c-0.99,0-1.584,0.702-1.656,1.621l-2.701-0.198c0.162-2.629,1.999-3.907,4.501-3.907c2.322,0,4.123,1.278,4.123,3.835
			c0,1.639-0.702,2.575-1.675,3.421l-3.871,3.331h5.654v2.377h-8.895V158.934z"/>
		<path fill="#767C6D" d="M234.159,148.833c3.781,0,4.735,3.565,4.735,6.59c0,3.025-0.954,6.59-4.735,6.59s-4.735-3.564-4.735-6.59
			C229.423,152.398,230.377,148.833,234.159,148.833z M234.159,159.528c1.944,0,2.035-2.773,2.035-4.105s-0.09-4.105-2.035-4.105
			s-2.035,2.773-2.035,4.105S232.214,159.528,234.159,159.528z"/>
		<path fill="#767C6D" d="M243.122,148.833c1.962,0,3.547,1.584,3.547,3.565c0,1.98-1.584,3.564-3.547,3.564
			c-1.963,0-3.547-1.584-3.547-3.564C239.575,150.417,241.159,148.833,243.122,148.833z M243.122,150.67
			c-0.955,0-1.71,0.773-1.71,1.729c0,0.954,0.756,1.729,1.71,1.729c0.954,0,1.71-0.774,1.71-1.729
			C244.833,151.443,244.076,150.67,243.122,150.67z M250.558,148.473l1.513,0.847l-7.437,13.054l-1.368-0.774L250.558,148.473z
			 M252.179,154.865c1.962,0,3.547,1.584,3.547,3.564s-1.584,3.583-3.547,3.583s-3.547-1.603-3.547-3.583
			S250.216,154.865,252.179,154.865z M252.179,156.701c-0.955,0-1.71,0.774-1.71,1.729c0,0.973,0.756,1.747,1.71,1.747
			c0.954,0,1.71-0.774,1.71-1.747C253.889,157.476,253.133,156.701,252.179,156.701z"/>
	</g>
</g>
<g id="senateMenMStat">
	<g>
		<path fill="#F1F2F2" d="M331.976,152.164c-0.45-0.576-1.351-0.848-2.034-0.848c-0.793,0-1.891,0.361-1.891,1.314
			c0,2.324,5.869,0.828,5.869,5.295c0,2.844-2.286,4.195-4.915,4.195c-1.639,0-3.079-0.486-4.285-1.604l1.999-2.195
			c0.576,0.756,1.512,1.205,2.448,1.205c0.918,0,1.944-0.432,1.944-1.332c0-2.34-5.978-1.08-5.978-5.33
			c0-2.719,2.358-4.141,4.861-4.141c1.44,0,2.827,0.379,3.907,1.332L331.976,152.164z"/>
		<path fill="#F1F2F2" d="M343.946,160.283c-0.864,1.1-2.286,1.729-3.691,1.729c-2.7,0-4.861-1.801-4.861-4.59
			c0-2.791,2.161-4.592,4.861-4.592c2.521,0,4.105,1.801,4.105,4.592v0.846h-6.266c0.216,1.025,0.99,1.691,2.034,1.691
			c0.883,0,1.477-0.449,1.927-1.061L343.946,160.283z M341.66,156.432c0.018-0.9-0.685-1.658-1.657-1.658
			c-1.188,0-1.837,0.811-1.908,1.658H341.66z"/>
		<path fill="#F1F2F2" d="M345.996,153.045h2.592v1.189h0.037c0.359-0.684,1.242-1.404,2.557-1.404c2.736,0,3.24,1.801,3.24,4.141
			v4.826h-2.7v-4.285c0-1.01-0.019-2.305-1.405-2.305c-1.404,0-1.619,1.098-1.619,2.232v4.357h-2.701V153.045z"/>
		<path fill="#F1F2F2" d="M361.819,160.697h-0.036c-0.594,0.938-1.674,1.314-2.772,1.314c-1.639,0-3.115-0.936-3.115-2.699
			c0-3.025,3.673-3.08,5.924-3.08c0-0.953-0.792-1.566-1.729-1.566c-0.882,0-1.62,0.396-2.196,1.045l-1.44-1.477
			c0.99-0.938,2.431-1.404,3.853-1.404c3.151,0,3.998,1.602,3.998,4.52v4.447h-2.485V160.697z M361.153,157.961
			c-0.828,0-2.665,0.072-2.665,1.26c0,0.648,0.685,0.955,1.278,0.955c1.063,0,2.053-0.559,2.053-1.639v-0.576H361.153z"/>
		<path fill="#F1F2F2" d="M371.953,155.207h-2.377v2.916c0,0.936,0.108,1.621,1.279,1.621c0.287,0,0.863-0.037,1.098-0.252v2.25
			c-0.594,0.217-1.26,0.27-1.891,0.27c-1.801,0-3.188-0.738-3.188-2.646v-4.158h-1.729v-2.162h1.729v-2.592h2.701v2.592h2.377
			V155.207z"/>
		<path fill="#F1F2F2" d="M381.602,160.283c-0.863,1.1-2.286,1.729-3.69,1.729c-2.701,0-4.862-1.801-4.862-4.59
			c0-2.791,2.161-4.592,4.862-4.592c2.521,0,4.104,1.801,4.104,4.592v0.846h-6.266c0.217,1.025,0.99,1.691,2.035,1.691
			c0.882,0,1.477-0.449,1.926-1.061L381.602,160.283z M379.315,156.432c0.019-0.9-0.685-1.658-1.657-1.658
			c-1.188,0-1.836,0.811-1.908,1.658H379.315z"/>
		<path fill="#F1F2F2" d="M389.321,149.049h4.249l2.936,8.318h0.035l2.953-8.318h4.231v12.748h-2.809v-9.777h-0.036l-3.35,9.777
			h-2.143l-3.223-9.777h-0.036v9.777h-2.809V149.049z"/>
		<path fill="#F1F2F2" d="M414.254,160.283c-0.865,1.1-2.287,1.729-3.691,1.729c-2.701,0-4.861-1.801-4.861-4.59
			c0-2.791,2.16-4.592,4.861-4.592c2.521,0,4.105,1.801,4.105,4.592v0.846h-6.267c0.216,1.025,0.991,1.691,2.034,1.691
			c0.883,0,1.477-0.449,1.928-1.061L414.254,160.283z M411.967,156.432c0.018-0.9-0.685-1.658-1.656-1.658
			c-1.188,0-1.837,0.811-1.909,1.658H411.967z"/>
		<path fill="#F1F2F2" d="M416.303,153.045h2.593v1.189h0.036c0.36-0.684,1.242-1.404,2.557-1.404c2.736,0,3.241,1.801,3.241,4.141
			v4.826h-2.7v-4.285c0-1.01-0.019-2.305-1.405-2.305c-1.404,0-1.62,1.098-1.62,2.232v4.357h-2.701V153.045z"/>
		<path fill="#F1F2F2" d="M431.891,158.934l4.951-4.447c0.504-0.469,1.135-1.008,1.135-1.783c0-0.863-0.738-1.387-1.566-1.387
			c-0.99,0-1.585,0.703-1.656,1.621l-2.701-0.197c0.162-2.629,1.998-3.908,4.501-3.908c2.323,0,4.124,1.279,4.124,3.836
			c0,1.639-0.703,2.574-1.675,3.42l-3.872,3.332h5.654v2.377h-8.895V158.934z"/>
		<path fill="#F1F2F2" d="M446.994,148.832c3.781,0,4.734,3.566,4.734,6.59c0,3.025-0.953,6.59-4.734,6.59s-4.736-3.564-4.736-6.59
			C442.258,152.398,443.213,148.832,446.994,148.832z M446.994,159.527c1.944,0,2.034-2.773,2.034-4.105s-0.09-4.105-2.034-4.105
			c-1.945,0-2.035,2.773-2.035,4.105S445.049,159.527,446.994,159.527z"/>
		<path fill="#F1F2F2" d="M455.957,148.832c1.963,0,3.547,1.584,3.547,3.566c0,1.98-1.584,3.564-3.547,3.564
			s-3.547-1.584-3.547-3.564C452.41,150.416,453.994,148.832,455.957,148.832z M455.957,150.67c-0.955,0-1.711,0.773-1.711,1.729
			c0,0.953,0.756,1.729,1.711,1.729c0.954,0,1.711-0.775,1.711-1.729C457.668,151.443,456.911,150.67,455.957,150.67z
			 M463.393,148.473l1.514,0.846l-7.438,13.055l-1.367-0.775L463.393,148.473z M465.014,154.865c1.963,0,3.547,1.584,3.547,3.564
			s-1.584,3.582-3.547,3.582s-3.547-1.602-3.547-3.582S463.051,154.865,465.014,154.865z M465.014,156.701
			c-0.954,0-1.711,0.773-1.711,1.729c0,0.973,0.757,1.746,1.711,1.746s1.711-0.773,1.711-1.746
			C466.725,157.475,465.968,156.701,465.014,156.701z"/>
	</g>
</g>
</svg>
