<?xml version="1.0" encoding="utf-8"?>
<!-- Generator: Adobe Illustrator 16.0.0, SVG Export Plug-In . SVG Version: 6.00 Build 0)  -->
<!DOCTYPE svg PUBLIC "-//W3C//DTD SVG 1.1//EN" "http://www.w3.org/Graphics/SVG/1.1/DTD/svg11.dtd">
<svg version="1.1" xmlns="http://www.w3.org/2000/svg" xmlns:xlink="http://www.w3.org/1999/xlink" x="0px" y="0px" width="792px"
	 height="612px" viewBox="0 0 792 612" enable-background="new 0 0 792 612" xml:space="preserve">
<g id="Senate_Percent">
	<g>
		<rect x="186.987" y="194.346" fill="#FFF1E2" width="182.684" height="182.681"/>
		<rect x="186.987" y="342.316" opacity="0.5" fill="#767C6D" width="182.684" height="34.711"/>
	</g>
	<g>
		<rect x="411.316" y="193.561" fill="#E3EFE5" width="182.684" height="182.681"/>
		<rect x="411.313" y="193.561" opacity="0.5" fill="#767C6D" width="182.688" height="147.97"/>
	</g>
</g>
<g id="Senate_Men_WL">
	
		<rect x="186.987" y="366.057" fill="none" stroke="#F0895A" stroke-width="4" stroke-miterlimit="10" width="182.684" height="12.787"/>
	
		<rect x="186.987" y="227.745" fill="none" stroke="#EECAB2" stroke-width="4" stroke-miterlimit="10" width="182.684" height="135.185"/>
</g>
<g id="Senate_Men_ML">
	
		<rect x="411.316" y="193.561" fill="none" stroke="#F0895A" stroke-width="4" stroke-miterlimit="10" width="182.684" height="31.057"/>
	
		<rect x="411.316" y="227.745" fill="none" stroke="#EECAB2" stroke-width="4" stroke-miterlimit="10" width="182.684" height="135.185"/>
</g>
<g id="Senate_Men_Text">
	<g>
		<path fill="#F0895A" d="M141.127,240.304c-3.609,0.193-7.951,0.428-11.174,0.389v0.117c3.029,0.893,6.258,1.979,9.832,3.297
			l12.561,4.617v2.561l-12.332,4.23c-3.65,1.24-6.992,2.289-10.061,3.023v0.078c3.223,0.078,7.564,0.273,11.443,0.504l11.104,0.697
			v3.221l-25.893-1.824v-4.303l12.521-4.463c3.189-1.086,6.035-1.979,8.721-2.637v-0.117c-2.609-0.662-5.451-1.592-8.721-2.756
			l-12.521-4.654v-4.307l25.893-1.629v3.299L141.127,240.304z"/>
		<path fill="#F0895A" d="M140.359,217.621v10.166h9.334v-11.328h2.807v14.703h-25.893v-14.123h2.807v10.748h8.18v-10.166H140.359z"
			/>
		<path fill="#F0895A" d="M152.5,212.078h-25.893v-3.684l13.102-8.379c3.035-1.939,5.76-3.453,8.41-4.695l-0.037-0.074
			c-3.457,0.309-6.609,0.387-10.641,0.387h-10.834v-3.182H152.5v3.412l-13.139,8.303c-2.881,1.822-5.844,3.568-8.645,4.889
			l0.039,0.115c3.264-0.195,6.379-0.27,10.68-0.27H152.5V212.078z"/>
	</g>
</g>
<g id="Senate_Men_WL_Stat">
	<rect x="190.987" y="214.149" fill="none" width="174.684" height="20.938"/>
	<text transform="matrix(1 0 0 1 190.9873 224.7324)" fill="#EECAB2" font-family="'AvenirLTStd-Black'" font-size="14">74% No Preference</text>
	<rect x="190.987" y="353.37" fill="none" width="174.684" height="37.135"/>
	<text transform="matrix(1 0 0 1 190.9873 363.9541)" fill="#F0895A" font-family="'AvenirLTStd-Black'" font-size="14">7% Prefer Women</text>
</g>
<g id="Senate_Men_ML_Stat">
	<rect x="410.316" y="212.078" fill="none" width="174.684" height="20.938"/>
	<text transform="matrix(1 0 0 1 410.3164 222.6616)" fill="#F0895A" font-family="'AvenirLTStd-Black'" font-size="14">17% Prefer Men</text>
	<rect x="414" y="351" fill="none" width="174.684" height="20.938"/>
	<text transform="matrix(1 0 0 1 414 361.584)" fill="#EECAB2" font-family="'AvenirLTStd-Black'" font-size="14">74% No Preference</text>
</g>
<g id="Senate_W_Stat">
	<rect x="190.987" y="327.333" fill="none" width="174.684" height="20.938"/>
	
		<text transform="matrix(1 0 0 1 190.9873 340.9414)" opacity="0.5" fill="#767C6D" font-family="'AvenirLTStd-Black'" font-size="18">Senate Women 20%</text>
</g>
<g id="Senate_M_Stat">
	<rect x="430.48" y="327.333" fill="none" width="144.352" height="20.938"/>
	<text transform="matrix(1 0 0 1 430.4805 340.9414)" fill="#F1F2F2" font-family="'AvenirLTStd-Black'" font-size="18">Senate Men 20%</text>
</g>
</svg>
