<?xml version="1.0" encoding="utf-8"?>
<!-- Generator: Adobe Illustrator 16.0.0, SVG Export Plug-In . SVG Version: 6.00 Build 0)  -->
<!DOCTYPE svg PUBLIC "-//W3C//DTD SVG 1.1//EN" "http://www.w3.org/Graphics/SVG/1.1/DTD/svg11.dtd">
<svg version="1.1" xmlns="http://www.w3.org/2000/svg" xmlns:xlink="http://www.w3.org/1999/xlink" x="0px" y="0px" width="792px"
	 height="612px" viewBox="0 0 792 612" enable-background="new 0 0 792 612" xml:space="preserve">
<g id="Senate_Percent">
	<g>
		<rect x="186.987" y="214.845" fill="#FFF1E2" width="182.684" height="182.682"/>
		<rect x="186.987" y="362.815" opacity="0.5" fill="#767C6D" width="182.684" height="34.711"/>
	</g>
	<g>
		<rect x="411.316" y="214.06" fill="#E3EFE5" width="182.684" height="182.682"/>
		<rect x="411.313" y="214.06" opacity="0.5" fill="#767C6D" width="182.688" height="147.971"/>
	</g>
</g>
<g id="Senate_Girls_WL">
	
		<rect x="186.987" y="252" fill="none" stroke="#BCD6C4" stroke-width="4" stroke-miterlimit="10" width="182.684" height="126.053"/>
	
		<rect x="186.987" y="382.689" fill="none" stroke="#6DB7A1" stroke-width="4" stroke-miterlimit="10" width="182.684" height="14.613"/>
</g>
<g id="Senate_Girls_ML">
	
		<rect x="411.316" y="211.985" fill="none" stroke="#6DB7A1" stroke-width="4" stroke-miterlimit="10" width="182.684" height="42.016"/>
	
		<rect x="411.314" y="257.7" fill="none" stroke="#BCD6C4" stroke-width="4" stroke-miterlimit="10" width="182.684" height="126.053"/>
</g>
<g id="Senate_Girls_Text">
	<g>
		<path fill="#6DB7A1" d="M151.461,284.549c0.539,1.514,1.422,4.5,1.422,8.033c0,3.955-1,7.213-3.418,9.773
			c-2.152,2.25-5.609,3.645-9.641,3.645c-7.723-0.035-13.373-5.391-13.373-14.16c0-3.025,0.654-5.391,1.189-6.516l2.73,0.816
			c-0.615,1.396-1.113,3.143-1.113,5.779c0,6.363,3.92,10.512,10.412,10.512c6.568,0,10.447-3.994,10.447-10.084
			c0-2.209-0.309-3.727-0.691-4.5h-7.719v5.314h-2.693v-8.613H151.461z"/>
		<path fill="#6DB7A1" d="M126.721,276.023h25.893v3.375h-25.893V276.023z"/>
		<path fill="#6DB7A1" d="M127.066,270.129c-0.346-1.707-0.539-4.152-0.539-6.477c0-3.609,0.656-5.938,2.115-7.566
			c1.154-1.318,2.92-2.057,4.92-2.057c3.418,0,5.684,2.172,6.605,4.928h0.113c0.691-2.018,2.541-3.223,5.225-3.84
			c3.611-0.855,6.111-1.475,7.107-2.02v3.492c-0.73,0.428-2.953,1.01-6.184,1.746c-3.572,0.773-4.918,2.172-5.035,5.238v3.178
			h11.219v3.377H127.066z M138.861,266.752v-3.451c0-3.607-1.959-5.895-4.916-5.895c-3.346,0-4.801,2.441-4.844,6.012
			c0,1.629,0.156,2.791,0.313,3.334H138.861z"/>
		<path fill="#6DB7A1" d="M126.721,249.264v-3.375h23.088v-11.174h2.805v14.549H126.721z"/>
		<path fill="#6DB7A1" d="M148.541,231.426c0.924-1.514,1.693-3.725,1.693-6.053c0-3.451-1.805-5.471-4.418-5.471
			c-2.42,0-3.805,1.398-5.148,4.93c-1.496,4.266-3.688,6.902-7.338,6.902c-4.033,0-7.031-3.375-7.031-8.457
			c0-2.676,0.615-4.615,1.268-5.779l2.729,0.932c-0.463,0.854-1.23,2.6-1.23,4.967c0,3.568,2.115,4.926,3.881,4.926
			c2.418,0,3.613-1.592,4.992-5.201c1.691-4.422,3.807-6.67,7.605-6.67c3.996,0,7.457,2.986,7.457,9.154
			c0,2.523-0.73,5.275-1.656,6.674L148.541,231.426z"/>
	</g>
</g>
<g id="Senate_Girls_WL_Stat">
	<rect x="189" y="240.063" fill="none" width="174.684" height="20.938"/>
	<text transform="matrix(1 0 0 1 189 250.646)" fill="#BCD6C4" font-family="'AvenirLTStd-Black'" font-size="14">69% No Preference</text>
	<rect x="189" y="369" fill="none" width="174.684" height="20.938"/>
	<text transform="matrix(1 0 0 1 189 379.582)" fill="#6DB7A1" font-family="'AvenirLTStd-Black'" font-size="14">8% Prefer Women</text>
</g>
<g id="Senate_Girls_ML_Stat">
	<rect x="414" y="243" fill="none" width="174.684" height="20.938"/>
	<text transform="matrix(1 0 0 1 413.999 253.584)" fill="#6DB7A1" font-family="'AvenirLTStd-Black'" font-size="14">23% Prefer Men</text>
	<rect x="414" y="369" fill="none" width="174.684" height="20.938"/>
	<text transform="matrix(1 0 0 1 413.999 379.584)" fill="#BCD6C4" font-family="'AvenirLTStd-Black'" font-size="14">69% No Preference</text>
</g>
<g id="Senate_W_Stat">
	<rect x="192.485" y="348.063" fill="none" width="171.688" height="20.938"/>
	
		<text transform="matrix(1 0 0 1 192.4854 361.6709)" opacity="0.5" fill="#767C6D" font-family="'AvenirLTStd-Black'" font-size="18">Senate Women </text>
</g>
<g id="Senate_M_Stat">
	<rect x="430.48" y="348.063" fill="none" width="144.352" height="20.938"/>
	<text transform="matrix(1 0 0 1 430.4805 361.6699)" fill="#F1F2F2" font-family="'AvenirLTStd-Black'" font-size="18">Senate Men 20%</text>
</g>
</svg>
